<?xml version="1.0" encoding="utf-8" standalone="no"?>
<!DOCTYPE svg PUBLIC "-//W3C//DTD SVG 1.1//EN"
  "http://www.w3.org/Graphics/SVG/1.1/DTD/svg11.dtd">
<svg xmlns:xlink="http://www.w3.org/1999/xlink" width="720pt" height="360pt" viewBox="0 0 720 360" xmlns="http://www.w3.org/2000/svg" version="1.1">
 <metadata>
  <rdf:RDF xmlns:dc="http://purl.org/dc/elements/1.1/" xmlns:cc="http://creativecommons.org/ns#" xmlns:rdf="http://www.w3.org/1999/02/22-rdf-syntax-ns#">
   <cc:Work>
    <dc:type rdf:resource="http://purl.org/dc/dcmitype/StillImage"/>
    <dc:date>2026-04-30T16:01:50.120980</dc:date>
    <dc:format>image/svg+xml</dc:format>
    <dc:creator>
     <cc:Agent>
      <dc:title>Matplotlib v3.10.9, https://matplotlib.org/</dc:title>
     </cc:Agent>
    </dc:creator>
   </cc:Work>
  </rdf:RDF>
 </metadata>
 <defs>
  <style type="text/css">*{stroke-linejoin: round; stroke-linecap: butt}</style>
 </defs>
 <g id="figure_1">
  <g id="patch_1">
   <path d="M 0 360 
L 720 360 
L 720 0 
L 0 0 
z
" style="fill: #ffffff"/>
  </g>
  <g id="axes_1">
   <g id="patch_2">
    <path d="M 54.02 318.04 
L 709.2 318.04 
L 709.2 26.88 
L 54.02 26.88 
z
" style="fill: #ffffff"/>
   </g>
   <g id="matplotlib.axis_1">
    <g id="xtick_1">
     <g id="line2d_1">
      <path d="M 77.784564 318.04 
L 77.784564 26.88 
" clip-path="url(#pc0f7257d8d)" style="fill: none; stroke: #b0b0b0; stroke-opacity: 0.25; stroke-width: 0.8; stroke-linecap: square"/>
     </g>
     <g id="line2d_2">
      <defs>
       <path id="mc8de16edb7" d="M 0 0 
L 0 3.5 
" style="stroke: #000000; stroke-width: 0.8"/>
      </defs>
      <g>
       <use xlink:href="#mc8de16edb7" x="77.784564" y="318.04" style="stroke: #000000; stroke-width: 0.8"/>
      </g>
     </g>
     <g id="text_1">
      <!-- 0 -->
      <g transform="translate(74.603314 332.638438) scale(0.1 -0.1)">
       <defs>
        <path id="DejaVuSans-30" d="M 2034 4250 
Q 1547 4250 1301 3770 
Q 1056 3291 1056 2328 
Q 1056 1369 1301 889 
Q 1547 409 2034 409 
Q 2525 409 2770 889 
Q 3016 1369 3016 2328 
Q 3016 3291 2770 3770 
Q 2525 4250 2034 4250 
z
M 2034 4750 
Q 2819 4750 3233 4129 
Q 3647 3509 3647 2328 
Q 3647 1150 3233 529 
Q 2819 -91 2034 -91 
Q 1250 -91 836 529 
Q 422 1150 422 2328 
Q 422 3509 836 4129 
Q 1250 4750 2034 4750 
z
" transform="scale(0.015625)"/>
       </defs>
       <use xlink:href="#DejaVuSans-30"/>
      </g>
     </g>
    </g>
    <g id="xtick_2">
     <g id="line2d_3">
      <path d="M 198.111469 318.04 
L 198.111469 26.88 
" clip-path="url(#pc0f7257d8d)" style="fill: none; stroke: #b0b0b0; stroke-opacity: 0.25; stroke-width: 0.8; stroke-linecap: square"/>
     </g>
     <g id="line2d_4">
      <g>
       <use xlink:href="#mc8de16edb7" x="198.111469" y="318.04" style="stroke: #000000; stroke-width: 0.8"/>
      </g>
     </g>
     <g id="text_2">
      <!-- 20 -->
      <g transform="translate(191.748969 332.638438) scale(0.1 -0.1)">
       <defs>
        <path id="DejaVuSans-32" d="M 1228 531 
L 3431 531 
L 3431 0 
L 469 0 
L 469 531 
Q 828 903 1448 1529 
Q 2069 2156 2228 2338 
Q 2531 2678 2651 2914 
Q 2772 3150 2772 3378 
Q 2772 3750 2511 3984 
Q 2250 4219 1831 4219 
Q 1534 4219 1204 4116 
Q 875 4013 500 3803 
L 500 4441 
Q 881 4594 1212 4672 
Q 1544 4750 1819 4750 
Q 2544 4750 2975 4387 
Q 3406 4025 3406 3419 
Q 3406 3131 3298 2873 
Q 3191 2616 2906 2266 
Q 2828 2175 2409 1742 
Q 1991 1309 1228 531 
z
" transform="scale(0.015625)"/>
       </defs>
       <use xlink:href="#DejaVuSans-32"/>
       <use xlink:href="#DejaVuSans-30" transform="translate(63.623047 0)"/>
      </g>
     </g>
    </g>
    <g id="xtick_3">
     <g id="line2d_5">
      <path d="M 318.438375 318.04 
L 318.438375 26.88 
" clip-path="url(#pc0f7257d8d)" style="fill: none; stroke: #b0b0b0; stroke-opacity: 0.25; stroke-width: 0.8; stroke-linecap: square"/>
     </g>
     <g id="line2d_6">
      <g>
       <use xlink:href="#mc8de16edb7" x="318.438375" y="318.04" style="stroke: #000000; stroke-width: 0.8"/>
      </g>
     </g>
     <g id="text_3">
      <!-- 40 -->
      <g transform="translate(312.075875 332.638438) scale(0.1 -0.1)">
       <defs>
        <path id="DejaVuSans-34" d="M 2419 4116 
L 825 1625 
L 2419 1625 
L 2419 4116 
z
M 2253 4666 
L 3047 4666 
L 3047 1625 
L 3713 1625 
L 3713 1100 
L 3047 1100 
L 3047 0 
L 2419 0 
L 2419 1100 
L 313 1100 
L 313 1709 
L 2253 4666 
z
" transform="scale(0.015625)"/>
       </defs>
       <use xlink:href="#DejaVuSans-34"/>
       <use xlink:href="#DejaVuSans-30" transform="translate(63.623047 0)"/>
      </g>
     </g>
    </g>
    <g id="xtick_4">
     <g id="line2d_7">
      <path d="M 438.76528 318.04 
L 438.76528 26.88 
" clip-path="url(#pc0f7257d8d)" style="fill: none; stroke: #b0b0b0; stroke-opacity: 0.25; stroke-width: 0.8; stroke-linecap: square"/>
     </g>
     <g id="line2d_8">
      <g>
       <use xlink:href="#mc8de16edb7" x="438.76528" y="318.04" style="stroke: #000000; stroke-width: 0.8"/>
      </g>
     </g>
     <g id="text_4">
      <!-- 60 -->
      <g transform="translate(432.40278 332.638438) scale(0.1 -0.1)">
       <defs>
        <path id="DejaVuSans-36" d="M 2113 2584 
Q 1688 2584 1439 2293 
Q 1191 2003 1191 1497 
Q 1191 994 1439 701 
Q 1688 409 2113 409 
Q 2538 409 2786 701 
Q 3034 994 3034 1497 
Q 3034 2003 2786 2293 
Q 2538 2584 2113 2584 
z
M 3366 4563 
L 3366 3988 
Q 3128 4100 2886 4159 
Q 2644 4219 2406 4219 
Q 1781 4219 1451 3797 
Q 1122 3375 1075 2522 
Q 1259 2794 1537 2939 
Q 1816 3084 2150 3084 
Q 2853 3084 3261 2657 
Q 3669 2231 3669 1497 
Q 3669 778 3244 343 
Q 2819 -91 2113 -91 
Q 1303 -91 875 529 
Q 447 1150 447 2328 
Q 447 3434 972 4092 
Q 1497 4750 2381 4750 
Q 2619 4750 2861 4703 
Q 3103 4656 3366 4563 
z
" transform="scale(0.015625)"/>
       </defs>
       <use xlink:href="#DejaVuSans-36"/>
       <use xlink:href="#DejaVuSans-30" transform="translate(63.623047 0)"/>
      </g>
     </g>
    </g>
    <g id="xtick_5">
     <g id="line2d_9">
      <path d="M 559.092185 318.04 
L 559.092185 26.88 
" clip-path="url(#pc0f7257d8d)" style="fill: none; stroke: #b0b0b0; stroke-opacity: 0.25; stroke-width: 0.8; stroke-linecap: square"/>
     </g>
     <g id="line2d_10">
      <g>
       <use xlink:href="#mc8de16edb7" x="559.092185" y="318.04" style="stroke: #000000; stroke-width: 0.8"/>
      </g>
     </g>
     <g id="text_5">
      <!-- 80 -->
      <g transform="translate(552.729685 332.638438) scale(0.1 -0.1)">
       <defs>
        <path id="DejaVuSans-38" d="M 2034 2216 
Q 1584 2216 1326 1975 
Q 1069 1734 1069 1313 
Q 1069 891 1326 650 
Q 1584 409 2034 409 
Q 2484 409 2743 651 
Q 3003 894 3003 1313 
Q 3003 1734 2745 1975 
Q 2488 2216 2034 2216 
z
M 1403 2484 
Q 997 2584 770 2862 
Q 544 3141 544 3541 
Q 544 4100 942 4425 
Q 1341 4750 2034 4750 
Q 2731 4750 3128 4425 
Q 3525 4100 3525 3541 
Q 3525 3141 3298 2862 
Q 3072 2584 2669 2484 
Q 3125 2378 3379 2068 
Q 3634 1759 3634 1313 
Q 3634 634 3220 271 
Q 2806 -91 2034 -91 
Q 1263 -91 848 271 
Q 434 634 434 1313 
Q 434 1759 690 2068 
Q 947 2378 1403 2484 
z
M 1172 3481 
Q 1172 3119 1398 2916 
Q 1625 2713 2034 2713 
Q 2441 2713 2670 2916 
Q 2900 3119 2900 3481 
Q 2900 3844 2670 4047 
Q 2441 4250 2034 4250 
Q 1625 4250 1398 4047 
Q 1172 3844 1172 3481 
z
" transform="scale(0.015625)"/>
       </defs>
       <use xlink:href="#DejaVuSans-38"/>
       <use xlink:href="#DejaVuSans-30" transform="translate(63.623047 0)"/>
      </g>
     </g>
    </g>
    <g id="xtick_6">
     <g id="line2d_11">
      <path d="M 679.419091 318.04 
L 679.419091 26.88 
" clip-path="url(#pc0f7257d8d)" style="fill: none; stroke: #b0b0b0; stroke-opacity: 0.25; stroke-width: 0.8; stroke-linecap: square"/>
     </g>
     <g id="line2d_12">
      <g>
       <use xlink:href="#mc8de16edb7" x="679.419091" y="318.04" style="stroke: #000000; stroke-width: 0.8"/>
      </g>
     </g>
     <g id="text_6">
      <!-- 100 -->
      <g transform="translate(669.875341 332.638438) scale(0.1 -0.1)">
       <defs>
        <path id="DejaVuSans-31" d="M 794 531 
L 1825 531 
L 1825 4091 
L 703 3866 
L 703 4441 
L 1819 4666 
L 2450 4666 
L 2450 531 
L 3481 531 
L 3481 0 
L 794 0 
L 794 531 
z
" transform="scale(0.015625)"/>
       </defs>
       <use xlink:href="#DejaVuSans-31"/>
       <use xlink:href="#DejaVuSans-30" transform="translate(63.623047 0)"/>
       <use xlink:href="#DejaVuSans-30" transform="translate(127.246094 0)"/>
      </g>
     </g>
    </g>
    <g id="text_7">
     <!-- Iteration -->
     <g transform="translate(360.401406 346.316563) scale(0.1 -0.1)">
      <defs>
       <path id="DejaVuSans-49" d="M 628 4666 
L 1259 4666 
L 1259 0 
L 628 0 
L 628 4666 
z
" transform="scale(0.015625)"/>
       <path id="DejaVuSans-74" d="M 1172 4494 
L 1172 3500 
L 2356 3500 
L 2356 3053 
L 1172 3053 
L 1172 1153 
Q 1172 725 1289 603 
Q 1406 481 1766 481 
L 2356 481 
L 2356 0 
L 1766 0 
Q 1100 0 847 248 
Q 594 497 594 1153 
L 594 3053 
L 172 3053 
L 172 3500 
L 594 3500 
L 594 4494 
L 1172 4494 
z
" transform="scale(0.015625)"/>
       <path id="DejaVuSans-65" d="M 3597 1894 
L 3597 1613 
L 953 1613 
Q 991 1019 1311 708 
Q 1631 397 2203 397 
Q 2534 397 2845 478 
Q 3156 559 3463 722 
L 3463 178 
Q 3153 47 2828 -22 
Q 2503 -91 2169 -91 
Q 1331 -91 842 396 
Q 353 884 353 1716 
Q 353 2575 817 3079 
Q 1281 3584 2069 3584 
Q 2775 3584 3186 3129 
Q 3597 2675 3597 1894 
z
M 3022 2063 
Q 3016 2534 2758 2815 
Q 2500 3097 2075 3097 
Q 1594 3097 1305 2825 
Q 1016 2553 972 2059 
L 3022 2063 
z
" transform="scale(0.015625)"/>
       <path id="DejaVuSans-72" d="M 2631 2963 
Q 2534 3019 2420 3045 
Q 2306 3072 2169 3072 
Q 1681 3072 1420 2755 
Q 1159 2438 1159 1844 
L 1159 0 
L 581 0 
L 581 3500 
L 1159 3500 
L 1159 2956 
Q 1341 3275 1631 3429 
Q 1922 3584 2338 3584 
Q 2397 3584 2469 3576 
Q 2541 3569 2628 3553 
L 2631 2963 
z
" transform="scale(0.015625)"/>
       <path id="DejaVuSans-61" d="M 2194 1759 
Q 1497 1759 1228 1600 
Q 959 1441 959 1056 
Q 959 750 1161 570 
Q 1363 391 1709 391 
Q 2188 391 2477 730 
Q 2766 1069 2766 1631 
L 2766 1759 
L 2194 1759 
z
M 3341 1997 
L 3341 0 
L 2766 0 
L 2766 531 
Q 2569 213 2275 61 
Q 1981 -91 1556 -91 
Q 1019 -91 701 211 
Q 384 513 384 1019 
Q 384 1609 779 1909 
Q 1175 2209 1959 2209 
L 2766 2209 
L 2766 2266 
Q 2766 2663 2505 2880 
Q 2244 3097 1772 3097 
Q 1472 3097 1187 3025 
Q 903 2953 641 2809 
L 641 3341 
Q 956 3463 1253 3523 
Q 1550 3584 1831 3584 
Q 2591 3584 2966 3190 
Q 3341 2797 3341 1997 
z
" transform="scale(0.015625)"/>
       <path id="DejaVuSans-69" d="M 603 3500 
L 1178 3500 
L 1178 0 
L 603 0 
L 603 3500 
z
M 603 4863 
L 1178 4863 
L 1178 4134 
L 603 4134 
L 603 4863 
z
" transform="scale(0.015625)"/>
       <path id="DejaVuSans-6f" d="M 1959 3097 
Q 1497 3097 1228 2736 
Q 959 2375 959 1747 
Q 959 1119 1226 758 
Q 1494 397 1959 397 
Q 2419 397 2687 759 
Q 2956 1122 2956 1747 
Q 2956 2369 2687 2733 
Q 2419 3097 1959 3097 
z
M 1959 3584 
Q 2709 3584 3137 3096 
Q 3566 2609 3566 1747 
Q 3566 888 3137 398 
Q 2709 -91 1959 -91 
Q 1206 -91 779 398 
Q 353 888 353 1747 
Q 353 2609 779 3096 
Q 1206 3584 1959 3584 
z
" transform="scale(0.015625)"/>
       <path id="DejaVuSans-6e" d="M 3513 2113 
L 3513 0 
L 2938 0 
L 2938 2094 
Q 2938 2591 2744 2837 
Q 2550 3084 2163 3084 
Q 1697 3084 1428 2787 
Q 1159 2491 1159 1978 
L 1159 0 
L 581 0 
L 581 3500 
L 1159 3500 
L 1159 2956 
Q 1366 3272 1645 3428 
Q 1925 3584 2291 3584 
Q 2894 3584 3203 3211 
Q 3513 2838 3513 2113 
z
" transform="scale(0.015625)"/>
      </defs>
      <use xlink:href="#DejaVuSans-49"/>
      <use xlink:href="#DejaVuSans-74" transform="translate(29.492188 0)"/>
      <use xlink:href="#DejaVuSans-65" transform="translate(68.701172 0)"/>
      <use xlink:href="#DejaVuSans-72" transform="translate(130.224609 0)"/>
      <use xlink:href="#DejaVuSans-61" transform="translate(171.337891 0)"/>
      <use xlink:href="#DejaVuSans-74" transform="translate(232.617188 0)"/>
      <use xlink:href="#DejaVuSans-69" transform="translate(271.826172 0)"/>
      <use xlink:href="#DejaVuSans-6f" transform="translate(299.609375 0)"/>
      <use xlink:href="#DejaVuSans-6e" transform="translate(360.791016 0)"/>
     </g>
    </g>
   </g>
   <g id="matplotlib.axis_2">
    <g id="ytick_1">
     <g id="line2d_13">
      <path d="M 54.02 305.015765 
L 709.2 305.015765 
" clip-path="url(#pc0f7257d8d)" style="fill: none; stroke: #b0b0b0; stroke-opacity: 0.25; stroke-width: 0.8; stroke-linecap: square"/>
     </g>
     <g id="line2d_14">
      <defs>
       <path id="m42fff5e243" d="M 0 0 
L -3.5 0 
" style="stroke: #000000; stroke-width: 0.8"/>
      </defs>
      <g>
       <use xlink:href="#m42fff5e243" x="54.02" y="305.015765" style="stroke: #000000; stroke-width: 0.8"/>
      </g>
     </g>
     <g id="text_8">
      <!-- 0.00 -->
      <g transform="translate(24.754375 308.814984) scale(0.1 -0.1)">
       <defs>
        <path id="DejaVuSans-2e" d="M 684 794 
L 1344 794 
L 1344 0 
L 684 0 
L 684 794 
z
" transform="scale(0.015625)"/>
       </defs>
       <use xlink:href="#DejaVuSans-30"/>
       <use xlink:href="#DejaVuSans-2e" transform="translate(63.623047 0)"/>
       <use xlink:href="#DejaVuSans-30" transform="translate(95.410156 0)"/>
       <use xlink:href="#DejaVuSans-30" transform="translate(159.033203 0)"/>
      </g>
     </g>
    </g>
    <g id="ytick_2">
     <g id="line2d_15">
      <path d="M 54.02 267.203249 
L 709.2 267.203249 
" clip-path="url(#pc0f7257d8d)" style="fill: none; stroke: #b0b0b0; stroke-opacity: 0.25; stroke-width: 0.8; stroke-linecap: square"/>
     </g>
     <g id="line2d_16">
      <g>
       <use xlink:href="#m42fff5e243" x="54.02" y="267.203249" style="stroke: #000000; stroke-width: 0.8"/>
      </g>
     </g>
     <g id="text_9">
      <!-- 0.02 -->
      <g transform="translate(24.754375 271.002468) scale(0.1 -0.1)">
       <use xlink:href="#DejaVuSans-30"/>
       <use xlink:href="#DejaVuSans-2e" transform="translate(63.623047 0)"/>
       <use xlink:href="#DejaVuSans-30" transform="translate(95.410156 0)"/>
       <use xlink:href="#DejaVuSans-32" transform="translate(159.033203 0)"/>
      </g>
     </g>
    </g>
    <g id="ytick_3">
     <g id="line2d_17">
      <path d="M 54.02 229.390734 
L 709.2 229.390734 
" clip-path="url(#pc0f7257d8d)" style="fill: none; stroke: #b0b0b0; stroke-opacity: 0.25; stroke-width: 0.8; stroke-linecap: square"/>
     </g>
     <g id="line2d_18">
      <g>
       <use xlink:href="#m42fff5e243" x="54.02" y="229.390734" style="stroke: #000000; stroke-width: 0.8"/>
      </g>
     </g>
     <g id="text_10">
      <!-- 0.04 -->
      <g transform="translate(24.754375 233.189953) scale(0.1 -0.1)">
       <use xlink:href="#DejaVuSans-30"/>
       <use xlink:href="#DejaVuSans-2e" transform="translate(63.623047 0)"/>
       <use xlink:href="#DejaVuSans-30" transform="translate(95.410156 0)"/>
       <use xlink:href="#DejaVuSans-34" transform="translate(159.033203 0)"/>
      </g>
     </g>
    </g>
    <g id="ytick_4">
     <g id="line2d_19">
      <path d="M 54.02 191.578218 
L 709.2 191.578218 
" clip-path="url(#pc0f7257d8d)" style="fill: none; stroke: #b0b0b0; stroke-opacity: 0.25; stroke-width: 0.8; stroke-linecap: square"/>
     </g>
     <g id="line2d_20">
      <g>
       <use xlink:href="#m42fff5e243" x="54.02" y="191.578218" style="stroke: #000000; stroke-width: 0.8"/>
      </g>
     </g>
     <g id="text_11">
      <!-- 0.06 -->
      <g transform="translate(24.754375 195.377437) scale(0.1 -0.1)">
       <use xlink:href="#DejaVuSans-30"/>
       <use xlink:href="#DejaVuSans-2e" transform="translate(63.623047 0)"/>
       <use xlink:href="#DejaVuSans-30" transform="translate(95.410156 0)"/>
       <use xlink:href="#DejaVuSans-36" transform="translate(159.033203 0)"/>
      </g>
     </g>
    </g>
    <g id="ytick_5">
     <g id="line2d_21">
      <path d="M 54.02 153.765702 
L 709.2 153.765702 
" clip-path="url(#pc0f7257d8d)" style="fill: none; stroke: #b0b0b0; stroke-opacity: 0.25; stroke-width: 0.8; stroke-linecap: square"/>
     </g>
     <g id="line2d_22">
      <g>
       <use xlink:href="#m42fff5e243" x="54.02" y="153.765702" style="stroke: #000000; stroke-width: 0.8"/>
      </g>
     </g>
     <g id="text_12">
      <!-- 0.08 -->
      <g transform="translate(24.754375 157.564921) scale(0.1 -0.1)">
       <use xlink:href="#DejaVuSans-30"/>
       <use xlink:href="#DejaVuSans-2e" transform="translate(63.623047 0)"/>
       <use xlink:href="#DejaVuSans-30" transform="translate(95.410156 0)"/>
       <use xlink:href="#DejaVuSans-38" transform="translate(159.033203 0)"/>
      </g>
     </g>
    </g>
    <g id="ytick_6">
     <g id="line2d_23">
      <path d="M 54.02 115.953187 
L 709.2 115.953187 
" clip-path="url(#pc0f7257d8d)" style="fill: none; stroke: #b0b0b0; stroke-opacity: 0.25; stroke-width: 0.8; stroke-linecap: square"/>
     </g>
     <g id="line2d_24">
      <g>
       <use xlink:href="#m42fff5e243" x="54.02" y="115.953187" style="stroke: #000000; stroke-width: 0.8"/>
      </g>
     </g>
     <g id="text_13">
      <!-- 0.10 -->
      <g transform="translate(24.754375 119.752405) scale(0.1 -0.1)">
       <use xlink:href="#DejaVuSans-30"/>
       <use xlink:href="#DejaVuSans-2e" transform="translate(63.623047 0)"/>
       <use xlink:href="#DejaVuSans-31" transform="translate(95.410156 0)"/>
       <use xlink:href="#DejaVuSans-30" transform="translate(159.033203 0)"/>
      </g>
     </g>
    </g>
    <g id="ytick_7">
     <g id="line2d_25">
      <path d="M 54.02 78.140671 
L 709.2 78.140671 
" clip-path="url(#pc0f7257d8d)" style="fill: none; stroke: #b0b0b0; stroke-opacity: 0.25; stroke-width: 0.8; stroke-linecap: square"/>
     </g>
     <g id="line2d_26">
      <g>
       <use xlink:href="#m42fff5e243" x="54.02" y="78.140671" style="stroke: #000000; stroke-width: 0.8"/>
      </g>
     </g>
     <g id="text_14">
      <!-- 0.12 -->
      <g transform="translate(24.754375 81.93989) scale(0.1 -0.1)">
       <use xlink:href="#DejaVuSans-30"/>
       <use xlink:href="#DejaVuSans-2e" transform="translate(63.623047 0)"/>
       <use xlink:href="#DejaVuSans-31" transform="translate(95.410156 0)"/>
       <use xlink:href="#DejaVuSans-32" transform="translate(159.033203 0)"/>
      </g>
     </g>
    </g>
    <g id="ytick_8">
     <g id="line2d_27">
      <path d="M 54.02 40.328155 
L 709.2 40.328155 
" clip-path="url(#pc0f7257d8d)" style="fill: none; stroke: #b0b0b0; stroke-opacity: 0.25; stroke-width: 0.8; stroke-linecap: square"/>
     </g>
     <g id="line2d_28">
      <g>
       <use xlink:href="#m42fff5e243" x="54.02" y="40.328155" style="stroke: #000000; stroke-width: 0.8"/>
      </g>
     </g>
     <g id="text_15">
      <!-- 0.14 -->
      <g transform="translate(24.754375 44.127374) scale(0.1 -0.1)">
       <use xlink:href="#DejaVuSans-30"/>
       <use xlink:href="#DejaVuSans-2e" transform="translate(63.623047 0)"/>
       <use xlink:href="#DejaVuSans-31" transform="translate(95.410156 0)"/>
       <use xlink:href="#DejaVuSans-34" transform="translate(159.033203 0)"/>
      </g>
     </g>
    </g>
    <g id="text_16">
     <!-- Distortion -->
     <g transform="translate(18.674688 196.956094) rotate(-90) scale(0.1 -0.1)">
      <defs>
       <path id="DejaVuSans-44" d="M 1259 4147 
L 1259 519 
L 2022 519 
Q 2988 519 3436 956 
Q 3884 1394 3884 2338 
Q 3884 3275 3436 3711 
Q 2988 4147 2022 4147 
L 1259 4147 
z
M 628 4666 
L 1925 4666 
Q 3281 4666 3915 4102 
Q 4550 3538 4550 2338 
Q 4550 1131 3912 565 
Q 3275 0 1925 0 
L 628 0 
L 628 4666 
z
" transform="scale(0.015625)"/>
       <path id="DejaVuSans-73" d="M 2834 3397 
L 2834 2853 
Q 2591 2978 2328 3040 
Q 2066 3103 1784 3103 
Q 1356 3103 1142 2972 
Q 928 2841 928 2578 
Q 928 2378 1081 2264 
Q 1234 2150 1697 2047 
L 1894 2003 
Q 2506 1872 2764 1633 
Q 3022 1394 3022 966 
Q 3022 478 2636 193 
Q 2250 -91 1575 -91 
Q 1294 -91 989 -36 
Q 684 19 347 128 
L 347 722 
Q 666 556 975 473 
Q 1284 391 1588 391 
Q 1994 391 2212 530 
Q 2431 669 2431 922 
Q 2431 1156 2273 1281 
Q 2116 1406 1581 1522 
L 1381 1569 
Q 847 1681 609 1914 
Q 372 2147 372 2553 
Q 372 3047 722 3315 
Q 1072 3584 1716 3584 
Q 2034 3584 2315 3537 
Q 2597 3491 2834 3397 
z
" transform="scale(0.015625)"/>
      </defs>
      <use xlink:href="#DejaVuSans-44"/>
      <use xlink:href="#DejaVuSans-69" transform="translate(77.001953 0)"/>
      <use xlink:href="#DejaVuSans-73" transform="translate(104.785156 0)"/>
      <use xlink:href="#DejaVuSans-74" transform="translate(156.884766 0)"/>
      <use xlink:href="#DejaVuSans-6f" transform="translate(196.09375 0)"/>
      <use xlink:href="#DejaVuSans-72" transform="translate(257.275391 0)"/>
      <use xlink:href="#DejaVuSans-74" transform="translate(298.388672 0)"/>
      <use xlink:href="#DejaVuSans-69" transform="translate(337.597656 0)"/>
      <use xlink:href="#DejaVuSans-6f" transform="translate(365.380859 0)"/>
      <use xlink:href="#DejaVuSans-6e" transform="translate(426.5625 0)"/>
     </g>
    </g>
   </g>
   <g id="line2d_29">
    <path d="M 83.800909 40.114545 
L 89.817254 92.14398 
L 95.8336 131.004615 
L 101.849945 159.177036 
L 107.86629 179.726736 
L 113.882635 195.176422 
L 119.898981 207.165203 
L 125.915326 216.738353 
L 131.931671 224.574029 
L 137.948017 231.123284 
L 143.964362 236.694037 
L 149.980707 241.501931 
L 155.997052 245.701754 
L 162.013398 249.407268 
L 168.029743 252.703993 
L 174.046088 255.657599 
L 180.062433 258.319523 
L 186.078779 260.730792 
L 192.095124 262.924663 
L 198.111469 264.928492 
L 204.127815 266.765065 
L 210.14416 268.453577 
L 216.160505 270.010351 
L 222.17685 271.449385 
L 228.193196 272.782771 
L 234.209541 274.021017 
L 240.225886 275.17331 
L 246.242231 276.24772 
L 252.258577 277.251363 
L 258.274922 278.190546 
L 264.291267 279.07087 
L 270.307612 279.897332 
L 276.323958 280.674402 
L 282.340303 281.406088 
L 288.356648 282.095995 
L 294.372994 282.747372 
L 300.389339 283.363155 
L 306.405684 283.946005 
L 312.422029 284.498333 
L 318.438375 285.022334 
L 324.45472 285.520007 
L 330.471065 285.993177 
L 336.48741 286.443512 
L 342.503756 286.87254 
L 348.520101 287.281662 
L 354.536446 287.672165 
L 360.552792 288.045236 
L 366.569137 288.401964 
L 372.585482 288.743359 
L 378.601827 289.07035 
L 384.618173 289.383798 
L 390.634518 289.6845 
L 396.650863 289.973197 
L 402.667208 290.250575 
L 408.683554 290.517271 
L 414.699899 290.77388 
L 420.716244 291.020955 
L 426.73259 291.259009 
L 432.748935 291.488526 
L 438.76528 291.709953 
L 444.781625 291.923712 
L 450.797971 292.130193 
L 456.814316 292.329766 
L 462.830661 292.522775 
L 468.847006 292.709544 
L 474.863352 292.890375 
L 480.879697 293.065554 
L 486.896042 293.235348 
L 492.912388 293.40001 
L 498.928733 293.559777 
L 504.945078 293.714872 
L 510.961423 293.865505 
L 516.977769 294.011875 
L 522.994114 294.154168 
L 529.010459 294.292563 
L 535.026804 294.427226 
L 541.04315 294.558314 
L 547.059495 294.685977 
L 553.07584 294.810356 
L 559.092185 294.931585 
L 565.108531 295.04979 
L 571.124876 295.165093 
L 577.141221 295.277605 
L 583.157567 295.387436 
L 589.173912 295.494688 
L 595.190257 295.599459 
L 601.206602 295.70184 
L 607.222948 295.80192 
L 613.239293 295.899783 
L 619.255638 295.995507 
L 625.271983 296.089169 
L 631.288329 296.180842 
L 637.304674 296.270593 
L 643.321019 296.358488 
L 649.337365 296.44459 
L 655.35371 296.528958 
L 661.370055 296.61165 
L 667.3864 296.692719 
L 673.402746 296.772218 
L 679.419091 296.850196 
" clip-path="url(#pc0f7257d8d)" style="fill: none; stroke: #1f77b4; stroke-width: 2; stroke-linecap: square"/>
   </g>
   <g id="line2d_30">
    <path d="M 83.800909 281.547877 
L 89.817254 281.57221 
L 95.8336 281.596479 
L 101.849945 281.620684 
L 107.86629 281.644825 
L 113.882635 281.668903 
L 119.898981 281.692917 
L 125.915326 281.716869 
L 131.931671 281.740758 
L 137.948017 281.764584 
L 143.964362 281.788348 
L 149.980707 281.812049 
L 155.997052 281.83569 
L 162.013398 281.859268 
L 168.029743 281.882785 
L 174.046088 281.906241 
L 180.062433 281.929636 
L 186.078779 281.95297 
L 192.095124 281.976244 
L 198.111469 281.999457 
L 204.127815 282.022611 
L 210.14416 282.045705 
L 216.160505 282.068739 
L 222.17685 282.091713 
L 228.193196 282.114629 
L 234.209541 282.137486 
L 240.225886 282.160284 
L 246.242231 282.183023 
L 252.258577 282.205704 
L 258.274922 282.228327 
L 264.291267 282.250893 
L 270.307612 282.2734 
L 276.323958 282.29585 
L 282.340303 282.318243 
L 288.356648 282.340579 
L 294.372994 282.362858 
L 300.389339 282.385081 
L 306.405684 282.407247 
L 312.422029 282.429357 
L 318.438375 282.451411 
L 324.45472 282.473409 
L 330.471065 282.495352 
L 336.48741 282.517239 
L 342.503756 282.539071 
L 348.520101 282.560848 
L 354.536446 282.58257 
L 360.552792 282.604238 
L 366.569137 282.625851 
L 372.585482 282.64741 
L 378.601827 282.668915 
L 384.618173 282.690366 
L 390.634518 282.711764 
L 396.650863 282.733108 
L 402.667208 282.754399 
L 408.683554 282.775637 
L 414.699899 282.796822 
L 420.716244 282.817955 
L 426.73259 282.839035 
L 432.748935 282.860062 
L 438.76528 282.881038 
L 444.781625 282.901962 
L 450.797971 282.922834 
L 456.814316 282.943654 
L 462.830661 282.964423 
L 468.847006 282.985141 
L 474.863352 283.005808 
L 480.879697 283.026424 
L 486.896042 283.04699 
L 492.912388 283.067505 
L 498.928733 283.08797 
L 504.945078 283.108384 
L 510.961423 283.128749 
L 516.977769 283.149064 
L 522.994114 283.169329 
L 529.010459 283.189546 
L 535.026804 283.209712 
L 541.04315 283.22983 
L 547.059495 283.249899 
L 553.07584 283.269919 
L 559.092185 283.289891 
L 565.108531 283.309815 
L 571.124876 283.32969 
L 577.141221 283.349517 
L 583.157567 283.369296 
L 589.173912 283.389028 
L 595.190257 283.408712 
L 601.206602 283.428349 
L 607.222948 283.447938 
L 613.239293 283.467481 
L 619.255638 283.486977 
L 625.271983 283.506426 
L 631.288329 283.525828 
L 637.304674 283.545184 
L 643.321019 283.564494 
L 649.337365 283.583758 
L 655.35371 283.602976 
L 661.370055 283.622148 
L 667.3864 283.641275 
L 673.402746 283.660356 
L 679.419091 283.679392 
" clip-path="url(#pc0f7257d8d)" style="fill: none; stroke: #ff7f0e; stroke-width: 2; stroke-linecap: square"/>
   </g>
   <g id="line2d_31">
    <path d="M 83.800909 40.114545 
L 89.817254 92.14398 
L 95.8336 131.004615 
L 101.849945 159.177036 
L 107.86629 179.726736 
L 113.882635 195.176422 
L 119.898981 207.165203 
L 125.915326 216.738353 
L 131.931671 224.574029 
L 137.948017 231.123284 
L 143.964362 236.694037 
L 149.980707 241.501931 
L 155.997052 245.701754 
L 162.013398 249.407268 
L 168.029743 252.703993 
L 174.046088 255.657599 
L 180.062433 258.319523 
L 186.078779 260.730792 
L 192.095124 262.924663 
L 198.111469 264.928492 
L 204.127815 281.277158 
L 210.14416 290.403484 
L 216.160505 296.162533 
L 222.17685 299.623893 
L 228.193196 301.706461 
L 234.209541 302.958721 
L 240.225886 303.710502 
L 246.242231 304.160645 
L 252.258577 304.429141 
L 258.274922 304.588424 
L 264.291267 304.682212 
L 270.307612 304.736874 
L 276.323958 304.768289 
L 282.340303 304.785996 
L 288.356648 304.795711 
L 294.372994 304.800846 
L 300.389339 304.803424 
L 306.405684 304.804634 
L 312.422029 304.805154 
L 318.438375 304.805355 
L 324.45472 304.805424 
L 330.471065 304.805446 
L 336.48741 304.805452 
L 342.503756 304.805454 
L 348.520101 304.805454 
L 354.536446 304.805455 
L 360.552792 304.805455 
L 366.569137 304.805455 
L 372.585482 304.805455 
L 378.601827 304.805455 
L 384.618173 304.805455 
L 390.634518 304.805455 
L 396.650863 304.805455 
L 402.667208 304.805455 
L 408.683554 304.805455 
L 414.699899 304.805455 
L 420.716244 304.805455 
L 426.73259 304.805455 
L 432.748935 304.805455 
L 438.76528 304.805455 
L 444.781625 304.805455 
L 450.797971 304.805455 
L 456.814316 304.805455 
L 462.830661 304.805455 
L 468.847006 304.805455 
L 474.863352 304.805455 
L 480.879697 304.805455 
L 486.896042 304.805455 
L 492.912388 304.805455 
L 498.928733 304.805455 
L 504.945078 304.805455 
L 510.961423 304.805455 
L 516.977769 304.805455 
L 522.994114 304.805455 
L 529.010459 304.805455 
L 535.026804 304.805455 
L 541.04315 304.805455 
L 547.059495 304.805455 
L 553.07584 304.805455 
L 559.092185 304.805455 
L 565.108531 304.805455 
L 571.124876 304.805455 
L 577.141221 304.805455 
L 583.157567 304.805455 
L 589.173912 304.805455 
L 595.190257 304.805455 
L 601.206602 304.805455 
L 607.222948 304.805455 
L 613.239293 304.805455 
L 619.255638 304.805455 
L 625.271983 304.805455 
L 631.288329 304.805455 
L 637.304674 304.805455 
L 643.321019 304.805455 
L 649.337365 304.805455 
L 655.35371 304.805455 
L 661.370055 304.805455 
L 667.3864 304.805455 
L 673.402746 304.805455 
L 679.419091 304.805455 
" clip-path="url(#pc0f7257d8d)" style="fill: none; stroke: #2ca02c; stroke-width: 2; stroke-linecap: square"/>
   </g>
   <g id="line2d_32">
    <path d="M 83.800909 40.114545 
L 89.817254 92.14398 
L 95.8336 131.004615 
L 101.849945 159.177036 
L 107.86629 179.726736 
L 113.882635 214.109528 
L 119.898981 228.220396 
L 125.915326 252.343936 
L 131.931671 271.606767 
L 137.948017 284.405851 
L 143.964362 292.435664 
L 149.980707 297.348037 
L 155.997052 300.319431 
L 162.013398 302.112126 
L 168.029743 303.192587 
L 174.046088 303.842967 
L 180.062433 304.233754 
L 186.078779 304.467964 
L 192.095124 304.607838 
L 198.111469 304.69097 
L 204.127815 304.740051 
L 210.14416 304.768767 
L 216.160505 304.785358 
L 222.17685 304.794781 
L 228.193196 304.800007 
L 234.209541 304.802812 
L 240.225886 304.804252 
L 246.242231 304.804949 
L 252.258577 304.805261 
L 258.274922 304.805388 
L 264.291267 304.805434 
L 270.307612 304.805448 
L 276.323958 304.805453 
L 282.340303 304.805454 
L 288.356648 304.805454 
L 294.372994 304.805455 
L 300.389339 304.805455 
L 306.405684 304.805455 
L 312.422029 304.805455 
L 318.438375 304.805455 
L 324.45472 304.805455 
L 330.471065 304.805455 
L 336.48741 304.805455 
L 342.503756 304.805455 
L 348.520101 304.805455 
L 354.536446 304.805455 
L 360.552792 304.805455 
L 366.569137 304.805455 
L 372.585482 304.805455 
L 378.601827 304.805455 
L 384.618173 304.805455 
L 390.634518 304.805455 
L 396.650863 304.805455 
L 402.667208 304.805455 
L 408.683554 304.805455 
L 414.699899 304.805455 
L 420.716244 304.805455 
L 426.73259 304.805455 
L 432.748935 304.805455 
L 438.76528 304.805455 
L 444.781625 304.805455 
L 450.797971 304.805455 
L 456.814316 304.805455 
L 462.830661 304.805455 
L 468.847006 304.805455 
L 474.863352 304.805455 
L 480.879697 304.805455 
L 486.896042 304.805455 
L 492.912388 304.805455 
L 498.928733 304.805455 
L 504.945078 304.805455 
L 510.961423 304.805455 
L 516.977769 304.805455 
L 522.994114 304.805455 
L 529.010459 304.805455 
L 535.026804 304.805455 
L 541.04315 304.805455 
L 547.059495 304.805455 
L 553.07584 304.805455 
L 559.092185 304.805455 
L 565.108531 304.805455 
L 571.124876 304.805455 
L 577.141221 304.805455 
L 583.157567 304.805455 
L 589.173912 304.805455 
L 595.190257 304.805455 
L 601.206602 304.805455 
L 607.222948 304.805455 
L 613.239293 304.805455 
L 619.255638 304.805455 
L 625.271983 304.805455 
L 631.288329 304.805455 
L 637.304674 304.805455 
L 643.321019 304.805455 
L 649.337365 304.805455 
L 655.35371 304.805455 
L 661.370055 304.805455 
L 667.3864 304.805455 
L 673.402746 304.805455 
L 679.419091 304.805455 
" clip-path="url(#pc0f7257d8d)" style="fill: none; stroke: #d62728; stroke-width: 2; stroke-linecap: square"/>
   </g>
   <g id="patch_3">
    <path d="M 54.02 318.04 
L 54.02 26.88 
" style="fill: none; stroke: #000000; stroke-width: 0.8; stroke-linejoin: miter; stroke-linecap: square"/>
   </g>
   <g id="patch_4">
    <path d="M 709.2 318.04 
L 709.2 26.88 
" style="fill: none; stroke: #000000; stroke-width: 0.8; stroke-linejoin: miter; stroke-linecap: square"/>
   </g>
   <g id="patch_5">
    <path d="M 54.02 318.04 
L 709.2 318.04 
" style="fill: none; stroke: #000000; stroke-width: 0.8; stroke-linejoin: miter; stroke-linecap: square"/>
   </g>
   <g id="patch_6">
    <path d="M 54.02 26.88 
L 709.2 26.88 
" style="fill: none; stroke: #000000; stroke-width: 0.8; stroke-linejoin: miter; stroke-linecap: square"/>
   </g>
   <g id="text_17">
    <!-- Exponential: distortion vs iteration -->
    <g transform="translate(277.777188 20.88) scale(0.12 -0.12)">
     <defs>
      <path id="DejaVuSans-45" d="M 628 4666 
L 3578 4666 
L 3578 4134 
L 1259 4134 
L 1259 2753 
L 3481 2753 
L 3481 2222 
L 1259 2222 
L 1259 531 
L 3634 531 
L 3634 0 
L 628 0 
L 628 4666 
z
" transform="scale(0.015625)"/>
      <path id="DejaVuSans-78" d="M 3513 3500 
L 2247 1797 
L 3578 0 
L 2900 0 
L 1881 1375 
L 863 0 
L 184 0 
L 1544 1831 
L 300 3500 
L 978 3500 
L 1906 2253 
L 2834 3500 
L 3513 3500 
z
" transform="scale(0.015625)"/>
      <path id="DejaVuSans-70" d="M 1159 525 
L 1159 -1331 
L 581 -1331 
L 581 3500 
L 1159 3500 
L 1159 2969 
Q 1341 3281 1617 3432 
Q 1894 3584 2278 3584 
Q 2916 3584 3314 3078 
Q 3713 2572 3713 1747 
Q 3713 922 3314 415 
Q 2916 -91 2278 -91 
Q 1894 -91 1617 61 
Q 1341 213 1159 525 
z
M 3116 1747 
Q 3116 2381 2855 2742 
Q 2594 3103 2138 3103 
Q 1681 3103 1420 2742 
Q 1159 2381 1159 1747 
Q 1159 1113 1420 752 
Q 1681 391 2138 391 
Q 2594 391 2855 752 
Q 3116 1113 3116 1747 
z
" transform="scale(0.015625)"/>
      <path id="DejaVuSans-6c" d="M 603 4863 
L 1178 4863 
L 1178 0 
L 603 0 
L 603 4863 
z
" transform="scale(0.015625)"/>
      <path id="DejaVuSans-3a" d="M 750 794 
L 1409 794 
L 1409 0 
L 750 0 
L 750 794 
z
M 750 3309 
L 1409 3309 
L 1409 2516 
L 750 2516 
L 750 3309 
z
" transform="scale(0.015625)"/>
      <path id="DejaVuSans-20" transform="scale(0.015625)"/>
      <path id="DejaVuSans-64" d="M 2906 2969 
L 2906 4863 
L 3481 4863 
L 3481 0 
L 2906 0 
L 2906 525 
Q 2725 213 2448 61 
Q 2172 -91 1784 -91 
Q 1150 -91 751 415 
Q 353 922 353 1747 
Q 353 2572 751 3078 
Q 1150 3584 1784 3584 
Q 2172 3584 2448 3432 
Q 2725 3281 2906 2969 
z
M 947 1747 
Q 947 1113 1208 752 
Q 1469 391 1925 391 
Q 2381 391 2643 752 
Q 2906 1113 2906 1747 
Q 2906 2381 2643 2742 
Q 2381 3103 1925 3103 
Q 1469 3103 1208 2742 
Q 947 2381 947 1747 
z
" transform="scale(0.015625)"/>
      <path id="DejaVuSans-76" d="M 191 3500 
L 800 3500 
L 1894 563 
L 2988 3500 
L 3597 3500 
L 2284 0 
L 1503 0 
L 191 3500 
z
" transform="scale(0.015625)"/>
     </defs>
     <use xlink:href="#DejaVuSans-45"/>
     <use xlink:href="#DejaVuSans-78" transform="translate(63.183594 0)"/>
     <use xlink:href="#DejaVuSans-70" transform="translate(122.363281 0)"/>
     <use xlink:href="#DejaVuSans-6f" transform="translate(185.839844 0)"/>
     <use xlink:href="#DejaVuSans-6e" transform="translate(247.021484 0)"/>
     <use xlink:href="#DejaVuSans-65" transform="translate(310.400391 0)"/>
     <use xlink:href="#DejaVuSans-6e" transform="translate(371.923828 0)"/>
     <use xlink:href="#DejaVuSans-74" transform="translate(435.302734 0)"/>
     <use xlink:href="#DejaVuSans-69" transform="translate(474.511719 0)"/>
     <use xlink:href="#DejaVuSans-61" transform="translate(502.294922 0)"/>
     <use xlink:href="#DejaVuSans-6c" transform="translate(563.574219 0)"/>
     <use xlink:href="#DejaVuSans-3a" transform="translate(591.357422 0)"/>
     <use xlink:href="#DejaVuSans-20" transform="translate(625.048828 0)"/>
     <use xlink:href="#DejaVuSans-64" transform="translate(656.835938 0)"/>
     <use xlink:href="#DejaVuSans-69" transform="translate(720.3125 0)"/>
     <use xlink:href="#DejaVuSans-73" transform="translate(748.095703 0)"/>
     <use xlink:href="#DejaVuSans-74" transform="translate(800.195312 0)"/>
     <use xlink:href="#DejaVuSans-6f" transform="translate(839.404297 0)"/>
     <use xlink:href="#DejaVuSans-72" transform="translate(900.585938 0)"/>
     <use xlink:href="#DejaVuSans-74" transform="translate(941.699219 0)"/>
     <use xlink:href="#DejaVuSans-69" transform="translate(980.908203 0)"/>
     <use xlink:href="#DejaVuSans-6f" transform="translate(1008.691406 0)"/>
     <use xlink:href="#DejaVuSans-6e" transform="translate(1069.873047 0)"/>
     <use xlink:href="#DejaVuSans-20" transform="translate(1133.251953 0)"/>
     <use xlink:href="#DejaVuSans-76" transform="translate(1165.039062 0)"/>
     <use xlink:href="#DejaVuSans-73" transform="translate(1224.21875 0)"/>
     <use xlink:href="#DejaVuSans-20" transform="translate(1276.318359 0)"/>
     <use xlink:href="#DejaVuSans-69" transform="translate(1308.105469 0)"/>
     <use xlink:href="#DejaVuSans-74" transform="translate(1335.888672 0)"/>
     <use xlink:href="#DejaVuSans-65" transform="translate(1375.097656 0)"/>
     <use xlink:href="#DejaVuSans-72" transform="translate(1436.621094 0)"/>
     <use xlink:href="#DejaVuSans-61" transform="translate(1477.734375 0)"/>
     <use xlink:href="#DejaVuSans-74" transform="translate(1539.013672 0)"/>
     <use xlink:href="#DejaVuSans-69" transform="translate(1578.222656 0)"/>
     <use xlink:href="#DejaVuSans-6f" transform="translate(1606.005859 0)"/>
     <use xlink:href="#DejaVuSans-6e" transform="translate(1667.1875 0)"/>
    </g>
   </g>
   <g id="legend_1">
    <g id="patch_7">
     <path d="M 558.626563 93.5925 
L 702.2 93.5925 
Q 704.2 93.5925 704.2 91.5925 
L 704.2 33.88 
Q 704.2 31.88 702.2 31.88 
L 558.626563 31.88 
Q 556.626563 31.88 556.626563 33.88 
L 556.626563 91.5925 
Q 556.626563 93.5925 558.626563 93.5925 
z
" style="fill: #ffffff; opacity: 0.8; stroke: #cccccc; stroke-linejoin: miter"/>
    </g>
    <g id="line2d_33">
     <path d="M 560.626563 39.978437 
L 570.626563 39.978437 
L 580.626563 39.978437 
" style="fill: none; stroke: #1f77b4; stroke-width: 2; stroke-linecap: square"/>
    </g>
    <g id="text_18">
     <!-- Lloyd -->
     <g transform="translate(588.626563 43.478437) scale(0.1 -0.1)">
      <defs>
       <path id="DejaVuSans-4c" d="M 628 4666 
L 1259 4666 
L 1259 531 
L 3531 531 
L 3531 0 
L 628 0 
L 628 4666 
z
" transform="scale(0.015625)"/>
       <path id="DejaVuSans-79" d="M 2059 -325 
Q 1816 -950 1584 -1140 
Q 1353 -1331 966 -1331 
L 506 -1331 
L 506 -850 
L 844 -850 
Q 1081 -850 1212 -737 
Q 1344 -625 1503 -206 
L 1606 56 
L 191 3500 
L 800 3500 
L 1894 763 
L 2988 3500 
L 3597 3500 
L 2059 -325 
z
" transform="scale(0.015625)"/>
      </defs>
      <use xlink:href="#DejaVuSans-4c"/>
      <use xlink:href="#DejaVuSans-6c" transform="translate(55.712891 0)"/>
      <use xlink:href="#DejaVuSans-6f" transform="translate(83.496094 0)"/>
      <use xlink:href="#DejaVuSans-79" transform="translate(144.677734 0)"/>
      <use xlink:href="#DejaVuSans-64" transform="translate(203.857422 0)"/>
     </g>
    </g>
    <g id="line2d_34">
     <path d="M 560.626563 54.656563 
L 570.626563 54.656563 
L 580.626563 54.656563 
" style="fill: none; stroke: #ff7f0e; stroke-width: 2; stroke-linecap: square"/>
    </g>
    <g id="text_19">
     <!-- Mean-field CLVQ -->
     <g transform="translate(588.626563 58.156563) scale(0.1 -0.1)">
      <defs>
       <path id="DejaVuSans-4d" d="M 628 4666 
L 1569 4666 
L 2759 1491 
L 3956 4666 
L 4897 4666 
L 4897 0 
L 4281 0 
L 4281 4097 
L 3078 897 
L 2444 897 
L 1241 4097 
L 1241 0 
L 628 0 
L 628 4666 
z
" transform="scale(0.015625)"/>
       <path id="DejaVuSans-2d" d="M 313 2009 
L 1997 2009 
L 1997 1497 
L 313 1497 
L 313 2009 
z
" transform="scale(0.015625)"/>
       <path id="DejaVuSans-66" d="M 2375 4863 
L 2375 4384 
L 1825 4384 
Q 1516 4384 1395 4259 
Q 1275 4134 1275 3809 
L 1275 3500 
L 2222 3500 
L 2222 3053 
L 1275 3053 
L 1275 0 
L 697 0 
L 697 3053 
L 147 3053 
L 147 3500 
L 697 3500 
L 697 3744 
Q 697 4328 969 4595 
Q 1241 4863 1831 4863 
L 2375 4863 
z
" transform="scale(0.015625)"/>
       <path id="DejaVuSans-43" d="M 4122 4306 
L 4122 3641 
Q 3803 3938 3442 4084 
Q 3081 4231 2675 4231 
Q 1875 4231 1450 3742 
Q 1025 3253 1025 2328 
Q 1025 1406 1450 917 
Q 1875 428 2675 428 
Q 3081 428 3442 575 
Q 3803 722 4122 1019 
L 4122 359 
Q 3791 134 3420 21 
Q 3050 -91 2638 -91 
Q 1578 -91 968 557 
Q 359 1206 359 2328 
Q 359 3453 968 4101 
Q 1578 4750 2638 4750 
Q 3056 4750 3426 4639 
Q 3797 4528 4122 4306 
z
" transform="scale(0.015625)"/>
       <path id="DejaVuSans-56" d="M 1831 0 
L 50 4666 
L 709 4666 
L 2188 738 
L 3669 4666 
L 4325 4666 
L 2547 0 
L 1831 0 
z
" transform="scale(0.015625)"/>
       <path id="DejaVuSans-51" d="M 2522 4238 
Q 1834 4238 1429 3725 
Q 1025 3213 1025 2328 
Q 1025 1447 1429 934 
Q 1834 422 2522 422 
Q 3209 422 3611 934 
Q 4013 1447 4013 2328 
Q 4013 3213 3611 3725 
Q 3209 4238 2522 4238 
z
M 3406 84 
L 4238 -825 
L 3475 -825 
L 2784 -78 
Q 2681 -84 2626 -87 
Q 2572 -91 2522 -91 
Q 1538 -91 948 567 
Q 359 1225 359 2328 
Q 359 3434 948 4092 
Q 1538 4750 2522 4750 
Q 3503 4750 4090 4092 
Q 4678 3434 4678 2328 
Q 4678 1516 4351 937 
Q 4025 359 3406 84 
z
" transform="scale(0.015625)"/>
      </defs>
      <use xlink:href="#DejaVuSans-4d"/>
      <use xlink:href="#DejaVuSans-65" transform="translate(86.279297 0)"/>
      <use xlink:href="#DejaVuSans-61" transform="translate(147.802734 0)"/>
      <use xlink:href="#DejaVuSans-6e" transform="translate(209.082031 0)"/>
      <use xlink:href="#DejaVuSans-2d" transform="translate(272.460938 0)"/>
      <use xlink:href="#DejaVuSans-66" transform="translate(308.544922 0)"/>
      <use xlink:href="#DejaVuSans-69" transform="translate(343.75 0)"/>
      <use xlink:href="#DejaVuSans-65" transform="translate(371.533203 0)"/>
      <use xlink:href="#DejaVuSans-6c" transform="translate(433.056641 0)"/>
      <use xlink:href="#DejaVuSans-64" transform="translate(460.839844 0)"/>
      <use xlink:href="#DejaVuSans-20" transform="translate(524.316406 0)"/>
      <use xlink:href="#DejaVuSans-43" transform="translate(556.103516 0)"/>
      <use xlink:href="#DejaVuSans-4c" transform="translate(625.927734 0)"/>
      <use xlink:href="#DejaVuSans-56" transform="translate(670.640625 0)"/>
      <use xlink:href="#DejaVuSans-51" transform="translate(739.048828 0)"/>
     </g>
    </g>
    <g id="line2d_35">
     <path d="M 560.626563 69.334687 
L 570.626563 69.334687 
L 580.626563 69.334687 
" style="fill: none; stroke: #2ca02c; stroke-width: 2; stroke-linecap: square"/>
    </g>
    <g id="text_20">
     <!-- Newton–Raphson -->
     <g transform="translate(588.626563 72.834687) scale(0.1 -0.1)">
      <defs>
       <path id="DejaVuSans-4e" d="M 628 4666 
L 1478 4666 
L 3547 763 
L 3547 4666 
L 4159 4666 
L 4159 0 
L 3309 0 
L 1241 3903 
L 1241 0 
L 628 0 
L 628 4666 
z
" transform="scale(0.015625)"/>
       <path id="DejaVuSans-77" d="M 269 3500 
L 844 3500 
L 1563 769 
L 2278 3500 
L 2956 3500 
L 3675 769 
L 4391 3500 
L 4966 3500 
L 4050 0 
L 3372 0 
L 2619 2869 
L 1863 0 
L 1184 0 
L 269 3500 
z
" transform="scale(0.015625)"/>
       <path id="DejaVuSans-2013" d="M 313 1978 
L 2888 1978 
L 2888 1528 
L 313 1528 
L 313 1978 
z
" transform="scale(0.015625)"/>
       <path id="DejaVuSans-52" d="M 2841 2188 
Q 3044 2119 3236 1894 
Q 3428 1669 3622 1275 
L 4263 0 
L 3584 0 
L 2988 1197 
Q 2756 1666 2539 1819 
Q 2322 1972 1947 1972 
L 1259 1972 
L 1259 0 
L 628 0 
L 628 4666 
L 2053 4666 
Q 2853 4666 3247 4331 
Q 3641 3997 3641 3322 
Q 3641 2881 3436 2590 
Q 3231 2300 2841 2188 
z
M 1259 4147 
L 1259 2491 
L 2053 2491 
Q 2509 2491 2742 2702 
Q 2975 2913 2975 3322 
Q 2975 3731 2742 3939 
Q 2509 4147 2053 4147 
L 1259 4147 
z
" transform="scale(0.015625)"/>
       <path id="DejaVuSans-68" d="M 3513 2113 
L 3513 0 
L 2938 0 
L 2938 2094 
Q 2938 2591 2744 2837 
Q 2550 3084 2163 3084 
Q 1697 3084 1428 2787 
Q 1159 2491 1159 1978 
L 1159 0 
L 581 0 
L 581 4863 
L 1159 4863 
L 1159 2956 
Q 1366 3272 1645 3428 
Q 1925 3584 2291 3584 
Q 2894 3584 3203 3211 
Q 3513 2838 3513 2113 
z
" transform="scale(0.015625)"/>
      </defs>
      <use xlink:href="#DejaVuSans-4e"/>
      <use xlink:href="#DejaVuSans-65" transform="translate(74.804688 0)"/>
      <use xlink:href="#DejaVuSans-77" transform="translate(136.328125 0)"/>
      <use xlink:href="#DejaVuSans-74" transform="translate(218.115234 0)"/>
      <use xlink:href="#DejaVuSans-6f" transform="translate(257.324219 0)"/>
      <use xlink:href="#DejaVuSans-6e" transform="translate(318.505859 0)"/>
      <use xlink:href="#DejaVuSans-2013" transform="translate(381.884766 0)"/>
      <use xlink:href="#DejaVuSans-52" transform="translate(431.884766 0)"/>
      <use xlink:href="#DejaVuSans-61" transform="translate(499.117188 0)"/>
      <use xlink:href="#DejaVuSans-70" transform="translate(560.396484 0)"/>
      <use xlink:href="#DejaVuSans-68" transform="translate(623.873047 0)"/>
      <use xlink:href="#DejaVuSans-73" transform="translate(687.251953 0)"/>
      <use xlink:href="#DejaVuSans-6f" transform="translate(739.351562 0)"/>
      <use xlink:href="#DejaVuSans-6e" transform="translate(800.533203 0)"/>
     </g>
    </g>
    <g id="line2d_36">
     <path d="M 560.626563 84.012812 
L 570.626563 84.012812 
L 580.626563 84.012812 
" style="fill: none; stroke: #d62728; stroke-width: 2; stroke-linecap: square"/>
    </g>
    <g id="text_21">
     <!-- Newton–Raphson (LM) -->
     <g transform="translate(588.626563 87.512812) scale(0.1 -0.1)">
      <defs>
       <path id="DejaVuSans-28" d="M 1984 4856 
Q 1566 4138 1362 3434 
Q 1159 2731 1159 2009 
Q 1159 1288 1364 580 
Q 1569 -128 1984 -844 
L 1484 -844 
Q 1016 -109 783 600 
Q 550 1309 550 2009 
Q 550 2706 781 3412 
Q 1013 4119 1484 4856 
L 1984 4856 
z
" transform="scale(0.015625)"/>
       <path id="DejaVuSans-29" d="M 513 4856 
L 1013 4856 
Q 1481 4119 1714 3412 
Q 1947 2706 1947 2009 
Q 1947 1309 1714 600 
Q 1481 -109 1013 -844 
L 513 -844 
Q 928 -128 1133 580 
Q 1338 1288 1338 2009 
Q 1338 2731 1133 3434 
Q 928 4138 513 4856 
z
" transform="scale(0.015625)"/>
      </defs>
      <use xlink:href="#DejaVuSans-4e"/>
      <use xlink:href="#DejaVuSans-65" transform="translate(74.804688 0)"/>
      <use xlink:href="#DejaVuSans-77" transform="translate(136.328125 0)"/>
      <use xlink:href="#DejaVuSans-74" transform="translate(218.115234 0)"/>
      <use xlink:href="#DejaVuSans-6f" transform="translate(257.324219 0)"/>
      <use xlink:href="#DejaVuSans-6e" transform="translate(318.505859 0)"/>
      <use xlink:href="#DejaVuSans-2013" transform="translate(381.884766 0)"/>
      <use xlink:href="#DejaVuSans-52" transform="translate(431.884766 0)"/>
      <use xlink:href="#DejaVuSans-61" transform="translate(499.117188 0)"/>
      <use xlink:href="#DejaVuSans-70" transform="translate(560.396484 0)"/>
      <use xlink:href="#DejaVuSans-68" transform="translate(623.873047 0)"/>
      <use xlink:href="#DejaVuSans-73" transform="translate(687.251953 0)"/>
      <use xlink:href="#DejaVuSans-6f" transform="translate(739.351562 0)"/>
      <use xlink:href="#DejaVuSans-6e" transform="translate(800.533203 0)"/>
      <use xlink:href="#DejaVuSans-20" transform="translate(863.912109 0)"/>
      <use xlink:href="#DejaVuSans-28" transform="translate(895.699219 0)"/>
      <use xlink:href="#DejaVuSans-4c" transform="translate(934.712891 0)"/>
      <use xlink:href="#DejaVuSans-4d" transform="translate(990.425781 0)"/>
      <use xlink:href="#DejaVuSans-29" transform="translate(1076.705078 0)"/>
     </g>
    </g>
   </g>
  </g>
 </g>
 <defs>
  <clipPath id="pc0f7257d8d">
   <rect x="54.02" y="26.88" width="655.18" height="291.16"/>
  </clipPath>
 </defs>
</svg>
