<?xml version="1.0" encoding="utf-8" standalone="no"?>
<!DOCTYPE svg PUBLIC "-//W3C//DTD SVG 1.1//EN"
  "http://www.w3.org/Graphics/SVG/1.1/DTD/svg11.dtd">
<svg xmlns:xlink="http://www.w3.org/1999/xlink" width="720pt" height="360pt" viewBox="0 0 720 360" xmlns="http://www.w3.org/2000/svg" version="1.1">
 <metadata>
  <rdf:RDF xmlns:dc="http://purl.org/dc/elements/1.1/" xmlns:cc="http://creativecommons.org/ns#" xmlns:rdf="http://www.w3.org/1999/02/22-rdf-syntax-ns#">
   <cc:Work>
    <dc:type rdf:resource="http://purl.org/dc/dcmitype/StillImage"/>
    <dc:date>2026-04-30T16:01:42.987871</dc:date>
    <dc:format>image/svg+xml</dc:format>
    <dc:creator>
     <cc:Agent>
      <dc:title>Matplotlib v3.10.9, https://matplotlib.org/</dc:title>
     </cc:Agent>
    </dc:creator>
   </cc:Work>
  </rdf:RDF>
 </metadata>
 <defs>
  <style type="text/css">*{stroke-linejoin: round; stroke-linecap: butt}</style>
 </defs>
 <g id="figure_1">
  <g id="patch_1">
   <path d="M 0 360 
L 720 360 
L 720 0 
L 0 0 
z
" style="fill: #ffffff"/>
  </g>
  <g id="axes_1">
   <g id="patch_2">
    <path d="M 66.62 318.04 
L 709.2 318.04 
L 709.2 26.88 
L 66.62 26.88 
z
" style="fill: #ffffff"/>
   </g>
   <g id="matplotlib.axis_1">
    <g id="xtick_1">
     <g id="line2d_1">
      <path d="M 141.946364 318.04 
L 141.946364 26.88 
" clip-path="url(#pd579d3d654)" style="fill: none; stroke: #b0b0b0; stroke-opacity: 0.25; stroke-width: 0.8; stroke-linecap: square"/>
     </g>
     <g id="line2d_2">
      <defs>
       <path id="m70d7a4c8e5" d="M 0 0 
L 0 3.5 
" style="stroke: #000000; stroke-width: 0.8"/>
      </defs>
      <g>
       <use xlink:href="#m70d7a4c8e5" x="141.946364" y="318.04" style="stroke: #000000; stroke-width: 0.8"/>
      </g>
     </g>
     <g id="text_1">
      <!-- 2.5 -->
      <g transform="translate(133.994801 332.638438) scale(0.1 -0.1)">
       <defs>
        <path id="DejaVuSans-32" d="M 1228 531 
L 3431 531 
L 3431 0 
L 469 0 
L 469 531 
Q 828 903 1448 1529 
Q 2069 2156 2228 2338 
Q 2531 2678 2651 2914 
Q 2772 3150 2772 3378 
Q 2772 3750 2511 3984 
Q 2250 4219 1831 4219 
Q 1534 4219 1204 4116 
Q 875 4013 500 3803 
L 500 4441 
Q 881 4594 1212 4672 
Q 1544 4750 1819 4750 
Q 2544 4750 2975 4387 
Q 3406 4025 3406 3419 
Q 3406 3131 3298 2873 
Q 3191 2616 2906 2266 
Q 2828 2175 2409 1742 
Q 1991 1309 1228 531 
z
" transform="scale(0.015625)"/>
        <path id="DejaVuSans-2e" d="M 684 794 
L 1344 794 
L 1344 0 
L 684 0 
L 684 794 
z
" transform="scale(0.015625)"/>
        <path id="DejaVuSans-35" d="M 691 4666 
L 3169 4666 
L 3169 4134 
L 1269 4134 
L 1269 2991 
Q 1406 3038 1543 3061 
Q 1681 3084 1819 3084 
Q 2600 3084 3056 2656 
Q 3513 2228 3513 1497 
Q 3513 744 3044 326 
Q 2575 -91 1722 -91 
Q 1428 -91 1123 -41 
Q 819 9 494 109 
L 494 744 
Q 775 591 1075 516 
Q 1375 441 1709 441 
Q 2250 441 2565 725 
Q 2881 1009 2881 1497 
Q 2881 1984 2565 2268 
Q 2250 2553 1709 2553 
Q 1456 2553 1204 2497 
Q 953 2441 691 2322 
L 691 4666 
z
" transform="scale(0.015625)"/>
       </defs>
       <use xlink:href="#DejaVuSans-32"/>
       <use xlink:href="#DejaVuSans-2e" transform="translate(63.623047 0)"/>
       <use xlink:href="#DejaVuSans-35" transform="translate(95.410156 0)"/>
      </g>
     </g>
    </g>
    <g id="xtick_2">
     <g id="line2d_3">
      <path d="M 218.81 318.04 
L 218.81 26.88 
" clip-path="url(#pd579d3d654)" style="fill: none; stroke: #b0b0b0; stroke-opacity: 0.25; stroke-width: 0.8; stroke-linecap: square"/>
     </g>
     <g id="line2d_4">
      <g>
       <use xlink:href="#m70d7a4c8e5" x="218.81" y="318.04" style="stroke: #000000; stroke-width: 0.8"/>
      </g>
     </g>
     <g id="text_2">
      <!-- 5.0 -->
      <g transform="translate(210.858438 332.638438) scale(0.1 -0.1)">
       <defs>
        <path id="DejaVuSans-30" d="M 2034 4250 
Q 1547 4250 1301 3770 
Q 1056 3291 1056 2328 
Q 1056 1369 1301 889 
Q 1547 409 2034 409 
Q 2525 409 2770 889 
Q 3016 1369 3016 2328 
Q 3016 3291 2770 3770 
Q 2525 4250 2034 4250 
z
M 2034 4750 
Q 2819 4750 3233 4129 
Q 3647 3509 3647 2328 
Q 3647 1150 3233 529 
Q 2819 -91 2034 -91 
Q 1250 -91 836 529 
Q 422 1150 422 2328 
Q 422 3509 836 4129 
Q 1250 4750 2034 4750 
z
" transform="scale(0.015625)"/>
       </defs>
       <use xlink:href="#DejaVuSans-35"/>
       <use xlink:href="#DejaVuSans-2e" transform="translate(63.623047 0)"/>
       <use xlink:href="#DejaVuSans-30" transform="translate(95.410156 0)"/>
      </g>
     </g>
    </g>
    <g id="xtick_3">
     <g id="line2d_5">
      <path d="M 295.673636 318.04 
L 295.673636 26.88 
" clip-path="url(#pd579d3d654)" style="fill: none; stroke: #b0b0b0; stroke-opacity: 0.25; stroke-width: 0.8; stroke-linecap: square"/>
     </g>
     <g id="line2d_6">
      <g>
       <use xlink:href="#m70d7a4c8e5" x="295.673636" y="318.04" style="stroke: #000000; stroke-width: 0.8"/>
      </g>
     </g>
     <g id="text_3">
      <!-- 7.5 -->
      <g transform="translate(287.722074 332.638438) scale(0.1 -0.1)">
       <defs>
        <path id="DejaVuSans-37" d="M 525 4666 
L 3525 4666 
L 3525 4397 
L 1831 0 
L 1172 0 
L 2766 4134 
L 525 4134 
L 525 4666 
z
" transform="scale(0.015625)"/>
       </defs>
       <use xlink:href="#DejaVuSans-37"/>
       <use xlink:href="#DejaVuSans-2e" transform="translate(63.623047 0)"/>
       <use xlink:href="#DejaVuSans-35" transform="translate(95.410156 0)"/>
      </g>
     </g>
    </g>
    <g id="xtick_4">
     <g id="line2d_7">
      <path d="M 372.537273 318.04 
L 372.537273 26.88 
" clip-path="url(#pd579d3d654)" style="fill: none; stroke: #b0b0b0; stroke-opacity: 0.25; stroke-width: 0.8; stroke-linecap: square"/>
     </g>
     <g id="line2d_8">
      <g>
       <use xlink:href="#m70d7a4c8e5" x="372.537273" y="318.04" style="stroke: #000000; stroke-width: 0.8"/>
      </g>
     </g>
     <g id="text_4">
      <!-- 10.0 -->
      <g transform="translate(361.40446 332.638438) scale(0.1 -0.1)">
       <defs>
        <path id="DejaVuSans-31" d="M 794 531 
L 1825 531 
L 1825 4091 
L 703 3866 
L 703 4441 
L 1819 4666 
L 2450 4666 
L 2450 531 
L 3481 531 
L 3481 0 
L 794 0 
L 794 531 
z
" transform="scale(0.015625)"/>
       </defs>
       <use xlink:href="#DejaVuSans-31"/>
       <use xlink:href="#DejaVuSans-30" transform="translate(63.623047 0)"/>
       <use xlink:href="#DejaVuSans-2e" transform="translate(127.246094 0)"/>
       <use xlink:href="#DejaVuSans-30" transform="translate(159.033203 0)"/>
      </g>
     </g>
    </g>
    <g id="xtick_5">
     <g id="line2d_9">
      <path d="M 449.400909 318.04 
L 449.400909 26.88 
" clip-path="url(#pd579d3d654)" style="fill: none; stroke: #b0b0b0; stroke-opacity: 0.25; stroke-width: 0.8; stroke-linecap: square"/>
     </g>
     <g id="line2d_10">
      <g>
       <use xlink:href="#m70d7a4c8e5" x="449.400909" y="318.04" style="stroke: #000000; stroke-width: 0.8"/>
      </g>
     </g>
     <g id="text_5">
      <!-- 12.5 -->
      <g transform="translate(438.268097 332.638438) scale(0.1 -0.1)">
       <use xlink:href="#DejaVuSans-31"/>
       <use xlink:href="#DejaVuSans-32" transform="translate(63.623047 0)"/>
       <use xlink:href="#DejaVuSans-2e" transform="translate(127.246094 0)"/>
       <use xlink:href="#DejaVuSans-35" transform="translate(159.033203 0)"/>
      </g>
     </g>
    </g>
    <g id="xtick_6">
     <g id="line2d_11">
      <path d="M 526.264545 318.04 
L 526.264545 26.88 
" clip-path="url(#pd579d3d654)" style="fill: none; stroke: #b0b0b0; stroke-opacity: 0.25; stroke-width: 0.8; stroke-linecap: square"/>
     </g>
     <g id="line2d_12">
      <g>
       <use xlink:href="#m70d7a4c8e5" x="526.264545" y="318.04" style="stroke: #000000; stroke-width: 0.8"/>
      </g>
     </g>
     <g id="text_6">
      <!-- 15.0 -->
      <g transform="translate(515.131733 332.638438) scale(0.1 -0.1)">
       <use xlink:href="#DejaVuSans-31"/>
       <use xlink:href="#DejaVuSans-35" transform="translate(63.623047 0)"/>
       <use xlink:href="#DejaVuSans-2e" transform="translate(127.246094 0)"/>
       <use xlink:href="#DejaVuSans-30" transform="translate(159.033203 0)"/>
      </g>
     </g>
    </g>
    <g id="xtick_7">
     <g id="line2d_13">
      <path d="M 603.128182 318.04 
L 603.128182 26.88 
" clip-path="url(#pd579d3d654)" style="fill: none; stroke: #b0b0b0; stroke-opacity: 0.25; stroke-width: 0.8; stroke-linecap: square"/>
     </g>
     <g id="line2d_14">
      <g>
       <use xlink:href="#m70d7a4c8e5" x="603.128182" y="318.04" style="stroke: #000000; stroke-width: 0.8"/>
      </g>
     </g>
     <g id="text_7">
      <!-- 17.5 -->
      <g transform="translate(591.995369 332.638438) scale(0.1 -0.1)">
       <use xlink:href="#DejaVuSans-31"/>
       <use xlink:href="#DejaVuSans-37" transform="translate(63.623047 0)"/>
       <use xlink:href="#DejaVuSans-2e" transform="translate(127.246094 0)"/>
       <use xlink:href="#DejaVuSans-35" transform="translate(159.033203 0)"/>
      </g>
     </g>
    </g>
    <g id="xtick_8">
     <g id="line2d_15">
      <path d="M 679.991818 318.04 
L 679.991818 26.88 
" clip-path="url(#pd579d3d654)" style="fill: none; stroke: #b0b0b0; stroke-opacity: 0.25; stroke-width: 0.8; stroke-linecap: square"/>
     </g>
     <g id="line2d_16">
      <g>
       <use xlink:href="#m70d7a4c8e5" x="679.991818" y="318.04" style="stroke: #000000; stroke-width: 0.8"/>
      </g>
     </g>
     <g id="text_8">
      <!-- 20.0 -->
      <g transform="translate(668.859006 332.638438) scale(0.1 -0.1)">
       <use xlink:href="#DejaVuSans-32"/>
       <use xlink:href="#DejaVuSans-30" transform="translate(63.623047 0)"/>
       <use xlink:href="#DejaVuSans-2e" transform="translate(127.246094 0)"/>
       <use xlink:href="#DejaVuSans-30" transform="translate(159.033203 0)"/>
      </g>
     </g>
    </g>
    <g id="text_9">
     <!-- Iteration -->
     <g transform="translate(366.701406 346.316563) scale(0.1 -0.1)">
      <defs>
       <path id="DejaVuSans-49" d="M 628 4666 
L 1259 4666 
L 1259 0 
L 628 0 
L 628 4666 
z
" transform="scale(0.015625)"/>
       <path id="DejaVuSans-74" d="M 1172 4494 
L 1172 3500 
L 2356 3500 
L 2356 3053 
L 1172 3053 
L 1172 1153 
Q 1172 725 1289 603 
Q 1406 481 1766 481 
L 2356 481 
L 2356 0 
L 1766 0 
Q 1100 0 847 248 
Q 594 497 594 1153 
L 594 3053 
L 172 3053 
L 172 3500 
L 594 3500 
L 594 4494 
L 1172 4494 
z
" transform="scale(0.015625)"/>
       <path id="DejaVuSans-65" d="M 3597 1894 
L 3597 1613 
L 953 1613 
Q 991 1019 1311 708 
Q 1631 397 2203 397 
Q 2534 397 2845 478 
Q 3156 559 3463 722 
L 3463 178 
Q 3153 47 2828 -22 
Q 2503 -91 2169 -91 
Q 1331 -91 842 396 
Q 353 884 353 1716 
Q 353 2575 817 3079 
Q 1281 3584 2069 3584 
Q 2775 3584 3186 3129 
Q 3597 2675 3597 1894 
z
M 3022 2063 
Q 3016 2534 2758 2815 
Q 2500 3097 2075 3097 
Q 1594 3097 1305 2825 
Q 1016 2553 972 2059 
L 3022 2063 
z
" transform="scale(0.015625)"/>
       <path id="DejaVuSans-72" d="M 2631 2963 
Q 2534 3019 2420 3045 
Q 2306 3072 2169 3072 
Q 1681 3072 1420 2755 
Q 1159 2438 1159 1844 
L 1159 0 
L 581 0 
L 581 3500 
L 1159 3500 
L 1159 2956 
Q 1341 3275 1631 3429 
Q 1922 3584 2338 3584 
Q 2397 3584 2469 3576 
Q 2541 3569 2628 3553 
L 2631 2963 
z
" transform="scale(0.015625)"/>
       <path id="DejaVuSans-61" d="M 2194 1759 
Q 1497 1759 1228 1600 
Q 959 1441 959 1056 
Q 959 750 1161 570 
Q 1363 391 1709 391 
Q 2188 391 2477 730 
Q 2766 1069 2766 1631 
L 2766 1759 
L 2194 1759 
z
M 3341 1997 
L 3341 0 
L 2766 0 
L 2766 531 
Q 2569 213 2275 61 
Q 1981 -91 1556 -91 
Q 1019 -91 701 211 
Q 384 513 384 1019 
Q 384 1609 779 1909 
Q 1175 2209 1959 2209 
L 2766 2209 
L 2766 2266 
Q 2766 2663 2505 2880 
Q 2244 3097 1772 3097 
Q 1472 3097 1187 3025 
Q 903 2953 641 2809 
L 641 3341 
Q 956 3463 1253 3523 
Q 1550 3584 1831 3584 
Q 2591 3584 2966 3190 
Q 3341 2797 3341 1997 
z
" transform="scale(0.015625)"/>
       <path id="DejaVuSans-69" d="M 603 3500 
L 1178 3500 
L 1178 0 
L 603 0 
L 603 3500 
z
M 603 4863 
L 1178 4863 
L 1178 4134 
L 603 4134 
L 603 4863 
z
" transform="scale(0.015625)"/>
       <path id="DejaVuSans-6f" d="M 1959 3097 
Q 1497 3097 1228 2736 
Q 959 2375 959 1747 
Q 959 1119 1226 758 
Q 1494 397 1959 397 
Q 2419 397 2687 759 
Q 2956 1122 2956 1747 
Q 2956 2369 2687 2733 
Q 2419 3097 1959 3097 
z
M 1959 3584 
Q 2709 3584 3137 3096 
Q 3566 2609 3566 1747 
Q 3566 888 3137 398 
Q 2709 -91 1959 -91 
Q 1206 -91 779 398 
Q 353 888 353 1747 
Q 353 2609 779 3096 
Q 1206 3584 1959 3584 
z
" transform="scale(0.015625)"/>
       <path id="DejaVuSans-6e" d="M 3513 2113 
L 3513 0 
L 2938 0 
L 2938 2094 
Q 2938 2591 2744 2837 
Q 2550 3084 2163 3084 
Q 1697 3084 1428 2787 
Q 1159 2491 1159 1978 
L 1159 0 
L 581 0 
L 581 3500 
L 1159 3500 
L 1159 2956 
Q 1366 3272 1645 3428 
Q 1925 3584 2291 3584 
Q 2894 3584 3203 3211 
Q 3513 2838 3513 2113 
z
" transform="scale(0.015625)"/>
      </defs>
      <use xlink:href="#DejaVuSans-49"/>
      <use xlink:href="#DejaVuSans-74" transform="translate(29.492188 0)"/>
      <use xlink:href="#DejaVuSans-65" transform="translate(68.701172 0)"/>
      <use xlink:href="#DejaVuSans-72" transform="translate(130.224609 0)"/>
      <use xlink:href="#DejaVuSans-61" transform="translate(171.337891 0)"/>
      <use xlink:href="#DejaVuSans-74" transform="translate(232.617188 0)"/>
      <use xlink:href="#DejaVuSans-69" transform="translate(271.826172 0)"/>
      <use xlink:href="#DejaVuSans-6f" transform="translate(299.609375 0)"/>
      <use xlink:href="#DejaVuSans-6e" transform="translate(360.791016 0)"/>
     </g>
    </g>
   </g>
   <g id="matplotlib.axis_2">
    <g id="ytick_1">
     <g id="line2d_17">
      <path d="M 66.62 315.794833 
L 709.2 315.794833 
" clip-path="url(#pd579d3d654)" style="fill: none; stroke: #b0b0b0; stroke-opacity: 0.25; stroke-width: 0.8; stroke-linecap: square"/>
     </g>
     <g id="line2d_18">
      <defs>
       <path id="m92c2316a74" d="M 0 0 
L -3.5 0 
" style="stroke: #000000; stroke-width: 0.8"/>
      </defs>
      <g>
       <use xlink:href="#m92c2316a74" x="66.62" y="315.794833" style="stroke: #000000; stroke-width: 0.8"/>
      </g>
     </g>
     <g id="text_10">
      <!-- 0.0000 -->
      <g transform="translate(24.629375 319.594052) scale(0.1 -0.1)">
       <use xlink:href="#DejaVuSans-30"/>
       <use xlink:href="#DejaVuSans-2e" transform="translate(63.623047 0)"/>
       <use xlink:href="#DejaVuSans-30" transform="translate(95.410156 0)"/>
       <use xlink:href="#DejaVuSans-30" transform="translate(159.033203 0)"/>
       <use xlink:href="#DejaVuSans-30" transform="translate(222.65625 0)"/>
       <use xlink:href="#DejaVuSans-30" transform="translate(286.279297 0)"/>
      </g>
     </g>
    </g>
    <g id="ytick_2">
     <g id="line2d_19">
      <path d="M 66.62 274.592143 
L 709.2 274.592143 
" clip-path="url(#pd579d3d654)" style="fill: none; stroke: #b0b0b0; stroke-opacity: 0.25; stroke-width: 0.8; stroke-linecap: square"/>
     </g>
     <g id="line2d_20">
      <g>
       <use xlink:href="#m92c2316a74" x="66.62" y="274.592143" style="stroke: #000000; stroke-width: 0.8"/>
      </g>
     </g>
     <g id="text_11">
      <!-- 0.0005 -->
      <g transform="translate(24.629375 278.391361) scale(0.1 -0.1)">
       <use xlink:href="#DejaVuSans-30"/>
       <use xlink:href="#DejaVuSans-2e" transform="translate(63.623047 0)"/>
       <use xlink:href="#DejaVuSans-30" transform="translate(95.410156 0)"/>
       <use xlink:href="#DejaVuSans-30" transform="translate(159.033203 0)"/>
       <use xlink:href="#DejaVuSans-30" transform="translate(222.65625 0)"/>
       <use xlink:href="#DejaVuSans-35" transform="translate(286.279297 0)"/>
      </g>
     </g>
    </g>
    <g id="ytick_3">
     <g id="line2d_21">
      <path d="M 66.62 233.389452 
L 709.2 233.389452 
" clip-path="url(#pd579d3d654)" style="fill: none; stroke: #b0b0b0; stroke-opacity: 0.25; stroke-width: 0.8; stroke-linecap: square"/>
     </g>
     <g id="line2d_22">
      <g>
       <use xlink:href="#m92c2316a74" x="66.62" y="233.389452" style="stroke: #000000; stroke-width: 0.8"/>
      </g>
     </g>
     <g id="text_12">
      <!-- 0.0010 -->
      <g transform="translate(24.629375 237.188671) scale(0.1 -0.1)">
       <use xlink:href="#DejaVuSans-30"/>
       <use xlink:href="#DejaVuSans-2e" transform="translate(63.623047 0)"/>
       <use xlink:href="#DejaVuSans-30" transform="translate(95.410156 0)"/>
       <use xlink:href="#DejaVuSans-30" transform="translate(159.033203 0)"/>
       <use xlink:href="#DejaVuSans-31" transform="translate(222.65625 0)"/>
       <use xlink:href="#DejaVuSans-30" transform="translate(286.279297 0)"/>
      </g>
     </g>
    </g>
    <g id="ytick_4">
     <g id="line2d_23">
      <path d="M 66.62 192.186761 
L 709.2 192.186761 
" clip-path="url(#pd579d3d654)" style="fill: none; stroke: #b0b0b0; stroke-opacity: 0.25; stroke-width: 0.8; stroke-linecap: square"/>
     </g>
     <g id="line2d_24">
      <g>
       <use xlink:href="#m92c2316a74" x="66.62" y="192.186761" style="stroke: #000000; stroke-width: 0.8"/>
      </g>
     </g>
     <g id="text_13">
      <!-- 0.0015 -->
      <g transform="translate(24.629375 195.98598) scale(0.1 -0.1)">
       <use xlink:href="#DejaVuSans-30"/>
       <use xlink:href="#DejaVuSans-2e" transform="translate(63.623047 0)"/>
       <use xlink:href="#DejaVuSans-30" transform="translate(95.410156 0)"/>
       <use xlink:href="#DejaVuSans-30" transform="translate(159.033203 0)"/>
       <use xlink:href="#DejaVuSans-31" transform="translate(222.65625 0)"/>
       <use xlink:href="#DejaVuSans-35" transform="translate(286.279297 0)"/>
      </g>
     </g>
    </g>
    <g id="ytick_5">
     <g id="line2d_25">
      <path d="M 66.62 150.984071 
L 709.2 150.984071 
" clip-path="url(#pd579d3d654)" style="fill: none; stroke: #b0b0b0; stroke-opacity: 0.25; stroke-width: 0.8; stroke-linecap: square"/>
     </g>
     <g id="line2d_26">
      <g>
       <use xlink:href="#m92c2316a74" x="66.62" y="150.984071" style="stroke: #000000; stroke-width: 0.8"/>
      </g>
     </g>
     <g id="text_14">
      <!-- 0.0020 -->
      <g transform="translate(24.629375 154.78329) scale(0.1 -0.1)">
       <use xlink:href="#DejaVuSans-30"/>
       <use xlink:href="#DejaVuSans-2e" transform="translate(63.623047 0)"/>
       <use xlink:href="#DejaVuSans-30" transform="translate(95.410156 0)"/>
       <use xlink:href="#DejaVuSans-30" transform="translate(159.033203 0)"/>
       <use xlink:href="#DejaVuSans-32" transform="translate(222.65625 0)"/>
       <use xlink:href="#DejaVuSans-30" transform="translate(286.279297 0)"/>
      </g>
     </g>
    </g>
    <g id="ytick_6">
     <g id="line2d_27">
      <path d="M 66.62 109.78138 
L 709.2 109.78138 
" clip-path="url(#pd579d3d654)" style="fill: none; stroke: #b0b0b0; stroke-opacity: 0.25; stroke-width: 0.8; stroke-linecap: square"/>
     </g>
     <g id="line2d_28">
      <g>
       <use xlink:href="#m92c2316a74" x="66.62" y="109.78138" style="stroke: #000000; stroke-width: 0.8"/>
      </g>
     </g>
     <g id="text_15">
      <!-- 0.0025 -->
      <g transform="translate(24.629375 113.580599) scale(0.1 -0.1)">
       <use xlink:href="#DejaVuSans-30"/>
       <use xlink:href="#DejaVuSans-2e" transform="translate(63.623047 0)"/>
       <use xlink:href="#DejaVuSans-30" transform="translate(95.410156 0)"/>
       <use xlink:href="#DejaVuSans-30" transform="translate(159.033203 0)"/>
       <use xlink:href="#DejaVuSans-32" transform="translate(222.65625 0)"/>
       <use xlink:href="#DejaVuSans-35" transform="translate(286.279297 0)"/>
      </g>
     </g>
    </g>
    <g id="ytick_7">
     <g id="line2d_29">
      <path d="M 66.62 68.57869 
L 709.2 68.57869 
" clip-path="url(#pd579d3d654)" style="fill: none; stroke: #b0b0b0; stroke-opacity: 0.25; stroke-width: 0.8; stroke-linecap: square"/>
     </g>
     <g id="line2d_30">
      <g>
       <use xlink:href="#m92c2316a74" x="66.62" y="68.57869" style="stroke: #000000; stroke-width: 0.8"/>
      </g>
     </g>
     <g id="text_16">
      <!-- 0.0030 -->
      <g transform="translate(24.629375 72.377908) scale(0.1 -0.1)">
       <defs>
        <path id="DejaVuSans-33" d="M 2597 2516 
Q 3050 2419 3304 2112 
Q 3559 1806 3559 1356 
Q 3559 666 3084 287 
Q 2609 -91 1734 -91 
Q 1441 -91 1130 -33 
Q 819 25 488 141 
L 488 750 
Q 750 597 1062 519 
Q 1375 441 1716 441 
Q 2309 441 2620 675 
Q 2931 909 2931 1356 
Q 2931 1769 2642 2001 
Q 2353 2234 1838 2234 
L 1294 2234 
L 1294 2753 
L 1863 2753 
Q 2328 2753 2575 2939 
Q 2822 3125 2822 3475 
Q 2822 3834 2567 4026 
Q 2313 4219 1838 4219 
Q 1578 4219 1281 4162 
Q 984 4106 628 3988 
L 628 4550 
Q 988 4650 1302 4700 
Q 1616 4750 1894 4750 
Q 2613 4750 3031 4423 
Q 3450 4097 3450 3541 
Q 3450 3153 3228 2886 
Q 3006 2619 2597 2516 
z
" transform="scale(0.015625)"/>
       </defs>
       <use xlink:href="#DejaVuSans-30"/>
       <use xlink:href="#DejaVuSans-2e" transform="translate(63.623047 0)"/>
       <use xlink:href="#DejaVuSans-30" transform="translate(95.410156 0)"/>
       <use xlink:href="#DejaVuSans-30" transform="translate(159.033203 0)"/>
       <use xlink:href="#DejaVuSans-33" transform="translate(222.65625 0)"/>
       <use xlink:href="#DejaVuSans-30" transform="translate(286.279297 0)"/>
      </g>
     </g>
    </g>
    <g id="ytick_8">
     <g id="line2d_31">
      <path d="M 66.62 27.375999 
L 709.2 27.375999 
" clip-path="url(#pd579d3d654)" style="fill: none; stroke: #b0b0b0; stroke-opacity: 0.25; stroke-width: 0.8; stroke-linecap: square"/>
     </g>
     <g id="line2d_32">
      <g>
       <use xlink:href="#m92c2316a74" x="66.62" y="27.375999" style="stroke: #000000; stroke-width: 0.8"/>
      </g>
     </g>
     <g id="text_17">
      <!-- 0.0035 -->
      <g transform="translate(24.629375 31.175218) scale(0.1 -0.1)">
       <use xlink:href="#DejaVuSans-30"/>
       <use xlink:href="#DejaVuSans-2e" transform="translate(63.623047 0)"/>
       <use xlink:href="#DejaVuSans-30" transform="translate(95.410156 0)"/>
       <use xlink:href="#DejaVuSans-30" transform="translate(159.033203 0)"/>
       <use xlink:href="#DejaVuSans-33" transform="translate(222.65625 0)"/>
       <use xlink:href="#DejaVuSans-35" transform="translate(286.279297 0)"/>
      </g>
     </g>
    </g>
    <g id="text_18">
     <!-- Distortion -->
     <g transform="translate(18.549688 196.956094) rotate(-90) scale(0.1 -0.1)">
      <defs>
       <path id="DejaVuSans-44" d="M 1259 4147 
L 1259 519 
L 2022 519 
Q 2988 519 3436 956 
Q 3884 1394 3884 2338 
Q 3884 3275 3436 3711 
Q 2988 4147 2022 4147 
L 1259 4147 
z
M 628 4666 
L 1925 4666 
Q 3281 4666 3915 4102 
Q 4550 3538 4550 2338 
Q 4550 1131 3912 565 
Q 3275 0 1925 0 
L 628 0 
L 628 4666 
z
" transform="scale(0.015625)"/>
       <path id="DejaVuSans-73" d="M 2834 3397 
L 2834 2853 
Q 2591 2978 2328 3040 
Q 2066 3103 1784 3103 
Q 1356 3103 1142 2972 
Q 928 2841 928 2578 
Q 928 2378 1081 2264 
Q 1234 2150 1697 2047 
L 1894 2003 
Q 2506 1872 2764 1633 
Q 3022 1394 3022 966 
Q 3022 478 2636 193 
Q 2250 -91 1575 -91 
Q 1294 -91 989 -36 
Q 684 19 347 128 
L 347 722 
Q 666 556 975 473 
Q 1284 391 1588 391 
Q 1994 391 2212 530 
Q 2431 669 2431 922 
Q 2431 1156 2273 1281 
Q 2116 1406 1581 1522 
L 1381 1569 
Q 847 1681 609 1914 
Q 372 2147 372 2553 
Q 372 3047 722 3315 
Q 1072 3584 1716 3584 
Q 2034 3584 2315 3537 
Q 2597 3491 2834 3397 
z
" transform="scale(0.015625)"/>
      </defs>
      <use xlink:href="#DejaVuSans-44"/>
      <use xlink:href="#DejaVuSans-69" transform="translate(77.001953 0)"/>
      <use xlink:href="#DejaVuSans-73" transform="translate(104.785156 0)"/>
      <use xlink:href="#DejaVuSans-74" transform="translate(156.884766 0)"/>
      <use xlink:href="#DejaVuSans-6f" transform="translate(196.09375 0)"/>
      <use xlink:href="#DejaVuSans-72" transform="translate(257.275391 0)"/>
      <use xlink:href="#DejaVuSans-74" transform="translate(298.388672 0)"/>
      <use xlink:href="#DejaVuSans-69" transform="translate(337.597656 0)"/>
      <use xlink:href="#DejaVuSans-6f" transform="translate(365.380859 0)"/>
      <use xlink:href="#DejaVuSans-6e" transform="translate(426.5625 0)"/>
     </g>
    </g>
   </g>
   <g id="line2d_33">
    <path d="M 95.828182 40.114545 
L 126.573636 156.522629 
L 157.319091 222.890274 
L 188.064545 259.699075 
L 218.81 279.913371 
L 249.555455 291.081949 
L 280.300909 297.262485 
L 311.046364 300.67321 
L 341.791818 302.541207 
L 372.537273 303.55043 
L 403.282727 304.084019 
L 434.028182 304.357166 
L 464.773636 304.490601 
L 495.519091 304.551523 
L 526.264545 304.576632 
L 557.01 304.585308 
L 587.755455 304.587265 
L 618.500909 304.587265 
L 649.246364 304.596662 
L 679.991818 304.597993 
" clip-path="url(#pd579d3d654)" style="fill: none; stroke: #1f77b4; stroke-width: 2; stroke-linecap: square"/>
   </g>
   <g id="line2d_34">
    <path d="M 95.828182 42.994329 
L 126.573636 157.014251 
L 157.319091 222.762376 
L 188.064545 259.412027 
L 218.81 279.639172 
L 249.555455 290.862837 
L 280.300909 297.101303 
L 311.046364 300.559687 
L 341.791818 302.463136 
L 372.537273 303.497604 
L 403.282727 304.048863 
L 434.028182 304.334279 
L 464.773636 304.476143 
L 495.519091 304.542724 
L 526.264545 304.571487 
L 557.01 304.582401 
L 587.755455 304.585657 
L 618.500909 304.586101 
L 649.246364 304.586101 
L 679.991818 304.58722 
" clip-path="url(#pd579d3d654)" style="fill: none; stroke: #ff7f0e; stroke-width: 2; stroke-linecap: square"/>
   </g>
   <g id="line2d_35">
    <path d="M 95.828182 137.717427 
L 126.573636 202.17699 
L 157.319091 243.517687 
L 188.064545 270.542285 
L 218.81 285.631168 
L 249.555455 293.647806 
L 280.300909 297.883714 
L 311.046364 300.100401 
L 341.791818 301.238479 
L 372.537273 301.804455 
L 403.282727 302.23582 
L 434.028182 302.420815 
L 464.773636 302.490174 
L 495.519091 302.532834 
L 526.264545 302.549481 
L 557.01 302.556262 
L 587.755455 302.55658 
L 618.500909 302.594824 
L 649.246364 302.608614 
L 679.991818 302.631542 
" clip-path="url(#pd579d3d654)" style="fill: none; stroke: #2ca02c; stroke-width: 2; stroke-linecap: square"/>
   </g>
   <g id="line2d_36">
    <path d="M 95.828182 177.672446 
L 126.573636 215.808288 
L 157.319091 258.136579 
L 188.064545 273.113111 
L 218.81 280.867693 
L 249.555455 289.479485 
L 280.300909 296.025786 
L 311.046364 299.763578 
L 341.791818 301.541857 
L 372.537273 302.324948 
L 403.282727 302.658342 
L 434.028182 302.791249 
L 464.773636 302.832686 
L 495.519091 302.844379 
L 526.264545 302.845297 
L 557.01 302.847635 
L 587.755455 302.84926 
L 618.500909 302.850755 
L 649.246364 302.852361 
L 679.991818 302.854218 
" clip-path="url(#pd579d3d654)" style="fill: none; stroke: #d62728; stroke-width: 2; stroke-linecap: square"/>
   </g>
   <g id="line2d_37">
    <path d="M 95.828182 194.292908 
L 126.573636 204.747745 
L 157.319091 229.429547 
L 188.064545 255.90962 
L 218.81 275.295119 
L 249.555455 288.521071 
L 280.300909 295.921692 
L 311.046364 299.741683 
L 341.791818 301.70129 
L 372.537273 302.698467 
L 403.282727 303.19683 
L 434.028182 303.438631 
L 464.773636 303.550958 
L 495.519091 303.600089 
L 526.264545 303.619952 
L 557.01 303.627257 
L 587.755455 303.62968 
L 618.500909 303.630407 
L 649.246364 303.630606 
L 679.991818 303.630655 
" clip-path="url(#pd579d3d654)" style="fill: none; stroke: #9467bd; stroke-width: 2; stroke-linecap: square"/>
   </g>
   <g id="line2d_38">
    <path d="M 95.828182 122.165995 
L 126.573636 123.880581 
L 157.319091 137.3117 
L 188.064545 179.579563 
L 218.81 226.069121 
L 249.555455 258.325892 
L 280.300909 278.977768 
L 311.046364 290.85695 
L 341.791818 297.331157 
L 372.537273 300.848485 
L 403.282727 302.750853 
L 434.028182 303.768065 
L 464.773636 304.301248 
L 495.519091 304.572341 
L 526.264545 304.704303 
L 557.01 304.764843 
L 587.755455 304.790571 
L 618.500909 304.80054 
L 649.246364 304.804028 
L 679.991818 304.805133 
" clip-path="url(#pd579d3d654)" style="fill: none; stroke: #8c564b; stroke-width: 2; stroke-linecap: square"/>
   </g>
   <g id="line2d_39">
    <path d="M 95.828182 41.220627 
L 126.573636 147.486064 
L 157.319091 219.635904 
L 188.064545 259.578389 
L 218.81 280.187055 
L 249.555455 291.30594 
L 280.300909 297.416695 
L 311.046364 300.769845 
L 341.791818 302.597883 
L 372.537273 303.582128 
L 403.282727 304.101151 
L 434.028182 304.366186 
L 464.773636 304.495245 
L 495.519091 304.553869 
L 526.264545 304.5778 
L 557.01 304.585884 
L 587.755455 304.587551 
L 618.500909 304.587551 
L 649.246364 304.587551 
L 679.991818 304.587551 
" clip-path="url(#pd579d3d654)" style="fill: none; stroke-dasharray: 7.4,3.2; stroke-dashoffset: 0; stroke: #e377c2; stroke-width: 2"/>
   </g>
   <g id="line2d_40">
    <path d="M 95.828182 41.158814 
L 126.573636 42.983614 
L 157.319091 56.617343 
L 188.064545 120.653473 
L 218.81 196.902166 
L 249.555455 245.219498 
L 280.300909 271.846043 
L 311.046364 286.590851 
L 341.791818 294.769749 
L 372.537273 299.298118 
L 403.282727 301.790525 
L 434.028182 303.147429 
L 464.773636 303.873182 
L 495.519091 304.251026 
L 526.264545 304.440098 
L 557.01 304.52944 
L 587.755455 304.568226 
L 618.500909 304.582909 
L 649.246364 304.587124 
L 679.991818 304.587454 
" clip-path="url(#pd579d3d654)" style="fill: none; stroke-dasharray: 7.4,3.2; stroke-dashoffset: 0; stroke: #7f7f7f; stroke-width: 2"/>
   </g>
   <g id="line2d_41">
    <path d="M 95.828182 40.621963 
L 126.573636 55.610991 
L 157.319091 118.160884 
L 188.064545 196.892349 
L 218.81 243.328458 
L 249.555455 271.061048 
L 280.300909 286.250005 
L 311.046364 294.622428 
L 341.791818 299.23616 
L 372.537273 301.765459 
L 403.282727 303.137693 
L 434.028182 303.869576 
L 464.773636 304.249821 
L 495.519091 304.43983 
L 526.264545 304.529523 
L 557.01 304.568417 
L 587.755455 304.583104 
L 618.500909 304.587282 
L 649.246364 304.587567 
L 679.991818 304.587567 
" clip-path="url(#pd579d3d654)" style="fill: none; stroke-dasharray: 7.4,3.2; stroke-dashoffset: 0; stroke: #bcbd22; stroke-width: 2"/>
   </g>
   <g id="line2d_42">
    <path d="M 95.828182 47.663115 
L 126.573636 60.358172 
L 157.319091 146.193508 
L 188.064545 187.93498 
L 218.81 248.2331 
L 249.555455 272.707672 
L 280.300909 288.323573 
L 311.046364 295.809906 
L 341.791818 300.327447 
L 372.537273 300.327447 
L 403.282727 300.481814 
L 434.028182 300.664318 
L 464.773636 301.546052 
L 495.519091 302.427656 
L 526.264545 302.937557 
L 557.01 303.06425 
L 587.755455 303.192629 
L 618.500909 303.345818 
L 649.246364 303.373981 
L 679.991818 303.595708 
" clip-path="url(#pd579d3d654)" style="fill: none; stroke-dasharray: 7.4,3.2; stroke-dashoffset: 0; stroke: #17becf; stroke-width: 2"/>
   </g>
   <g id="line2d_43">
    <path d="M 95.828182 81.892189 
L 126.573636 134.157925 
L 157.319091 164.452897 
L 188.064545 206.988043 
L 218.81 254.213139 
L 249.555455 260.045772 
L 280.300909 274.511241 
L 311.046364 287.507096 
L 341.791818 293.153835 
L 372.537273 297.74405 
L 403.282727 297.74405 
L 434.028182 297.74405 
L 464.773636 297.74405 
L 495.519091 297.74405 
L 526.264545 297.74405 
L 557.01 297.74405 
L 587.755455 297.74405 
L 618.500909 297.74405 
L 649.246364 297.74405 
L 679.991818 297.74405 
" clip-path="url(#pd579d3d654)" style="fill: none; stroke-dasharray: 7.4,3.2; stroke-dashoffset: 0; stroke: #1f77b4; stroke-width: 2"/>
   </g>
   <g id="line2d_44">
    <path d="M 95.828182 150.736429 
L 126.573636 188.660191 
L 157.319091 195.224719 
L 188.064545 223.838737 
L 218.81 258.22046 
L 249.555455 279.210553 
L 280.300909 290.832505 
L 311.046364 297.228076 
L 341.791818 300.747269 
L 372.537273 302.675138 
L 403.282727 303.71935 
L 434.028182 304.273566 
L 464.773636 304.558506 
L 495.519091 304.69835 
L 526.264545 304.762713 
L 557.01 304.789966 
L 587.755455 304.800413 
L 618.500909 304.804012 
L 649.246364 304.805133 
L 679.991818 304.805455 
" clip-path="url(#pd579d3d654)" style="fill: none; stroke-dasharray: 7.4,3.2; stroke-dashoffset: 0; stroke: #ff7f0e; stroke-width: 2"/>
   </g>
   <g id="patch_3">
    <path d="M 66.62 318.04 
L 66.62 26.88 
" style="fill: none; stroke: #000000; stroke-width: 0.8; stroke-linejoin: miter; stroke-linecap: square"/>
   </g>
   <g id="patch_4">
    <path d="M 709.2 318.04 
L 709.2 26.88 
" style="fill: none; stroke: #000000; stroke-width: 0.8; stroke-linejoin: miter; stroke-linecap: square"/>
   </g>
   <g id="patch_5">
    <path d="M 66.62 318.04 
L 709.2 318.04 
" style="fill: none; stroke: #000000; stroke-width: 0.8; stroke-linejoin: miter; stroke-linecap: square"/>
   </g>
   <g id="patch_6">
    <path d="M 66.62 26.88 
L 709.2 26.88 
" style="fill: none; stroke: #000000; stroke-width: 0.8; stroke-linejoin: miter; stroke-linecap: square"/>
   </g>
   <g id="text_19">
    <!-- Normal: NR+LM sweep -->
    <g transform="translate(318.934375 20.88) scale(0.12 -0.12)">
     <defs>
      <path id="DejaVuSans-4e" d="M 628 4666 
L 1478 4666 
L 3547 763 
L 3547 4666 
L 4159 4666 
L 4159 0 
L 3309 0 
L 1241 3903 
L 1241 0 
L 628 0 
L 628 4666 
z
" transform="scale(0.015625)"/>
      <path id="DejaVuSans-6d" d="M 3328 2828 
Q 3544 3216 3844 3400 
Q 4144 3584 4550 3584 
Q 5097 3584 5394 3201 
Q 5691 2819 5691 2113 
L 5691 0 
L 5113 0 
L 5113 2094 
Q 5113 2597 4934 2840 
Q 4756 3084 4391 3084 
Q 3944 3084 3684 2787 
Q 3425 2491 3425 1978 
L 3425 0 
L 2847 0 
L 2847 2094 
Q 2847 2600 2669 2842 
Q 2491 3084 2119 3084 
Q 1678 3084 1418 2786 
Q 1159 2488 1159 1978 
L 1159 0 
L 581 0 
L 581 3500 
L 1159 3500 
L 1159 2956 
Q 1356 3278 1631 3431 
Q 1906 3584 2284 3584 
Q 2666 3584 2933 3390 
Q 3200 3197 3328 2828 
z
" transform="scale(0.015625)"/>
      <path id="DejaVuSans-6c" d="M 603 4863 
L 1178 4863 
L 1178 0 
L 603 0 
L 603 4863 
z
" transform="scale(0.015625)"/>
      <path id="DejaVuSans-3a" d="M 750 794 
L 1409 794 
L 1409 0 
L 750 0 
L 750 794 
z
M 750 3309 
L 1409 3309 
L 1409 2516 
L 750 2516 
L 750 3309 
z
" transform="scale(0.015625)"/>
      <path id="DejaVuSans-20" transform="scale(0.015625)"/>
      <path id="DejaVuSans-52" d="M 2841 2188 
Q 3044 2119 3236 1894 
Q 3428 1669 3622 1275 
L 4263 0 
L 3584 0 
L 2988 1197 
Q 2756 1666 2539 1819 
Q 2322 1972 1947 1972 
L 1259 1972 
L 1259 0 
L 628 0 
L 628 4666 
L 2053 4666 
Q 2853 4666 3247 4331 
Q 3641 3997 3641 3322 
Q 3641 2881 3436 2590 
Q 3231 2300 2841 2188 
z
M 1259 4147 
L 1259 2491 
L 2053 2491 
Q 2509 2491 2742 2702 
Q 2975 2913 2975 3322 
Q 2975 3731 2742 3939 
Q 2509 4147 2053 4147 
L 1259 4147 
z
" transform="scale(0.015625)"/>
      <path id="DejaVuSans-2b" d="M 2944 4013 
L 2944 2272 
L 4684 2272 
L 4684 1741 
L 2944 1741 
L 2944 0 
L 2419 0 
L 2419 1741 
L 678 1741 
L 678 2272 
L 2419 2272 
L 2419 4013 
L 2944 4013 
z
" transform="scale(0.015625)"/>
      <path id="DejaVuSans-4c" d="M 628 4666 
L 1259 4666 
L 1259 531 
L 3531 531 
L 3531 0 
L 628 0 
L 628 4666 
z
" transform="scale(0.015625)"/>
      <path id="DejaVuSans-4d" d="M 628 4666 
L 1569 4666 
L 2759 1491 
L 3956 4666 
L 4897 4666 
L 4897 0 
L 4281 0 
L 4281 4097 
L 3078 897 
L 2444 897 
L 1241 4097 
L 1241 0 
L 628 0 
L 628 4666 
z
" transform="scale(0.015625)"/>
      <path id="DejaVuSans-77" d="M 269 3500 
L 844 3500 
L 1563 769 
L 2278 3500 
L 2956 3500 
L 3675 769 
L 4391 3500 
L 4966 3500 
L 4050 0 
L 3372 0 
L 2619 2869 
L 1863 0 
L 1184 0 
L 269 3500 
z
" transform="scale(0.015625)"/>
      <path id="DejaVuSans-70" d="M 1159 525 
L 1159 -1331 
L 581 -1331 
L 581 3500 
L 1159 3500 
L 1159 2969 
Q 1341 3281 1617 3432 
Q 1894 3584 2278 3584 
Q 2916 3584 3314 3078 
Q 3713 2572 3713 1747 
Q 3713 922 3314 415 
Q 2916 -91 2278 -91 
Q 1894 -91 1617 61 
Q 1341 213 1159 525 
z
M 3116 1747 
Q 3116 2381 2855 2742 
Q 2594 3103 2138 3103 
Q 1681 3103 1420 2742 
Q 1159 2381 1159 1747 
Q 1159 1113 1420 752 
Q 1681 391 2138 391 
Q 2594 391 2855 752 
Q 3116 1113 3116 1747 
z
" transform="scale(0.015625)"/>
     </defs>
     <use xlink:href="#DejaVuSans-4e"/>
     <use xlink:href="#DejaVuSans-6f" transform="translate(74.804688 0)"/>
     <use xlink:href="#DejaVuSans-72" transform="translate(135.986328 0)"/>
     <use xlink:href="#DejaVuSans-6d" transform="translate(175.349609 0)"/>
     <use xlink:href="#DejaVuSans-61" transform="translate(272.761719 0)"/>
     <use xlink:href="#DejaVuSans-6c" transform="translate(334.041016 0)"/>
     <use xlink:href="#DejaVuSans-3a" transform="translate(361.824219 0)"/>
     <use xlink:href="#DejaVuSans-20" transform="translate(395.515625 0)"/>
     <use xlink:href="#DejaVuSans-4e" transform="translate(427.302734 0)"/>
     <use xlink:href="#DejaVuSans-52" transform="translate(502.107422 0)"/>
     <use xlink:href="#DejaVuSans-2b" transform="translate(571.589844 0)"/>
     <use xlink:href="#DejaVuSans-4c" transform="translate(655.378906 0)"/>
     <use xlink:href="#DejaVuSans-4d" transform="translate(711.091797 0)"/>
     <use xlink:href="#DejaVuSans-20" transform="translate(797.371094 0)"/>
     <use xlink:href="#DejaVuSans-73" transform="translate(829.158203 0)"/>
     <use xlink:href="#DejaVuSans-77" transform="translate(881.257812 0)"/>
     <use xlink:href="#DejaVuSans-65" transform="translate(963.044922 0)"/>
     <use xlink:href="#DejaVuSans-65" transform="translate(1024.568359 0)"/>
     <use xlink:href="#DejaVuSans-70" transform="translate(1086.091797 0)"/>
    </g>
   </g>
   <g id="legend_1">
    <g id="patch_7">
     <path d="M 420.85625 105.07 
L 703.6 105.07 
Q 705.2 105.07 705.2 103.47 
L 705.2 32.48 
Q 705.2 30.88 703.6 30.88 
L 420.85625 30.88 
Q 419.25625 30.88 419.25625 32.48 
L 419.25625 103.47 
Q 419.25625 105.07 420.85625 105.07 
z
" style="fill: #ffffff; opacity: 0.8; stroke: #cccccc; stroke-linejoin: miter"/>
    </g>
    <g id="line2d_45">
     <path d="M 422.45625 37.35875 
L 430.45625 37.35875 
L 438.45625 37.35875 
" style="fill: none; stroke: #1f77b4; stroke-width: 2; stroke-linecap: square"/>
    </g>
    <g id="text_20">
     <!-- identity, lambda_0=0.0001 -->
     <g transform="translate(444.85625 40.15875) scale(0.08 -0.08)">
      <defs>
       <path id="DejaVuSans-64" d="M 2906 2969 
L 2906 4863 
L 3481 4863 
L 3481 0 
L 2906 0 
L 2906 525 
Q 2725 213 2448 61 
Q 2172 -91 1784 -91 
Q 1150 -91 751 415 
Q 353 922 353 1747 
Q 353 2572 751 3078 
Q 1150 3584 1784 3584 
Q 2172 3584 2448 3432 
Q 2725 3281 2906 2969 
z
M 947 1747 
Q 947 1113 1208 752 
Q 1469 391 1925 391 
Q 2381 391 2643 752 
Q 2906 1113 2906 1747 
Q 2906 2381 2643 2742 
Q 2381 3103 1925 3103 
Q 1469 3103 1208 2742 
Q 947 2381 947 1747 
z
" transform="scale(0.015625)"/>
       <path id="DejaVuSans-79" d="M 2059 -325 
Q 1816 -950 1584 -1140 
Q 1353 -1331 966 -1331 
L 506 -1331 
L 506 -850 
L 844 -850 
Q 1081 -850 1212 -737 
Q 1344 -625 1503 -206 
L 1606 56 
L 191 3500 
L 800 3500 
L 1894 763 
L 2988 3500 
L 3597 3500 
L 2059 -325 
z
" transform="scale(0.015625)"/>
       <path id="DejaVuSans-2c" d="M 750 794 
L 1409 794 
L 1409 256 
L 897 -744 
L 494 -744 
L 750 256 
L 750 794 
z
" transform="scale(0.015625)"/>
       <path id="DejaVuSans-62" d="M 3116 1747 
Q 3116 2381 2855 2742 
Q 2594 3103 2138 3103 
Q 1681 3103 1420 2742 
Q 1159 2381 1159 1747 
Q 1159 1113 1420 752 
Q 1681 391 2138 391 
Q 2594 391 2855 752 
Q 3116 1113 3116 1747 
z
M 1159 2969 
Q 1341 3281 1617 3432 
Q 1894 3584 2278 3584 
Q 2916 3584 3314 3078 
Q 3713 2572 3713 1747 
Q 3713 922 3314 415 
Q 2916 -91 2278 -91 
Q 1894 -91 1617 61 
Q 1341 213 1159 525 
L 1159 0 
L 581 0 
L 581 4863 
L 1159 4863 
L 1159 2969 
z
" transform="scale(0.015625)"/>
       <path id="DejaVuSans-5f" d="M 3263 -1063 
L 3263 -1509 
L -63 -1509 
L -63 -1063 
L 3263 -1063 
z
" transform="scale(0.015625)"/>
       <path id="DejaVuSans-3d" d="M 678 2906 
L 4684 2906 
L 4684 2381 
L 678 2381 
L 678 2906 
z
M 678 1631 
L 4684 1631 
L 4684 1100 
L 678 1100 
L 678 1631 
z
" transform="scale(0.015625)"/>
      </defs>
      <use xlink:href="#DejaVuSans-69"/>
      <use xlink:href="#DejaVuSans-64" transform="translate(27.783203 0)"/>
      <use xlink:href="#DejaVuSans-65" transform="translate(91.259766 0)"/>
      <use xlink:href="#DejaVuSans-6e" transform="translate(152.783203 0)"/>
      <use xlink:href="#DejaVuSans-74" transform="translate(216.162109 0)"/>
      <use xlink:href="#DejaVuSans-69" transform="translate(255.371094 0)"/>
      <use xlink:href="#DejaVuSans-74" transform="translate(283.154297 0)"/>
      <use xlink:href="#DejaVuSans-79" transform="translate(322.363281 0)"/>
      <use xlink:href="#DejaVuSans-2c" transform="translate(381.542969 0)"/>
      <use xlink:href="#DejaVuSans-20" transform="translate(413.330078 0)"/>
      <use xlink:href="#DejaVuSans-6c" transform="translate(445.117188 0)"/>
      <use xlink:href="#DejaVuSans-61" transform="translate(472.900391 0)"/>
      <use xlink:href="#DejaVuSans-6d" transform="translate(534.179688 0)"/>
      <use xlink:href="#DejaVuSans-62" transform="translate(631.591797 0)"/>
      <use xlink:href="#DejaVuSans-64" transform="translate(695.068359 0)"/>
      <use xlink:href="#DejaVuSans-61" transform="translate(758.544922 0)"/>
      <use xlink:href="#DejaVuSans-5f" transform="translate(819.824219 0)"/>
      <use xlink:href="#DejaVuSans-30" transform="translate(869.824219 0)"/>
      <use xlink:href="#DejaVuSans-3d" transform="translate(933.447266 0)"/>
      <use xlink:href="#DejaVuSans-30" transform="translate(1017.236328 0)"/>
      <use xlink:href="#DejaVuSans-2e" transform="translate(1080.859375 0)"/>
      <use xlink:href="#DejaVuSans-30" transform="translate(1112.646484 0)"/>
      <use xlink:href="#DejaVuSans-30" transform="translate(1176.269531 0)"/>
      <use xlink:href="#DejaVuSans-30" transform="translate(1239.892578 0)"/>
      <use xlink:href="#DejaVuSans-31" transform="translate(1303.515625 0)"/>
     </g>
    </g>
    <g id="line2d_46">
     <path d="M 422.45625 49.32375 
L 430.45625 49.32375 
L 438.45625 49.32375 
" style="fill: none; stroke: #ff7f0e; stroke-width: 2; stroke-linecap: square"/>
    </g>
    <g id="text_21">
     <!-- identity, lambda_0=0.001 -->
     <g transform="translate(444.85625 52.12375) scale(0.08 -0.08)">
      <use xlink:href="#DejaVuSans-69"/>
      <use xlink:href="#DejaVuSans-64" transform="translate(27.783203 0)"/>
      <use xlink:href="#DejaVuSans-65" transform="translate(91.259766 0)"/>
      <use xlink:href="#DejaVuSans-6e" transform="translate(152.783203 0)"/>
      <use xlink:href="#DejaVuSans-74" transform="translate(216.162109 0)"/>
      <use xlink:href="#DejaVuSans-69" transform="translate(255.371094 0)"/>
      <use xlink:href="#DejaVuSans-74" transform="translate(283.154297 0)"/>
      <use xlink:href="#DejaVuSans-79" transform="translate(322.363281 0)"/>
      <use xlink:href="#DejaVuSans-2c" transform="translate(381.542969 0)"/>
      <use xlink:href="#DejaVuSans-20" transform="translate(413.330078 0)"/>
      <use xlink:href="#DejaVuSans-6c" transform="translate(445.117188 0)"/>
      <use xlink:href="#DejaVuSans-61" transform="translate(472.900391 0)"/>
      <use xlink:href="#DejaVuSans-6d" transform="translate(534.179688 0)"/>
      <use xlink:href="#DejaVuSans-62" transform="translate(631.591797 0)"/>
      <use xlink:href="#DejaVuSans-64" transform="translate(695.068359 0)"/>
      <use xlink:href="#DejaVuSans-61" transform="translate(758.544922 0)"/>
      <use xlink:href="#DejaVuSans-5f" transform="translate(819.824219 0)"/>
      <use xlink:href="#DejaVuSans-30" transform="translate(869.824219 0)"/>
      <use xlink:href="#DejaVuSans-3d" transform="translate(933.447266 0)"/>
      <use xlink:href="#DejaVuSans-30" transform="translate(1017.236328 0)"/>
      <use xlink:href="#DejaVuSans-2e" transform="translate(1080.859375 0)"/>
      <use xlink:href="#DejaVuSans-30" transform="translate(1112.646484 0)"/>
      <use xlink:href="#DejaVuSans-30" transform="translate(1176.269531 0)"/>
      <use xlink:href="#DejaVuSans-31" transform="translate(1239.892578 0)"/>
     </g>
    </g>
    <g id="line2d_47">
     <path d="M 422.45625 61.28875 
L 430.45625 61.28875 
L 438.45625 61.28875 
" style="fill: none; stroke: #2ca02c; stroke-width: 2; stroke-linecap: square"/>
    </g>
    <g id="text_22">
     <!-- identity, lambda_0=0.01 -->
     <g transform="translate(444.85625 64.08875) scale(0.08 -0.08)">
      <use xlink:href="#DejaVuSans-69"/>
      <use xlink:href="#DejaVuSans-64" transform="translate(27.783203 0)"/>
      <use xlink:href="#DejaVuSans-65" transform="translate(91.259766 0)"/>
      <use xlink:href="#DejaVuSans-6e" transform="translate(152.783203 0)"/>
      <use xlink:href="#DejaVuSans-74" transform="translate(216.162109 0)"/>
      <use xlink:href="#DejaVuSans-69" transform="translate(255.371094 0)"/>
      <use xlink:href="#DejaVuSans-74" transform="translate(283.154297 0)"/>
      <use xlink:href="#DejaVuSans-79" transform="translate(322.363281 0)"/>
      <use xlink:href="#DejaVuSans-2c" transform="translate(381.542969 0)"/>
      <use xlink:href="#DejaVuSans-20" transform="translate(413.330078 0)"/>
      <use xlink:href="#DejaVuSans-6c" transform="translate(445.117188 0)"/>
      <use xlink:href="#DejaVuSans-61" transform="translate(472.900391 0)"/>
      <use xlink:href="#DejaVuSans-6d" transform="translate(534.179688 0)"/>
      <use xlink:href="#DejaVuSans-62" transform="translate(631.591797 0)"/>
      <use xlink:href="#DejaVuSans-64" transform="translate(695.068359 0)"/>
      <use xlink:href="#DejaVuSans-61" transform="translate(758.544922 0)"/>
      <use xlink:href="#DejaVuSans-5f" transform="translate(819.824219 0)"/>
      <use xlink:href="#DejaVuSans-30" transform="translate(869.824219 0)"/>
      <use xlink:href="#DejaVuSans-3d" transform="translate(933.447266 0)"/>
      <use xlink:href="#DejaVuSans-30" transform="translate(1017.236328 0)"/>
      <use xlink:href="#DejaVuSans-2e" transform="translate(1080.859375 0)"/>
      <use xlink:href="#DejaVuSans-30" transform="translate(1112.646484 0)"/>
      <use xlink:href="#DejaVuSans-31" transform="translate(1176.269531 0)"/>
     </g>
    </g>
    <g id="line2d_48">
     <path d="M 422.45625 73.25375 
L 430.45625 73.25375 
L 438.45625 73.25375 
" style="fill: none; stroke: #d62728; stroke-width: 2; stroke-linecap: square"/>
    </g>
    <g id="text_23">
     <!-- identity, lambda_0=0.1 -->
     <g transform="translate(444.85625 76.05375) scale(0.08 -0.08)">
      <use xlink:href="#DejaVuSans-69"/>
      <use xlink:href="#DejaVuSans-64" transform="translate(27.783203 0)"/>
      <use xlink:href="#DejaVuSans-65" transform="translate(91.259766 0)"/>
      <use xlink:href="#DejaVuSans-6e" transform="translate(152.783203 0)"/>
      <use xlink:href="#DejaVuSans-74" transform="translate(216.162109 0)"/>
      <use xlink:href="#DejaVuSans-69" transform="translate(255.371094 0)"/>
      <use xlink:href="#DejaVuSans-74" transform="translate(283.154297 0)"/>
      <use xlink:href="#DejaVuSans-79" transform="translate(322.363281 0)"/>
      <use xlink:href="#DejaVuSans-2c" transform="translate(381.542969 0)"/>
      <use xlink:href="#DejaVuSans-20" transform="translate(413.330078 0)"/>
      <use xlink:href="#DejaVuSans-6c" transform="translate(445.117188 0)"/>
      <use xlink:href="#DejaVuSans-61" transform="translate(472.900391 0)"/>
      <use xlink:href="#DejaVuSans-6d" transform="translate(534.179688 0)"/>
      <use xlink:href="#DejaVuSans-62" transform="translate(631.591797 0)"/>
      <use xlink:href="#DejaVuSans-64" transform="translate(695.068359 0)"/>
      <use xlink:href="#DejaVuSans-61" transform="translate(758.544922 0)"/>
      <use xlink:href="#DejaVuSans-5f" transform="translate(819.824219 0)"/>
      <use xlink:href="#DejaVuSans-30" transform="translate(869.824219 0)"/>
      <use xlink:href="#DejaVuSans-3d" transform="translate(933.447266 0)"/>
      <use xlink:href="#DejaVuSans-30" transform="translate(1017.236328 0)"/>
      <use xlink:href="#DejaVuSans-2e" transform="translate(1080.859375 0)"/>
      <use xlink:href="#DejaVuSans-31" transform="translate(1112.646484 0)"/>
     </g>
    </g>
    <g id="line2d_49">
     <path d="M 422.45625 85.21875 
L 430.45625 85.21875 
L 438.45625 85.21875 
" style="fill: none; stroke: #9467bd; stroke-width: 2; stroke-linecap: square"/>
    </g>
    <g id="text_24">
     <!-- identity, lambda_0=1 -->
     <g transform="translate(444.85625 88.01875) scale(0.08 -0.08)">
      <use xlink:href="#DejaVuSans-69"/>
      <use xlink:href="#DejaVuSans-64" transform="translate(27.783203 0)"/>
      <use xlink:href="#DejaVuSans-65" transform="translate(91.259766 0)"/>
      <use xlink:href="#DejaVuSans-6e" transform="translate(152.783203 0)"/>
      <use xlink:href="#DejaVuSans-74" transform="translate(216.162109 0)"/>
      <use xlink:href="#DejaVuSans-69" transform="translate(255.371094 0)"/>
      <use xlink:href="#DejaVuSans-74" transform="translate(283.154297 0)"/>
      <use xlink:href="#DejaVuSans-79" transform="translate(322.363281 0)"/>
      <use xlink:href="#DejaVuSans-2c" transform="translate(381.542969 0)"/>
      <use xlink:href="#DejaVuSans-20" transform="translate(413.330078 0)"/>
      <use xlink:href="#DejaVuSans-6c" transform="translate(445.117188 0)"/>
      <use xlink:href="#DejaVuSans-61" transform="translate(472.900391 0)"/>
      <use xlink:href="#DejaVuSans-6d" transform="translate(534.179688 0)"/>
      <use xlink:href="#DejaVuSans-62" transform="translate(631.591797 0)"/>
      <use xlink:href="#DejaVuSans-64" transform="translate(695.068359 0)"/>
      <use xlink:href="#DejaVuSans-61" transform="translate(758.544922 0)"/>
      <use xlink:href="#DejaVuSans-5f" transform="translate(819.824219 0)"/>
      <use xlink:href="#DejaVuSans-30" transform="translate(869.824219 0)"/>
      <use xlink:href="#DejaVuSans-3d" transform="translate(933.447266 0)"/>
      <use xlink:href="#DejaVuSans-31" transform="translate(1017.236328 0)"/>
     </g>
    </g>
    <g id="line2d_50">
     <path d="M 422.45625 97.18375 
L 430.45625 97.18375 
L 438.45625 97.18375 
" style="fill: none; stroke: #8c564b; stroke-width: 2; stroke-linecap: square"/>
    </g>
    <g id="text_25">
     <!-- identity, lambda_0=10 -->
     <g transform="translate(444.85625 99.98375) scale(0.08 -0.08)">
      <use xlink:href="#DejaVuSans-69"/>
      <use xlink:href="#DejaVuSans-64" transform="translate(27.783203 0)"/>
      <use xlink:href="#DejaVuSans-65" transform="translate(91.259766 0)"/>
      <use xlink:href="#DejaVuSans-6e" transform="translate(152.783203 0)"/>
      <use xlink:href="#DejaVuSans-74" transform="translate(216.162109 0)"/>
      <use xlink:href="#DejaVuSans-69" transform="translate(255.371094 0)"/>
      <use xlink:href="#DejaVuSans-74" transform="translate(283.154297 0)"/>
      <use xlink:href="#DejaVuSans-79" transform="translate(322.363281 0)"/>
      <use xlink:href="#DejaVuSans-2c" transform="translate(381.542969 0)"/>
      <use xlink:href="#DejaVuSans-20" transform="translate(413.330078 0)"/>
      <use xlink:href="#DejaVuSans-6c" transform="translate(445.117188 0)"/>
      <use xlink:href="#DejaVuSans-61" transform="translate(472.900391 0)"/>
      <use xlink:href="#DejaVuSans-6d" transform="translate(534.179688 0)"/>
      <use xlink:href="#DejaVuSans-62" transform="translate(631.591797 0)"/>
      <use xlink:href="#DejaVuSans-64" transform="translate(695.068359 0)"/>
      <use xlink:href="#DejaVuSans-61" transform="translate(758.544922 0)"/>
      <use xlink:href="#DejaVuSans-5f" transform="translate(819.824219 0)"/>
      <use xlink:href="#DejaVuSans-30" transform="translate(869.824219 0)"/>
      <use xlink:href="#DejaVuSans-3d" transform="translate(933.447266 0)"/>
      <use xlink:href="#DejaVuSans-31" transform="translate(1017.236328 0)"/>
      <use xlink:href="#DejaVuSans-30" transform="translate(1080.859375 0)"/>
     </g>
    </g>
    <g id="line2d_51">
     <path d="M 570.22875 37.35875 
L 578.22875 37.35875 
L 586.22875 37.35875 
" style="fill: none; stroke-dasharray: 7.4,3.2; stroke-dashoffset: 0; stroke: #e377c2; stroke-width: 2"/>
    </g>
    <g id="text_26">
     <!-- hessian, lambda_0=0.0001 -->
     <g transform="translate(592.62875 40.15875) scale(0.08 -0.08)">
      <defs>
       <path id="DejaVuSans-68" d="M 3513 2113 
L 3513 0 
L 2938 0 
L 2938 2094 
Q 2938 2591 2744 2837 
Q 2550 3084 2163 3084 
Q 1697 3084 1428 2787 
Q 1159 2491 1159 1978 
L 1159 0 
L 581 0 
L 581 4863 
L 1159 4863 
L 1159 2956 
Q 1366 3272 1645 3428 
Q 1925 3584 2291 3584 
Q 2894 3584 3203 3211 
Q 3513 2838 3513 2113 
z
" transform="scale(0.015625)"/>
      </defs>
      <use xlink:href="#DejaVuSans-68"/>
      <use xlink:href="#DejaVuSans-65" transform="translate(63.378906 0)"/>
      <use xlink:href="#DejaVuSans-73" transform="translate(124.902344 0)"/>
      <use xlink:href="#DejaVuSans-73" transform="translate(177.001953 0)"/>
      <use xlink:href="#DejaVuSans-69" transform="translate(229.101562 0)"/>
      <use xlink:href="#DejaVuSans-61" transform="translate(256.884766 0)"/>
      <use xlink:href="#DejaVuSans-6e" transform="translate(318.164062 0)"/>
      <use xlink:href="#DejaVuSans-2c" transform="translate(381.542969 0)"/>
      <use xlink:href="#DejaVuSans-20" transform="translate(413.330078 0)"/>
      <use xlink:href="#DejaVuSans-6c" transform="translate(445.117188 0)"/>
      <use xlink:href="#DejaVuSans-61" transform="translate(472.900391 0)"/>
      <use xlink:href="#DejaVuSans-6d" transform="translate(534.179688 0)"/>
      <use xlink:href="#DejaVuSans-62" transform="translate(631.591797 0)"/>
      <use xlink:href="#DejaVuSans-64" transform="translate(695.068359 0)"/>
      <use xlink:href="#DejaVuSans-61" transform="translate(758.544922 0)"/>
      <use xlink:href="#DejaVuSans-5f" transform="translate(819.824219 0)"/>
      <use xlink:href="#DejaVuSans-30" transform="translate(869.824219 0)"/>
      <use xlink:href="#DejaVuSans-3d" transform="translate(933.447266 0)"/>
      <use xlink:href="#DejaVuSans-30" transform="translate(1017.236328 0)"/>
      <use xlink:href="#DejaVuSans-2e" transform="translate(1080.859375 0)"/>
      <use xlink:href="#DejaVuSans-30" transform="translate(1112.646484 0)"/>
      <use xlink:href="#DejaVuSans-30" transform="translate(1176.269531 0)"/>
      <use xlink:href="#DejaVuSans-30" transform="translate(1239.892578 0)"/>
      <use xlink:href="#DejaVuSans-31" transform="translate(1303.515625 0)"/>
     </g>
    </g>
    <g id="line2d_52">
     <path d="M 570.22875 49.32375 
L 578.22875 49.32375 
L 586.22875 49.32375 
" style="fill: none; stroke-dasharray: 7.4,3.2; stroke-dashoffset: 0; stroke: #7f7f7f; stroke-width: 2"/>
    </g>
    <g id="text_27">
     <!-- hessian, lambda_0=0.001 -->
     <g transform="translate(592.62875 52.12375) scale(0.08 -0.08)">
      <use xlink:href="#DejaVuSans-68"/>
      <use xlink:href="#DejaVuSans-65" transform="translate(63.378906 0)"/>
      <use xlink:href="#DejaVuSans-73" transform="translate(124.902344 0)"/>
      <use xlink:href="#DejaVuSans-73" transform="translate(177.001953 0)"/>
      <use xlink:href="#DejaVuSans-69" transform="translate(229.101562 0)"/>
      <use xlink:href="#DejaVuSans-61" transform="translate(256.884766 0)"/>
      <use xlink:href="#DejaVuSans-6e" transform="translate(318.164062 0)"/>
      <use xlink:href="#DejaVuSans-2c" transform="translate(381.542969 0)"/>
      <use xlink:href="#DejaVuSans-20" transform="translate(413.330078 0)"/>
      <use xlink:href="#DejaVuSans-6c" transform="translate(445.117188 0)"/>
      <use xlink:href="#DejaVuSans-61" transform="translate(472.900391 0)"/>
      <use xlink:href="#DejaVuSans-6d" transform="translate(534.179688 0)"/>
      <use xlink:href="#DejaVuSans-62" transform="translate(631.591797 0)"/>
      <use xlink:href="#DejaVuSans-64" transform="translate(695.068359 0)"/>
      <use xlink:href="#DejaVuSans-61" transform="translate(758.544922 0)"/>
      <use xlink:href="#DejaVuSans-5f" transform="translate(819.824219 0)"/>
      <use xlink:href="#DejaVuSans-30" transform="translate(869.824219 0)"/>
      <use xlink:href="#DejaVuSans-3d" transform="translate(933.447266 0)"/>
      <use xlink:href="#DejaVuSans-30" transform="translate(1017.236328 0)"/>
      <use xlink:href="#DejaVuSans-2e" transform="translate(1080.859375 0)"/>
      <use xlink:href="#DejaVuSans-30" transform="translate(1112.646484 0)"/>
      <use xlink:href="#DejaVuSans-30" transform="translate(1176.269531 0)"/>
      <use xlink:href="#DejaVuSans-31" transform="translate(1239.892578 0)"/>
     </g>
    </g>
    <g id="line2d_53">
     <path d="M 570.22875 61.28875 
L 578.22875 61.28875 
L 586.22875 61.28875 
" style="fill: none; stroke-dasharray: 7.4,3.2; stroke-dashoffset: 0; stroke: #bcbd22; stroke-width: 2"/>
    </g>
    <g id="text_28">
     <!-- hessian, lambda_0=0.01 -->
     <g transform="translate(592.62875 64.08875) scale(0.08 -0.08)">
      <use xlink:href="#DejaVuSans-68"/>
      <use xlink:href="#DejaVuSans-65" transform="translate(63.378906 0)"/>
      <use xlink:href="#DejaVuSans-73" transform="translate(124.902344 0)"/>
      <use xlink:href="#DejaVuSans-73" transform="translate(177.001953 0)"/>
      <use xlink:href="#DejaVuSans-69" transform="translate(229.101562 0)"/>
      <use xlink:href="#DejaVuSans-61" transform="translate(256.884766 0)"/>
      <use xlink:href="#DejaVuSans-6e" transform="translate(318.164062 0)"/>
      <use xlink:href="#DejaVuSans-2c" transform="translate(381.542969 0)"/>
      <use xlink:href="#DejaVuSans-20" transform="translate(413.330078 0)"/>
      <use xlink:href="#DejaVuSans-6c" transform="translate(445.117188 0)"/>
      <use xlink:href="#DejaVuSans-61" transform="translate(472.900391 0)"/>
      <use xlink:href="#DejaVuSans-6d" transform="translate(534.179688 0)"/>
      <use xlink:href="#DejaVuSans-62" transform="translate(631.591797 0)"/>
      <use xlink:href="#DejaVuSans-64" transform="translate(695.068359 0)"/>
      <use xlink:href="#DejaVuSans-61" transform="translate(758.544922 0)"/>
      <use xlink:href="#DejaVuSans-5f" transform="translate(819.824219 0)"/>
      <use xlink:href="#DejaVuSans-30" transform="translate(869.824219 0)"/>
      <use xlink:href="#DejaVuSans-3d" transform="translate(933.447266 0)"/>
      <use xlink:href="#DejaVuSans-30" transform="translate(1017.236328 0)"/>
      <use xlink:href="#DejaVuSans-2e" transform="translate(1080.859375 0)"/>
      <use xlink:href="#DejaVuSans-30" transform="translate(1112.646484 0)"/>
      <use xlink:href="#DejaVuSans-31" transform="translate(1176.269531 0)"/>
     </g>
    </g>
    <g id="line2d_54">
     <path d="M 570.22875 73.25375 
L 578.22875 73.25375 
L 586.22875 73.25375 
" style="fill: none; stroke-dasharray: 7.4,3.2; stroke-dashoffset: 0; stroke: #17becf; stroke-width: 2"/>
    </g>
    <g id="text_29">
     <!-- hessian, lambda_0=0.1 -->
     <g transform="translate(592.62875 76.05375) scale(0.08 -0.08)">
      <use xlink:href="#DejaVuSans-68"/>
      <use xlink:href="#DejaVuSans-65" transform="translate(63.378906 0)"/>
      <use xlink:href="#DejaVuSans-73" transform="translate(124.902344 0)"/>
      <use xlink:href="#DejaVuSans-73" transform="translate(177.001953 0)"/>
      <use xlink:href="#DejaVuSans-69" transform="translate(229.101562 0)"/>
      <use xlink:href="#DejaVuSans-61" transform="translate(256.884766 0)"/>
      <use xlink:href="#DejaVuSans-6e" transform="translate(318.164062 0)"/>
      <use xlink:href="#DejaVuSans-2c" transform="translate(381.542969 0)"/>
      <use xlink:href="#DejaVuSans-20" transform="translate(413.330078 0)"/>
      <use xlink:href="#DejaVuSans-6c" transform="translate(445.117188 0)"/>
      <use xlink:href="#DejaVuSans-61" transform="translate(472.900391 0)"/>
      <use xlink:href="#DejaVuSans-6d" transform="translate(534.179688 0)"/>
      <use xlink:href="#DejaVuSans-62" transform="translate(631.591797 0)"/>
      <use xlink:href="#DejaVuSans-64" transform="translate(695.068359 0)"/>
      <use xlink:href="#DejaVuSans-61" transform="translate(758.544922 0)"/>
      <use xlink:href="#DejaVuSans-5f" transform="translate(819.824219 0)"/>
      <use xlink:href="#DejaVuSans-30" transform="translate(869.824219 0)"/>
      <use xlink:href="#DejaVuSans-3d" transform="translate(933.447266 0)"/>
      <use xlink:href="#DejaVuSans-30" transform="translate(1017.236328 0)"/>
      <use xlink:href="#DejaVuSans-2e" transform="translate(1080.859375 0)"/>
      <use xlink:href="#DejaVuSans-31" transform="translate(1112.646484 0)"/>
     </g>
    </g>
    <g id="line2d_55">
     <path d="M 570.22875 85.21875 
L 578.22875 85.21875 
L 586.22875 85.21875 
" style="fill: none; stroke-dasharray: 7.4,3.2; stroke-dashoffset: 0; stroke: #1f77b4; stroke-width: 2"/>
    </g>
    <g id="text_30">
     <!-- hessian, lambda_0=1 -->
     <g transform="translate(592.62875 88.01875) scale(0.08 -0.08)">
      <use xlink:href="#DejaVuSans-68"/>
      <use xlink:href="#DejaVuSans-65" transform="translate(63.378906 0)"/>
      <use xlink:href="#DejaVuSans-73" transform="translate(124.902344 0)"/>
      <use xlink:href="#DejaVuSans-73" transform="translate(177.001953 0)"/>
      <use xlink:href="#DejaVuSans-69" transform="translate(229.101562 0)"/>
      <use xlink:href="#DejaVuSans-61" transform="translate(256.884766 0)"/>
      <use xlink:href="#DejaVuSans-6e" transform="translate(318.164062 0)"/>
      <use xlink:href="#DejaVuSans-2c" transform="translate(381.542969 0)"/>
      <use xlink:href="#DejaVuSans-20" transform="translate(413.330078 0)"/>
      <use xlink:href="#DejaVuSans-6c" transform="translate(445.117188 0)"/>
      <use xlink:href="#DejaVuSans-61" transform="translate(472.900391 0)"/>
      <use xlink:href="#DejaVuSans-6d" transform="translate(534.179688 0)"/>
      <use xlink:href="#DejaVuSans-62" transform="translate(631.591797 0)"/>
      <use xlink:href="#DejaVuSans-64" transform="translate(695.068359 0)"/>
      <use xlink:href="#DejaVuSans-61" transform="translate(758.544922 0)"/>
      <use xlink:href="#DejaVuSans-5f" transform="translate(819.824219 0)"/>
      <use xlink:href="#DejaVuSans-30" transform="translate(869.824219 0)"/>
      <use xlink:href="#DejaVuSans-3d" transform="translate(933.447266 0)"/>
      <use xlink:href="#DejaVuSans-31" transform="translate(1017.236328 0)"/>
     </g>
    </g>
    <g id="line2d_56">
     <path d="M 570.22875 97.18375 
L 578.22875 97.18375 
L 586.22875 97.18375 
" style="fill: none; stroke-dasharray: 7.4,3.2; stroke-dashoffset: 0; stroke: #ff7f0e; stroke-width: 2"/>
    </g>
    <g id="text_31">
     <!-- hessian, lambda_0=10 -->
     <g transform="translate(592.62875 99.98375) scale(0.08 -0.08)">
      <use xlink:href="#DejaVuSans-68"/>
      <use xlink:href="#DejaVuSans-65" transform="translate(63.378906 0)"/>
      <use xlink:href="#DejaVuSans-73" transform="translate(124.902344 0)"/>
      <use xlink:href="#DejaVuSans-73" transform="translate(177.001953 0)"/>
      <use xlink:href="#DejaVuSans-69" transform="translate(229.101562 0)"/>
      <use xlink:href="#DejaVuSans-61" transform="translate(256.884766 0)"/>
      <use xlink:href="#DejaVuSans-6e" transform="translate(318.164062 0)"/>
      <use xlink:href="#DejaVuSans-2c" transform="translate(381.542969 0)"/>
      <use xlink:href="#DejaVuSans-20" transform="translate(413.330078 0)"/>
      <use xlink:href="#DejaVuSans-6c" transform="translate(445.117188 0)"/>
      <use xlink:href="#DejaVuSans-61" transform="translate(472.900391 0)"/>
      <use xlink:href="#DejaVuSans-6d" transform="translate(534.179688 0)"/>
      <use xlink:href="#DejaVuSans-62" transform="translate(631.591797 0)"/>
      <use xlink:href="#DejaVuSans-64" transform="translate(695.068359 0)"/>
      <use xlink:href="#DejaVuSans-61" transform="translate(758.544922 0)"/>
      <use xlink:href="#DejaVuSans-5f" transform="translate(819.824219 0)"/>
      <use xlink:href="#DejaVuSans-30" transform="translate(869.824219 0)"/>
      <use xlink:href="#DejaVuSans-3d" transform="translate(933.447266 0)"/>
      <use xlink:href="#DejaVuSans-31" transform="translate(1017.236328 0)"/>
      <use xlink:href="#DejaVuSans-30" transform="translate(1080.859375 0)"/>
     </g>
    </g>
   </g>
  </g>
 </g>
 <defs>
  <clipPath id="pd579d3d654">
   <rect x="66.62" y="26.88" width="642.58" height="291.16"/>
  </clipPath>
 </defs>
</svg>
