<?xml version="1.0" encoding="utf-8" standalone="no"?>
<!DOCTYPE svg PUBLIC "-//W3C//DTD SVG 1.1//EN"
  "http://www.w3.org/Graphics/SVG/1.1/DTD/svg11.dtd">
<svg xmlns:xlink="http://www.w3.org/1999/xlink" width="720pt" height="360pt" viewBox="0 0 720 360" xmlns="http://www.w3.org/2000/svg" version="1.1">
 <metadata>
  <rdf:RDF xmlns:dc="http://purl.org/dc/elements/1.1/" xmlns:cc="http://creativecommons.org/ns#" xmlns:rdf="http://www.w3.org/1999/02/22-rdf-syntax-ns#">
   <cc:Work>
    <dc:type rdf:resource="http://purl.org/dc/dcmitype/StillImage"/>
    <dc:date>2026-04-30T16:19:25.032324</dc:date>
    <dc:format>image/svg+xml</dc:format>
    <dc:creator>
     <cc:Agent>
      <dc:title>Matplotlib v3.10.9, https://matplotlib.org/</dc:title>
     </cc:Agent>
    </dc:creator>
   </cc:Work>
  </rdf:RDF>
 </metadata>
 <defs>
  <style type="text/css">*{stroke-linejoin: round; stroke-linecap: butt}</style>
 </defs>
 <g id="figure_1">
  <g id="patch_1">
   <path d="M 0 360 
L 720 360 
L 720 0 
L 0 0 
z
" style="fill: #ffffff"/>
  </g>
  <g id="axes_1">
   <g id="patch_2">
    <path d="M 60.32 318.04 
L 709.2 318.04 
L 709.2 26.88 
L 60.32 26.88 
z
" style="fill: #ffffff"/>
   </g>
   <g id="matplotlib.axis_1">
    <g id="xtick_1">
     <g id="line2d_1">
      <path d="M 83.856051 318.04 
L 83.856051 26.88 
" clip-path="url(#p2a372aa4c4)" style="fill: none; stroke: #b0b0b0; stroke-opacity: 0.25; stroke-width: 0.8; stroke-linecap: square"/>
     </g>
     <g id="line2d_2">
      <defs>
       <path id="m438a878114" d="M 0 0 
L 0 3.5 
" style="stroke: #000000; stroke-width: 0.8"/>
      </defs>
      <g>
       <use xlink:href="#m438a878114" x="83.856051" y="318.04" style="stroke: #000000; stroke-width: 0.8"/>
      </g>
     </g>
     <g id="text_1">
      <!-- 0 -->
      <g transform="translate(80.674801 332.638438) scale(0.1 -0.1)">
       <defs>
        <path id="DejaVuSans-30" d="M 2034 4250 
Q 1547 4250 1301 3770 
Q 1056 3291 1056 2328 
Q 1056 1369 1301 889 
Q 1547 409 2034 409 
Q 2525 409 2770 889 
Q 3016 1369 3016 2328 
Q 3016 3291 2770 3770 
Q 2525 4250 2034 4250 
z
M 2034 4750 
Q 2819 4750 3233 4129 
Q 3647 3509 3647 2328 
Q 3647 1150 3233 529 
Q 2819 -91 2034 -91 
Q 1250 -91 836 529 
Q 422 1150 422 2328 
Q 422 3509 836 4129 
Q 1250 4750 2034 4750 
z
" transform="scale(0.015625)"/>
       </defs>
       <use xlink:href="#DejaVuSans-30"/>
      </g>
     </g>
    </g>
    <g id="xtick_2">
     <g id="line2d_3">
      <path d="M 203.025932 318.04 
L 203.025932 26.88 
" clip-path="url(#p2a372aa4c4)" style="fill: none; stroke: #b0b0b0; stroke-opacity: 0.25; stroke-width: 0.8; stroke-linecap: square"/>
     </g>
     <g id="line2d_4">
      <g>
       <use xlink:href="#m438a878114" x="203.025932" y="318.04" style="stroke: #000000; stroke-width: 0.8"/>
      </g>
     </g>
     <g id="text_2">
      <!-- 20 -->
      <g transform="translate(196.663432 332.638438) scale(0.1 -0.1)">
       <defs>
        <path id="DejaVuSans-32" d="M 1228 531 
L 3431 531 
L 3431 0 
L 469 0 
L 469 531 
Q 828 903 1448 1529 
Q 2069 2156 2228 2338 
Q 2531 2678 2651 2914 
Q 2772 3150 2772 3378 
Q 2772 3750 2511 3984 
Q 2250 4219 1831 4219 
Q 1534 4219 1204 4116 
Q 875 4013 500 3803 
L 500 4441 
Q 881 4594 1212 4672 
Q 1544 4750 1819 4750 
Q 2544 4750 2975 4387 
Q 3406 4025 3406 3419 
Q 3406 3131 3298 2873 
Q 3191 2616 2906 2266 
Q 2828 2175 2409 1742 
Q 1991 1309 1228 531 
z
" transform="scale(0.015625)"/>
       </defs>
       <use xlink:href="#DejaVuSans-32"/>
       <use xlink:href="#DejaVuSans-30" transform="translate(63.623047 0)"/>
      </g>
     </g>
    </g>
    <g id="xtick_3">
     <g id="line2d_5">
      <path d="M 322.195813 318.04 
L 322.195813 26.88 
" clip-path="url(#p2a372aa4c4)" style="fill: none; stroke: #b0b0b0; stroke-opacity: 0.25; stroke-width: 0.8; stroke-linecap: square"/>
     </g>
     <g id="line2d_6">
      <g>
       <use xlink:href="#m438a878114" x="322.195813" y="318.04" style="stroke: #000000; stroke-width: 0.8"/>
      </g>
     </g>
     <g id="text_3">
      <!-- 40 -->
      <g transform="translate(315.833313 332.638438) scale(0.1 -0.1)">
       <defs>
        <path id="DejaVuSans-34" d="M 2419 4116 
L 825 1625 
L 2419 1625 
L 2419 4116 
z
M 2253 4666 
L 3047 4666 
L 3047 1625 
L 3713 1625 
L 3713 1100 
L 3047 1100 
L 3047 0 
L 2419 0 
L 2419 1100 
L 313 1100 
L 313 1709 
L 2253 4666 
z
" transform="scale(0.015625)"/>
       </defs>
       <use xlink:href="#DejaVuSans-34"/>
       <use xlink:href="#DejaVuSans-30" transform="translate(63.623047 0)"/>
      </g>
     </g>
    </g>
    <g id="xtick_4">
     <g id="line2d_7">
      <path d="M 441.365693 318.04 
L 441.365693 26.88 
" clip-path="url(#p2a372aa4c4)" style="fill: none; stroke: #b0b0b0; stroke-opacity: 0.25; stroke-width: 0.8; stroke-linecap: square"/>
     </g>
     <g id="line2d_8">
      <g>
       <use xlink:href="#m438a878114" x="441.365693" y="318.04" style="stroke: #000000; stroke-width: 0.8"/>
      </g>
     </g>
     <g id="text_4">
      <!-- 60 -->
      <g transform="translate(435.003193 332.638438) scale(0.1 -0.1)">
       <defs>
        <path id="DejaVuSans-36" d="M 2113 2584 
Q 1688 2584 1439 2293 
Q 1191 2003 1191 1497 
Q 1191 994 1439 701 
Q 1688 409 2113 409 
Q 2538 409 2786 701 
Q 3034 994 3034 1497 
Q 3034 2003 2786 2293 
Q 2538 2584 2113 2584 
z
M 3366 4563 
L 3366 3988 
Q 3128 4100 2886 4159 
Q 2644 4219 2406 4219 
Q 1781 4219 1451 3797 
Q 1122 3375 1075 2522 
Q 1259 2794 1537 2939 
Q 1816 3084 2150 3084 
Q 2853 3084 3261 2657 
Q 3669 2231 3669 1497 
Q 3669 778 3244 343 
Q 2819 -91 2113 -91 
Q 1303 -91 875 529 
Q 447 1150 447 2328 
Q 447 3434 972 4092 
Q 1497 4750 2381 4750 
Q 2619 4750 2861 4703 
Q 3103 4656 3366 4563 
z
" transform="scale(0.015625)"/>
       </defs>
       <use xlink:href="#DejaVuSans-36"/>
       <use xlink:href="#DejaVuSans-30" transform="translate(63.623047 0)"/>
      </g>
     </g>
    </g>
    <g id="xtick_5">
     <g id="line2d_9">
      <path d="M 560.535574 318.04 
L 560.535574 26.88 
" clip-path="url(#p2a372aa4c4)" style="fill: none; stroke: #b0b0b0; stroke-opacity: 0.25; stroke-width: 0.8; stroke-linecap: square"/>
     </g>
     <g id="line2d_10">
      <g>
       <use xlink:href="#m438a878114" x="560.535574" y="318.04" style="stroke: #000000; stroke-width: 0.8"/>
      </g>
     </g>
     <g id="text_5">
      <!-- 80 -->
      <g transform="translate(554.173074 332.638438) scale(0.1 -0.1)">
       <defs>
        <path id="DejaVuSans-38" d="M 2034 2216 
Q 1584 2216 1326 1975 
Q 1069 1734 1069 1313 
Q 1069 891 1326 650 
Q 1584 409 2034 409 
Q 2484 409 2743 651 
Q 3003 894 3003 1313 
Q 3003 1734 2745 1975 
Q 2488 2216 2034 2216 
z
M 1403 2484 
Q 997 2584 770 2862 
Q 544 3141 544 3541 
Q 544 4100 942 4425 
Q 1341 4750 2034 4750 
Q 2731 4750 3128 4425 
Q 3525 4100 3525 3541 
Q 3525 3141 3298 2862 
Q 3072 2584 2669 2484 
Q 3125 2378 3379 2068 
Q 3634 1759 3634 1313 
Q 3634 634 3220 271 
Q 2806 -91 2034 -91 
Q 1263 -91 848 271 
Q 434 634 434 1313 
Q 434 1759 690 2068 
Q 947 2378 1403 2484 
z
M 1172 3481 
Q 1172 3119 1398 2916 
Q 1625 2713 2034 2713 
Q 2441 2713 2670 2916 
Q 2900 3119 2900 3481 
Q 2900 3844 2670 4047 
Q 2441 4250 2034 4250 
Q 1625 4250 1398 4047 
Q 1172 3844 1172 3481 
z
" transform="scale(0.015625)"/>
       </defs>
       <use xlink:href="#DejaVuSans-38"/>
       <use xlink:href="#DejaVuSans-30" transform="translate(63.623047 0)"/>
      </g>
     </g>
    </g>
    <g id="xtick_6">
     <g id="line2d_11">
      <path d="M 679.705455 318.04 
L 679.705455 26.88 
" clip-path="url(#p2a372aa4c4)" style="fill: none; stroke: #b0b0b0; stroke-opacity: 0.25; stroke-width: 0.8; stroke-linecap: square"/>
     </g>
     <g id="line2d_12">
      <g>
       <use xlink:href="#m438a878114" x="679.705455" y="318.04" style="stroke: #000000; stroke-width: 0.8"/>
      </g>
     </g>
     <g id="text_6">
      <!-- 100 -->
      <g transform="translate(670.161705 332.638438) scale(0.1 -0.1)">
       <defs>
        <path id="DejaVuSans-31" d="M 794 531 
L 1825 531 
L 1825 4091 
L 703 3866 
L 703 4441 
L 1819 4666 
L 2450 4666 
L 2450 531 
L 3481 531 
L 3481 0 
L 794 0 
L 794 531 
z
" transform="scale(0.015625)"/>
       </defs>
       <use xlink:href="#DejaVuSans-31"/>
       <use xlink:href="#DejaVuSans-30" transform="translate(63.623047 0)"/>
       <use xlink:href="#DejaVuSans-30" transform="translate(127.246094 0)"/>
      </g>
     </g>
    </g>
    <g id="text_7">
     <!-- Iteration -->
     <g transform="translate(363.551406 346.316563) scale(0.1 -0.1)">
      <defs>
       <path id="DejaVuSans-49" d="M 628 4666 
L 1259 4666 
L 1259 0 
L 628 0 
L 628 4666 
z
" transform="scale(0.015625)"/>
       <path id="DejaVuSans-74" d="M 1172 4494 
L 1172 3500 
L 2356 3500 
L 2356 3053 
L 1172 3053 
L 1172 1153 
Q 1172 725 1289 603 
Q 1406 481 1766 481 
L 2356 481 
L 2356 0 
L 1766 0 
Q 1100 0 847 248 
Q 594 497 594 1153 
L 594 3053 
L 172 3053 
L 172 3500 
L 594 3500 
L 594 4494 
L 1172 4494 
z
" transform="scale(0.015625)"/>
       <path id="DejaVuSans-65" d="M 3597 1894 
L 3597 1613 
L 953 1613 
Q 991 1019 1311 708 
Q 1631 397 2203 397 
Q 2534 397 2845 478 
Q 3156 559 3463 722 
L 3463 178 
Q 3153 47 2828 -22 
Q 2503 -91 2169 -91 
Q 1331 -91 842 396 
Q 353 884 353 1716 
Q 353 2575 817 3079 
Q 1281 3584 2069 3584 
Q 2775 3584 3186 3129 
Q 3597 2675 3597 1894 
z
M 3022 2063 
Q 3016 2534 2758 2815 
Q 2500 3097 2075 3097 
Q 1594 3097 1305 2825 
Q 1016 2553 972 2059 
L 3022 2063 
z
" transform="scale(0.015625)"/>
       <path id="DejaVuSans-72" d="M 2631 2963 
Q 2534 3019 2420 3045 
Q 2306 3072 2169 3072 
Q 1681 3072 1420 2755 
Q 1159 2438 1159 1844 
L 1159 0 
L 581 0 
L 581 3500 
L 1159 3500 
L 1159 2956 
Q 1341 3275 1631 3429 
Q 1922 3584 2338 3584 
Q 2397 3584 2469 3576 
Q 2541 3569 2628 3553 
L 2631 2963 
z
" transform="scale(0.015625)"/>
       <path id="DejaVuSans-61" d="M 2194 1759 
Q 1497 1759 1228 1600 
Q 959 1441 959 1056 
Q 959 750 1161 570 
Q 1363 391 1709 391 
Q 2188 391 2477 730 
Q 2766 1069 2766 1631 
L 2766 1759 
L 2194 1759 
z
M 3341 1997 
L 3341 0 
L 2766 0 
L 2766 531 
Q 2569 213 2275 61 
Q 1981 -91 1556 -91 
Q 1019 -91 701 211 
Q 384 513 384 1019 
Q 384 1609 779 1909 
Q 1175 2209 1959 2209 
L 2766 2209 
L 2766 2266 
Q 2766 2663 2505 2880 
Q 2244 3097 1772 3097 
Q 1472 3097 1187 3025 
Q 903 2953 641 2809 
L 641 3341 
Q 956 3463 1253 3523 
Q 1550 3584 1831 3584 
Q 2591 3584 2966 3190 
Q 3341 2797 3341 1997 
z
" transform="scale(0.015625)"/>
       <path id="DejaVuSans-69" d="M 603 3500 
L 1178 3500 
L 1178 0 
L 603 0 
L 603 3500 
z
M 603 4863 
L 1178 4863 
L 1178 4134 
L 603 4134 
L 603 4863 
z
" transform="scale(0.015625)"/>
       <path id="DejaVuSans-6f" d="M 1959 3097 
Q 1497 3097 1228 2736 
Q 959 2375 959 1747 
Q 959 1119 1226 758 
Q 1494 397 1959 397 
Q 2419 397 2687 759 
Q 2956 1122 2956 1747 
Q 2956 2369 2687 2733 
Q 2419 3097 1959 3097 
z
M 1959 3584 
Q 2709 3584 3137 3096 
Q 3566 2609 3566 1747 
Q 3566 888 3137 398 
Q 2709 -91 1959 -91 
Q 1206 -91 779 398 
Q 353 888 353 1747 
Q 353 2609 779 3096 
Q 1206 3584 1959 3584 
z
" transform="scale(0.015625)"/>
       <path id="DejaVuSans-6e" d="M 3513 2113 
L 3513 0 
L 2938 0 
L 2938 2094 
Q 2938 2591 2744 2837 
Q 2550 3084 2163 3084 
Q 1697 3084 1428 2787 
Q 1159 2491 1159 1978 
L 1159 0 
L 581 0 
L 581 3500 
L 1159 3500 
L 1159 2956 
Q 1366 3272 1645 3428 
Q 1925 3584 2291 3584 
Q 2894 3584 3203 3211 
Q 3513 2838 3513 2113 
z
" transform="scale(0.015625)"/>
      </defs>
      <use xlink:href="#DejaVuSans-49"/>
      <use xlink:href="#DejaVuSans-74" transform="translate(29.492188 0)"/>
      <use xlink:href="#DejaVuSans-65" transform="translate(68.701172 0)"/>
      <use xlink:href="#DejaVuSans-72" transform="translate(130.224609 0)"/>
      <use xlink:href="#DejaVuSans-61" transform="translate(171.337891 0)"/>
      <use xlink:href="#DejaVuSans-74" transform="translate(232.617188 0)"/>
      <use xlink:href="#DejaVuSans-69" transform="translate(271.826172 0)"/>
      <use xlink:href="#DejaVuSans-6f" transform="translate(299.609375 0)"/>
      <use xlink:href="#DejaVuSans-6e" transform="translate(360.791016 0)"/>
     </g>
    </g>
   </g>
   <g id="matplotlib.axis_2">
    <g id="ytick_1">
     <g id="line2d_13">
      <path d="M 60.32 315.392468 
L 709.2 315.392468 
" clip-path="url(#p2a372aa4c4)" style="fill: none; stroke: #b0b0b0; stroke-opacity: 0.25; stroke-width: 0.8; stroke-linecap: square"/>
     </g>
     <g id="line2d_14">
      <defs>
       <path id="m9e383917b1" d="M 0 0 
L -3.5 0 
" style="stroke: #000000; stroke-width: 0.8"/>
      </defs>
      <g>
       <use xlink:href="#m9e383917b1" x="60.32" y="315.392468" style="stroke: #000000; stroke-width: 0.8"/>
      </g>
     </g>
     <g id="text_8">
      <!-- 0.000 -->
      <g transform="translate(24.691875 319.191687) scale(0.1 -0.1)">
       <defs>
        <path id="DejaVuSans-2e" d="M 684 794 
L 1344 794 
L 1344 0 
L 684 0 
L 684 794 
z
" transform="scale(0.015625)"/>
       </defs>
       <use xlink:href="#DejaVuSans-30"/>
       <use xlink:href="#DejaVuSans-2e" transform="translate(63.623047 0)"/>
       <use xlink:href="#DejaVuSans-30" transform="translate(95.410156 0)"/>
       <use xlink:href="#DejaVuSans-30" transform="translate(159.033203 0)"/>
       <use xlink:href="#DejaVuSans-30" transform="translate(222.65625 0)"/>
      </g>
     </g>
    </g>
    <g id="ytick_2">
     <g id="line2d_15">
      <path d="M 60.32 264.574802 
L 709.2 264.574802 
" clip-path="url(#p2a372aa4c4)" style="fill: none; stroke: #b0b0b0; stroke-opacity: 0.25; stroke-width: 0.8; stroke-linecap: square"/>
     </g>
     <g id="line2d_16">
      <g>
       <use xlink:href="#m9e383917b1" x="60.32" y="264.574802" style="stroke: #000000; stroke-width: 0.8"/>
      </g>
     </g>
     <g id="text_9">
      <!-- 0.002 -->
      <g transform="translate(24.691875 268.37402) scale(0.1 -0.1)">
       <use xlink:href="#DejaVuSans-30"/>
       <use xlink:href="#DejaVuSans-2e" transform="translate(63.623047 0)"/>
       <use xlink:href="#DejaVuSans-30" transform="translate(95.410156 0)"/>
       <use xlink:href="#DejaVuSans-30" transform="translate(159.033203 0)"/>
       <use xlink:href="#DejaVuSans-32" transform="translate(222.65625 0)"/>
      </g>
     </g>
    </g>
    <g id="ytick_3">
     <g id="line2d_17">
      <path d="M 60.32 213.757135 
L 709.2 213.757135 
" clip-path="url(#p2a372aa4c4)" style="fill: none; stroke: #b0b0b0; stroke-opacity: 0.25; stroke-width: 0.8; stroke-linecap: square"/>
     </g>
     <g id="line2d_18">
      <g>
       <use xlink:href="#m9e383917b1" x="60.32" y="213.757135" style="stroke: #000000; stroke-width: 0.8"/>
      </g>
     </g>
     <g id="text_10">
      <!-- 0.004 -->
      <g transform="translate(24.691875 217.556354) scale(0.1 -0.1)">
       <use xlink:href="#DejaVuSans-30"/>
       <use xlink:href="#DejaVuSans-2e" transform="translate(63.623047 0)"/>
       <use xlink:href="#DejaVuSans-30" transform="translate(95.410156 0)"/>
       <use xlink:href="#DejaVuSans-30" transform="translate(159.033203 0)"/>
       <use xlink:href="#DejaVuSans-34" transform="translate(222.65625 0)"/>
      </g>
     </g>
    </g>
    <g id="ytick_4">
     <g id="line2d_19">
      <path d="M 60.32 162.939468 
L 709.2 162.939468 
" clip-path="url(#p2a372aa4c4)" style="fill: none; stroke: #b0b0b0; stroke-opacity: 0.25; stroke-width: 0.8; stroke-linecap: square"/>
     </g>
     <g id="line2d_20">
      <g>
       <use xlink:href="#m9e383917b1" x="60.32" y="162.939468" style="stroke: #000000; stroke-width: 0.8"/>
      </g>
     </g>
     <g id="text_11">
      <!-- 0.006 -->
      <g transform="translate(24.691875 166.738687) scale(0.1 -0.1)">
       <use xlink:href="#DejaVuSans-30"/>
       <use xlink:href="#DejaVuSans-2e" transform="translate(63.623047 0)"/>
       <use xlink:href="#DejaVuSans-30" transform="translate(95.410156 0)"/>
       <use xlink:href="#DejaVuSans-30" transform="translate(159.033203 0)"/>
       <use xlink:href="#DejaVuSans-36" transform="translate(222.65625 0)"/>
      </g>
     </g>
    </g>
    <g id="ytick_5">
     <g id="line2d_21">
      <path d="M 60.32 112.121802 
L 709.2 112.121802 
" clip-path="url(#p2a372aa4c4)" style="fill: none; stroke: #b0b0b0; stroke-opacity: 0.25; stroke-width: 0.8; stroke-linecap: square"/>
     </g>
     <g id="line2d_22">
      <g>
       <use xlink:href="#m9e383917b1" x="60.32" y="112.121802" style="stroke: #000000; stroke-width: 0.8"/>
      </g>
     </g>
     <g id="text_12">
      <!-- 0.008 -->
      <g transform="translate(24.691875 115.92102) scale(0.1 -0.1)">
       <use xlink:href="#DejaVuSans-30"/>
       <use xlink:href="#DejaVuSans-2e" transform="translate(63.623047 0)"/>
       <use xlink:href="#DejaVuSans-30" transform="translate(95.410156 0)"/>
       <use xlink:href="#DejaVuSans-30" transform="translate(159.033203 0)"/>
       <use xlink:href="#DejaVuSans-38" transform="translate(222.65625 0)"/>
      </g>
     </g>
    </g>
    <g id="ytick_6">
     <g id="line2d_23">
      <path d="M 60.32 61.304135 
L 709.2 61.304135 
" clip-path="url(#p2a372aa4c4)" style="fill: none; stroke: #b0b0b0; stroke-opacity: 0.25; stroke-width: 0.8; stroke-linecap: square"/>
     </g>
     <g id="line2d_24">
      <g>
       <use xlink:href="#m9e383917b1" x="60.32" y="61.304135" style="stroke: #000000; stroke-width: 0.8"/>
      </g>
     </g>
     <g id="text_13">
      <!-- 0.010 -->
      <g transform="translate(24.691875 65.103354) scale(0.1 -0.1)">
       <use xlink:href="#DejaVuSans-30"/>
       <use xlink:href="#DejaVuSans-2e" transform="translate(63.623047 0)"/>
       <use xlink:href="#DejaVuSans-30" transform="translate(95.410156 0)"/>
       <use xlink:href="#DejaVuSans-31" transform="translate(159.033203 0)"/>
       <use xlink:href="#DejaVuSans-30" transform="translate(222.65625 0)"/>
      </g>
     </g>
    </g>
    <g id="text_14">
     <!-- Distortion -->
     <g transform="translate(18.612188 196.956094) rotate(-90) scale(0.1 -0.1)">
      <defs>
       <path id="DejaVuSans-44" d="M 1259 4147 
L 1259 519 
L 2022 519 
Q 2988 519 3436 956 
Q 3884 1394 3884 2338 
Q 3884 3275 3436 3711 
Q 2988 4147 2022 4147 
L 1259 4147 
z
M 628 4666 
L 1925 4666 
Q 3281 4666 3915 4102 
Q 4550 3538 4550 2338 
Q 4550 1131 3912 565 
Q 3275 0 1925 0 
L 628 0 
L 628 4666 
z
" transform="scale(0.015625)"/>
       <path id="DejaVuSans-73" d="M 2834 3397 
L 2834 2853 
Q 2591 2978 2328 3040 
Q 2066 3103 1784 3103 
Q 1356 3103 1142 2972 
Q 928 2841 928 2578 
Q 928 2378 1081 2264 
Q 1234 2150 1697 2047 
L 1894 2003 
Q 2506 1872 2764 1633 
Q 3022 1394 3022 966 
Q 3022 478 2636 193 
Q 2250 -91 1575 -91 
Q 1294 -91 989 -36 
Q 684 19 347 128 
L 347 722 
Q 666 556 975 473 
Q 1284 391 1588 391 
Q 1994 391 2212 530 
Q 2431 669 2431 922 
Q 2431 1156 2273 1281 
Q 2116 1406 1581 1522 
L 1381 1569 
Q 847 1681 609 1914 
Q 372 2147 372 2553 
Q 372 3047 722 3315 
Q 1072 3584 1716 3584 
Q 2034 3584 2315 3537 
Q 2597 3491 2834 3397 
z
" transform="scale(0.015625)"/>
      </defs>
      <use xlink:href="#DejaVuSans-44"/>
      <use xlink:href="#DejaVuSans-69" transform="translate(77.001953 0)"/>
      <use xlink:href="#DejaVuSans-73" transform="translate(104.785156 0)"/>
      <use xlink:href="#DejaVuSans-74" transform="translate(156.884766 0)"/>
      <use xlink:href="#DejaVuSans-6f" transform="translate(196.09375 0)"/>
      <use xlink:href="#DejaVuSans-72" transform="translate(257.275391 0)"/>
      <use xlink:href="#DejaVuSans-74" transform="translate(298.388672 0)"/>
      <use xlink:href="#DejaVuSans-69" transform="translate(337.597656 0)"/>
      <use xlink:href="#DejaVuSans-6f" transform="translate(365.380859 0)"/>
      <use xlink:href="#DejaVuSans-6e" transform="translate(426.5625 0)"/>
     </g>
    </g>
   </g>
   <g id="line2d_25">
    <path d="M 89.814545 118.243653 
L 95.773039 216.674063 
L 101.731534 250.678816 
L 107.690028 268.016941 
L 113.648522 278.273108 
L 119.607016 284.883688 
L 125.56551 289.393798 
L 131.524004 292.601608 
L 137.482498 294.958278 
L 143.440992 296.735214 
L 149.399486 298.103658 
L 155.35798 299.175996 
L 161.316474 300.028536 
L 167.274968 300.714639 
L 173.233462 301.272598 
L 179.191956 301.730509 
L 185.15045 302.10939 
L 191.108944 302.425226 
L 197.067438 302.690342 
L 203.025932 302.914358 
L 208.984426 303.104855 
L 214.94292 303.267859 
L 220.901414 303.408196 
L 226.859908 303.529753 
L 232.818402 303.635677 
L 238.776896 303.728529 
L 244.73539 303.810398 
L 250.693884 303.883 
L 256.652378 303.947745 
L 262.610872 304.005795 
L 268.569366 304.058115 
L 274.52786 304.105505 
L 280.486354 304.148629 
L 286.444848 304.188045 
L 292.403343 304.224219 
L 298.361837 304.257545 
L 304.320331 304.288352 
L 310.278825 304.316923 
L 316.237319 304.343496 
L 322.195813 304.368276 
L 328.154307 304.391437 
L 334.112801 304.413132 
L 340.071295 304.433491 
L 346.029789 304.452628 
L 351.988283 304.470644 
L 357.946777 304.487626 
L 363.905271 304.503653 
L 369.863765 304.518794 
L 375.822259 304.53311 
L 381.780753 304.546657 
L 387.739247 304.559486 
L 393.697741 304.571642 
L 399.656235 304.583166 
L 405.614729 304.594096 
L 411.573223 304.604468 
L 417.531717 304.614313 
L 423.490211 304.623661 
L 429.448705 304.632539 
L 435.407199 304.640974 
L 441.365693 304.648989 
L 447.324187 304.656606 
L 453.282681 304.663846 
L 459.241175 304.670729 
L 465.199669 304.677274 
L 471.158163 304.683497 
L 477.116657 304.689415 
L 483.075152 304.695043 
L 489.033646 304.700396 
L 494.99214 304.705489 
L 500.950634 304.710333 
L 506.909128 304.714941 
L 512.867622 304.719324 
L 518.826116 304.723495 
L 524.78461 304.727463 
L 530.743104 304.731238 
L 536.701598 304.73483 
L 542.660092 304.738248 
L 548.618586 304.7415 
L 554.57708 304.744594 
L 560.535574 304.747538 
L 566.494068 304.75034 
L 572.452562 304.753006 
L 578.411056 304.755543 
L 584.36955 304.757957 
L 590.328044 304.760254 
L 596.286538 304.76244 
L 602.245032 304.76452 
L 608.203526 304.7665 
L 614.16202 304.768384 
L 620.120514 304.770176 
L 626.079008 304.771882 
L 632.037502 304.773505 
L 637.995996 304.77505 
L 643.95449 304.77652 
L 649.912984 304.777919 
L 655.871478 304.779251 
L 661.829972 304.780518 
L 667.788466 304.781723 
L 673.746961 304.782871 
L 679.705455 304.783963 
" clip-path="url(#p2a372aa4c4)" style="fill: none; stroke: #1f77b4; stroke-width: 2; stroke-linecap: square"/>
   </g>
   <g id="line2d_26">
    <path d="M 89.814545 40.114545 
L 95.773039 55.793313 
L 101.731534 70.245364 
L 107.690028 83.58289 
L 113.648522 95.906267 
L 119.607016 107.305473 
L 125.56551 117.861322 
L 131.524004 127.64652 
L 137.482498 136.726596 
L 143.440992 145.160708 
L 149.399486 153.002345 
L 155.35798 160.299946 
L 161.316474 167.09744 
L 167.274968 173.434722 
L 173.233462 179.348073 
L 179.191956 184.870531 
L 185.15045 190.032218 
L 191.108944 194.860631 
L 197.067438 199.380898 
L 203.025932 203.616013 
L 208.984426 207.587032 
L 214.94292 211.313266 
L 220.901414 214.812433 
L 226.859908 218.100816 
L 232.818402 221.193385 
L 238.776896 224.103918 
L 244.73539 226.845109 
L 250.693884 229.42866 
L 256.652378 231.865369 
L 262.610872 234.165208 
L 268.569366 236.337392 
L 274.52786 238.390444 
L 280.486354 240.332253 
L 286.444848 242.170122 
L 292.403343 243.910824 
L 298.361837 245.560636 
L 304.320331 247.125386 
L 310.278825 248.610482 
L 316.237319 250.020952 
L 322.195813 251.361468 
L 328.154307 252.636377 
L 334.112801 253.849724 
L 340.071295 255.005275 
L 346.029789 256.106538 
L 351.988283 257.156786 
L 357.946777 258.159068 
L 363.905271 259.116229 
L 369.863765 260.030928 
L 375.822259 260.905644 
L 381.780753 261.742696 
L 387.739247 262.54425 
L 393.697741 263.312333 
L 399.656235 264.048839 
L 405.614729 264.755543 
L 411.573223 265.434106 
L 417.531717 266.086083 
L 423.490211 266.712932 
L 429.448705 267.316019 
L 435.407199 267.896626 
L 441.365693 268.455954 
L 447.324187 268.995132 
L 453.282681 269.515219 
L 459.241175 270.017208 
L 465.199669 270.502035 
L 471.158163 270.970576 
L 477.116657 271.423657 
L 483.075152 271.862055 
L 489.033646 272.286499 
L 494.99214 272.697677 
L 500.950634 273.096235 
L 506.909128 273.482782 
L 512.867622 273.857893 
L 518.826116 274.222108 
L 524.78461 274.575936 
L 530.743104 274.919858 
L 536.701598 275.254327 
L 542.660092 275.579772 
L 548.618586 275.896595 
L 554.57708 276.205178 
L 560.535574 276.505882 
L 566.494068 276.799046 
L 572.452562 277.084992 
L 578.411056 277.364023 
L 584.36955 277.636428 
L 590.328044 277.902479 
L 596.286538 278.162432 
L 602.245032 278.416533 
L 608.203526 278.665011 
L 614.16202 278.908086 
L 620.120514 279.145965 
L 626.079008 279.378844 
L 632.037502 279.606911 
L 637.995996 279.830341 
L 643.95449 280.049304 
L 649.912984 280.263959 
L 655.871478 280.474457 
L 661.829972 280.680942 
L 667.788466 280.883552 
L 673.746961 281.082417 
L 679.705455 281.27766 
" clip-path="url(#p2a372aa4c4)" style="fill: none; stroke: #ff7f0e; stroke-width: 2; stroke-linecap: square"/>
   </g>
   <g id="line2d_27">
    <path d="M 89.814545 118.243653 
L 95.773039 216.674063 
L 101.731534 250.678816 
L 107.690028 268.016941 
L 113.648522 278.273108 
L 119.607016 284.883688 
L 125.56551 289.393798 
L 131.524004 292.601608 
L 137.482498 294.958278 
L 143.440992 296.735214 
L 149.399486 298.103658 
L 155.35798 299.175996 
L 161.316474 300.028536 
L 167.274968 300.714639 
L 173.233462 301.272598 
L 179.191956 301.730509 
L 185.15045 302.10939 
L 191.108944 302.425226 
L 197.067438 302.690342 
L 203.025932 302.914358 
L 208.984426 304.266503 
L 214.94292 304.657896 
L 220.901414 304.766455 
L 226.859908 304.795394 
L 232.818402 304.802897 
L 238.776896 304.80481 
L 244.73539 304.805293 
L 250.693884 304.805414 
L 256.652378 304.805444 
L 262.610872 304.805452 
L 268.569366 304.805454 
L 274.52786 304.805454 
L 280.486354 304.805455 
L 286.444848 304.805455 
L 292.403343 304.805455 
L 298.361837 304.805455 
L 304.320331 304.805455 
L 310.278825 304.805455 
L 316.237319 304.805455 
L 322.195813 304.805455 
L 328.154307 304.805455 
L 334.112801 304.805455 
L 340.071295 304.805455 
L 346.029789 304.805455 
L 351.988283 304.805455 
L 357.946777 304.805455 
L 363.905271 304.805455 
L 369.863765 304.805455 
L 375.822259 304.805455 
L 381.780753 304.805455 
L 387.739247 304.805455 
L 393.697741 304.805455 
L 399.656235 304.805455 
L 405.614729 304.805455 
L 411.573223 304.805455 
L 417.531717 304.805455 
L 423.490211 304.805455 
L 429.448705 304.805455 
L 435.407199 304.805455 
L 441.365693 304.805455 
L 447.324187 304.805455 
L 453.282681 304.805455 
L 459.241175 304.805455 
L 465.199669 304.805455 
L 471.158163 304.805455 
L 477.116657 304.805455 
L 483.075152 304.805455 
L 489.033646 304.805455 
L 494.99214 304.805455 
L 500.950634 304.805455 
L 506.909128 304.805455 
L 512.867622 304.805455 
L 518.826116 304.805455 
L 524.78461 304.805455 
L 530.743104 304.805455 
L 536.701598 304.805455 
L 542.660092 304.805455 
L 548.618586 304.805455 
L 554.57708 304.805455 
L 560.535574 304.805455 
L 566.494068 304.805455 
L 572.452562 304.805455 
L 578.411056 304.805455 
L 584.36955 304.805455 
L 590.328044 304.805455 
L 596.286538 304.805455 
L 602.245032 304.805455 
L 608.203526 304.805455 
L 614.16202 304.805455 
L 620.120514 304.805455 
L 626.079008 304.805455 
L 632.037502 304.805455 
L 637.995996 304.805455 
L 643.95449 304.805455 
L 649.912984 304.805455 
L 655.871478 304.805455 
L 661.829972 304.805455 
L 667.788466 304.805455 
L 673.746961 304.805455 
L 679.705455 304.805455 
" clip-path="url(#p2a372aa4c4)" style="fill: none; stroke: #2ca02c; stroke-width: 2; stroke-linecap: square"/>
   </g>
   <g id="line2d_28">
    <path d="M 89.814545 118.243653 
L 95.773039 216.674063 
L 101.731534 250.678816 
L 107.690028 268.016941 
L 113.648522 278.273108 
L 119.607016 279.446215 
L 125.56551 285.472113 
L 131.524004 296.16422 
L 137.482498 301.858456 
L 143.440992 303.873537 
L 149.399486 304.529336 
L 155.35798 304.728177 
L 161.316474 304.784767 
L 167.274968 304.80008 
L 173.233462 304.804083 
L 179.191956 304.805108 
L 185.15045 304.805367 
L 191.108944 304.805433 
L 197.067438 304.805449 
L 203.025932 304.805453 
L 208.984426 304.805454 
L 214.94292 304.805454 
L 220.901414 304.805455 
L 226.859908 304.805455 
L 232.818402 304.805455 
L 238.776896 304.805455 
L 244.73539 304.805455 
L 250.693884 304.805455 
L 256.652378 304.805455 
L 262.610872 304.805455 
L 268.569366 304.805455 
L 274.52786 304.805455 
L 280.486354 304.805455 
L 286.444848 304.805455 
L 292.403343 304.805455 
L 298.361837 304.805455 
L 304.320331 304.805455 
L 310.278825 304.805455 
L 316.237319 304.805455 
L 322.195813 304.805455 
L 328.154307 304.805455 
L 334.112801 304.805455 
L 340.071295 304.805455 
L 346.029789 304.805455 
L 351.988283 304.805455 
L 357.946777 304.805455 
L 363.905271 304.805455 
L 369.863765 304.805455 
L 375.822259 304.805455 
L 381.780753 304.805455 
L 387.739247 304.805455 
L 393.697741 304.805455 
L 399.656235 304.805455 
L 405.614729 304.805455 
L 411.573223 304.805455 
L 417.531717 304.805455 
L 423.490211 304.805455 
L 429.448705 304.805455 
L 435.407199 304.805455 
L 441.365693 304.805455 
L 447.324187 304.805455 
L 453.282681 304.805455 
L 459.241175 304.805455 
L 465.199669 304.805455 
L 471.158163 304.805455 
L 477.116657 304.805455 
L 483.075152 304.805455 
L 489.033646 304.805455 
L 494.99214 304.805455 
L 500.950634 304.805455 
L 506.909128 304.805455 
L 512.867622 304.805455 
L 518.826116 304.805455 
L 524.78461 304.805455 
L 530.743104 304.805455 
L 536.701598 304.805455 
L 542.660092 304.805455 
L 548.618586 304.805455 
L 554.57708 304.805455 
L 560.535574 304.805455 
L 566.494068 304.805455 
L 572.452562 304.805455 
L 578.411056 304.805455 
L 584.36955 304.805455 
L 590.328044 304.805455 
L 596.286538 304.805455 
L 602.245032 304.805455 
L 608.203526 304.805455 
L 614.16202 304.805455 
L 620.120514 304.805455 
L 626.079008 304.805455 
L 632.037502 304.805455 
L 637.995996 304.805455 
L 643.95449 304.805455 
L 649.912984 304.805455 
L 655.871478 304.805455 
L 661.829972 304.805455 
L 667.788466 304.805455 
L 673.746961 304.805455 
L 679.705455 304.805455 
" clip-path="url(#p2a372aa4c4)" style="fill: none; stroke: #d62728; stroke-width: 2; stroke-linecap: square"/>
   </g>
   <g id="patch_3">
    <path d="M 60.32 318.04 
L 60.32 26.88 
" style="fill: none; stroke: #000000; stroke-width: 0.8; stroke-linejoin: miter; stroke-linecap: square"/>
   </g>
   <g id="patch_4">
    <path d="M 709.2 318.04 
L 709.2 26.88 
" style="fill: none; stroke: #000000; stroke-width: 0.8; stroke-linejoin: miter; stroke-linecap: square"/>
   </g>
   <g id="patch_5">
    <path d="M 60.32 318.04 
L 709.2 318.04 
" style="fill: none; stroke: #000000; stroke-width: 0.8; stroke-linejoin: miter; stroke-linecap: square"/>
   </g>
   <g id="patch_6">
    <path d="M 60.32 26.88 
L 709.2 26.88 
" style="fill: none; stroke: #000000; stroke-width: 0.8; stroke-linejoin: miter; stroke-linecap: square"/>
   </g>
   <g id="text_15">
    <!-- Uniform: distortion vs iteration -->
    <g transform="translate(292.559687 20.88) scale(0.12 -0.12)">
     <defs>
      <path id="DejaVuSans-55" d="M 556 4666 
L 1191 4666 
L 1191 1831 
Q 1191 1081 1462 751 
Q 1734 422 2344 422 
Q 2950 422 3222 751 
Q 3494 1081 3494 1831 
L 3494 4666 
L 4128 4666 
L 4128 1753 
Q 4128 841 3676 375 
Q 3225 -91 2344 -91 
Q 1459 -91 1007 375 
Q 556 841 556 1753 
L 556 4666 
z
" transform="scale(0.015625)"/>
      <path id="DejaVuSans-66" d="M 2375 4863 
L 2375 4384 
L 1825 4384 
Q 1516 4384 1395 4259 
Q 1275 4134 1275 3809 
L 1275 3500 
L 2222 3500 
L 2222 3053 
L 1275 3053 
L 1275 0 
L 697 0 
L 697 3053 
L 147 3053 
L 147 3500 
L 697 3500 
L 697 3744 
Q 697 4328 969 4595 
Q 1241 4863 1831 4863 
L 2375 4863 
z
" transform="scale(0.015625)"/>
      <path id="DejaVuSans-6d" d="M 3328 2828 
Q 3544 3216 3844 3400 
Q 4144 3584 4550 3584 
Q 5097 3584 5394 3201 
Q 5691 2819 5691 2113 
L 5691 0 
L 5113 0 
L 5113 2094 
Q 5113 2597 4934 2840 
Q 4756 3084 4391 3084 
Q 3944 3084 3684 2787 
Q 3425 2491 3425 1978 
L 3425 0 
L 2847 0 
L 2847 2094 
Q 2847 2600 2669 2842 
Q 2491 3084 2119 3084 
Q 1678 3084 1418 2786 
Q 1159 2488 1159 1978 
L 1159 0 
L 581 0 
L 581 3500 
L 1159 3500 
L 1159 2956 
Q 1356 3278 1631 3431 
Q 1906 3584 2284 3584 
Q 2666 3584 2933 3390 
Q 3200 3197 3328 2828 
z
" transform="scale(0.015625)"/>
      <path id="DejaVuSans-3a" d="M 750 794 
L 1409 794 
L 1409 0 
L 750 0 
L 750 794 
z
M 750 3309 
L 1409 3309 
L 1409 2516 
L 750 2516 
L 750 3309 
z
" transform="scale(0.015625)"/>
      <path id="DejaVuSans-20" transform="scale(0.015625)"/>
      <path id="DejaVuSans-64" d="M 2906 2969 
L 2906 4863 
L 3481 4863 
L 3481 0 
L 2906 0 
L 2906 525 
Q 2725 213 2448 61 
Q 2172 -91 1784 -91 
Q 1150 -91 751 415 
Q 353 922 353 1747 
Q 353 2572 751 3078 
Q 1150 3584 1784 3584 
Q 2172 3584 2448 3432 
Q 2725 3281 2906 2969 
z
M 947 1747 
Q 947 1113 1208 752 
Q 1469 391 1925 391 
Q 2381 391 2643 752 
Q 2906 1113 2906 1747 
Q 2906 2381 2643 2742 
Q 2381 3103 1925 3103 
Q 1469 3103 1208 2742 
Q 947 2381 947 1747 
z
" transform="scale(0.015625)"/>
      <path id="DejaVuSans-76" d="M 191 3500 
L 800 3500 
L 1894 563 
L 2988 3500 
L 3597 3500 
L 2284 0 
L 1503 0 
L 191 3500 
z
" transform="scale(0.015625)"/>
     </defs>
     <use xlink:href="#DejaVuSans-55"/>
     <use xlink:href="#DejaVuSans-6e" transform="translate(73.193359 0)"/>
     <use xlink:href="#DejaVuSans-69" transform="translate(136.572266 0)"/>
     <use xlink:href="#DejaVuSans-66" transform="translate(164.355469 0)"/>
     <use xlink:href="#DejaVuSans-6f" transform="translate(199.560547 0)"/>
     <use xlink:href="#DejaVuSans-72" transform="translate(260.742188 0)"/>
     <use xlink:href="#DejaVuSans-6d" transform="translate(300.105469 0)"/>
     <use xlink:href="#DejaVuSans-3a" transform="translate(397.517578 0)"/>
     <use xlink:href="#DejaVuSans-20" transform="translate(431.208984 0)"/>
     <use xlink:href="#DejaVuSans-64" transform="translate(462.996094 0)"/>
     <use xlink:href="#DejaVuSans-69" transform="translate(526.472656 0)"/>
     <use xlink:href="#DejaVuSans-73" transform="translate(554.255859 0)"/>
     <use xlink:href="#DejaVuSans-74" transform="translate(606.355469 0)"/>
     <use xlink:href="#DejaVuSans-6f" transform="translate(645.564453 0)"/>
     <use xlink:href="#DejaVuSans-72" transform="translate(706.746094 0)"/>
     <use xlink:href="#DejaVuSans-74" transform="translate(747.859375 0)"/>
     <use xlink:href="#DejaVuSans-69" transform="translate(787.068359 0)"/>
     <use xlink:href="#DejaVuSans-6f" transform="translate(814.851562 0)"/>
     <use xlink:href="#DejaVuSans-6e" transform="translate(876.033203 0)"/>
     <use xlink:href="#DejaVuSans-20" transform="translate(939.412109 0)"/>
     <use xlink:href="#DejaVuSans-76" transform="translate(971.199219 0)"/>
     <use xlink:href="#DejaVuSans-73" transform="translate(1030.378906 0)"/>
     <use xlink:href="#DejaVuSans-20" transform="translate(1082.478516 0)"/>
     <use xlink:href="#DejaVuSans-69" transform="translate(1114.265625 0)"/>
     <use xlink:href="#DejaVuSans-74" transform="translate(1142.048828 0)"/>
     <use xlink:href="#DejaVuSans-65" transform="translate(1181.257812 0)"/>
     <use xlink:href="#DejaVuSans-72" transform="translate(1242.78125 0)"/>
     <use xlink:href="#DejaVuSans-61" transform="translate(1283.894531 0)"/>
     <use xlink:href="#DejaVuSans-74" transform="translate(1345.173828 0)"/>
     <use xlink:href="#DejaVuSans-69" transform="translate(1384.382812 0)"/>
     <use xlink:href="#DejaVuSans-6f" transform="translate(1412.166016 0)"/>
     <use xlink:href="#DejaVuSans-6e" transform="translate(1473.347656 0)"/>
    </g>
   </g>
   <g id="legend_1">
    <g id="patch_7">
     <path d="M 558.626562 93.5925 
L 702.2 93.5925 
Q 704.2 93.5925 704.2 91.5925 
L 704.2 33.88 
Q 704.2 31.88 702.2 31.88 
L 558.626562 31.88 
Q 556.626562 31.88 556.626562 33.88 
L 556.626562 91.5925 
Q 556.626562 93.5925 558.626562 93.5925 
z
" style="fill: #ffffff; opacity: 0.8; stroke: #cccccc; stroke-linejoin: miter"/>
    </g>
    <g id="line2d_29">
     <path d="M 560.626562 39.978437 
L 570.626562 39.978437 
L 580.626562 39.978437 
" style="fill: none; stroke: #1f77b4; stroke-width: 2; stroke-linecap: square"/>
    </g>
    <g id="text_16">
     <!-- Lloyd -->
     <g transform="translate(588.626562 43.478437) scale(0.1 -0.1)">
      <defs>
       <path id="DejaVuSans-4c" d="M 628 4666 
L 1259 4666 
L 1259 531 
L 3531 531 
L 3531 0 
L 628 0 
L 628 4666 
z
" transform="scale(0.015625)"/>
       <path id="DejaVuSans-6c" d="M 603 4863 
L 1178 4863 
L 1178 0 
L 603 0 
L 603 4863 
z
" transform="scale(0.015625)"/>
       <path id="DejaVuSans-79" d="M 2059 -325 
Q 1816 -950 1584 -1140 
Q 1353 -1331 966 -1331 
L 506 -1331 
L 506 -850 
L 844 -850 
Q 1081 -850 1212 -737 
Q 1344 -625 1503 -206 
L 1606 56 
L 191 3500 
L 800 3500 
L 1894 763 
L 2988 3500 
L 3597 3500 
L 2059 -325 
z
" transform="scale(0.015625)"/>
      </defs>
      <use xlink:href="#DejaVuSans-4c"/>
      <use xlink:href="#DejaVuSans-6c" transform="translate(55.712891 0)"/>
      <use xlink:href="#DejaVuSans-6f" transform="translate(83.496094 0)"/>
      <use xlink:href="#DejaVuSans-79" transform="translate(144.677734 0)"/>
      <use xlink:href="#DejaVuSans-64" transform="translate(203.857422 0)"/>
     </g>
    </g>
    <g id="line2d_30">
     <path d="M 560.626562 54.656563 
L 570.626562 54.656563 
L 580.626562 54.656563 
" style="fill: none; stroke: #ff7f0e; stroke-width: 2; stroke-linecap: square"/>
    </g>
    <g id="text_17">
     <!-- Mean-field CLVQ -->
     <g transform="translate(588.626562 58.156563) scale(0.1 -0.1)">
      <defs>
       <path id="DejaVuSans-4d" d="M 628 4666 
L 1569 4666 
L 2759 1491 
L 3956 4666 
L 4897 4666 
L 4897 0 
L 4281 0 
L 4281 4097 
L 3078 897 
L 2444 897 
L 1241 4097 
L 1241 0 
L 628 0 
L 628 4666 
z
" transform="scale(0.015625)"/>
       <path id="DejaVuSans-2d" d="M 313 2009 
L 1997 2009 
L 1997 1497 
L 313 1497 
L 313 2009 
z
" transform="scale(0.015625)"/>
       <path id="DejaVuSans-43" d="M 4122 4306 
L 4122 3641 
Q 3803 3938 3442 4084 
Q 3081 4231 2675 4231 
Q 1875 4231 1450 3742 
Q 1025 3253 1025 2328 
Q 1025 1406 1450 917 
Q 1875 428 2675 428 
Q 3081 428 3442 575 
Q 3803 722 4122 1019 
L 4122 359 
Q 3791 134 3420 21 
Q 3050 -91 2638 -91 
Q 1578 -91 968 557 
Q 359 1206 359 2328 
Q 359 3453 968 4101 
Q 1578 4750 2638 4750 
Q 3056 4750 3426 4639 
Q 3797 4528 4122 4306 
z
" transform="scale(0.015625)"/>
       <path id="DejaVuSans-56" d="M 1831 0 
L 50 4666 
L 709 4666 
L 2188 738 
L 3669 4666 
L 4325 4666 
L 2547 0 
L 1831 0 
z
" transform="scale(0.015625)"/>
       <path id="DejaVuSans-51" d="M 2522 4238 
Q 1834 4238 1429 3725 
Q 1025 3213 1025 2328 
Q 1025 1447 1429 934 
Q 1834 422 2522 422 
Q 3209 422 3611 934 
Q 4013 1447 4013 2328 
Q 4013 3213 3611 3725 
Q 3209 4238 2522 4238 
z
M 3406 84 
L 4238 -825 
L 3475 -825 
L 2784 -78 
Q 2681 -84 2626 -87 
Q 2572 -91 2522 -91 
Q 1538 -91 948 567 
Q 359 1225 359 2328 
Q 359 3434 948 4092 
Q 1538 4750 2522 4750 
Q 3503 4750 4090 4092 
Q 4678 3434 4678 2328 
Q 4678 1516 4351 937 
Q 4025 359 3406 84 
z
" transform="scale(0.015625)"/>
      </defs>
      <use xlink:href="#DejaVuSans-4d"/>
      <use xlink:href="#DejaVuSans-65" transform="translate(86.279297 0)"/>
      <use xlink:href="#DejaVuSans-61" transform="translate(147.802734 0)"/>
      <use xlink:href="#DejaVuSans-6e" transform="translate(209.082031 0)"/>
      <use xlink:href="#DejaVuSans-2d" transform="translate(272.460938 0)"/>
      <use xlink:href="#DejaVuSans-66" transform="translate(308.544922 0)"/>
      <use xlink:href="#DejaVuSans-69" transform="translate(343.75 0)"/>
      <use xlink:href="#DejaVuSans-65" transform="translate(371.533203 0)"/>
      <use xlink:href="#DejaVuSans-6c" transform="translate(433.056641 0)"/>
      <use xlink:href="#DejaVuSans-64" transform="translate(460.839844 0)"/>
      <use xlink:href="#DejaVuSans-20" transform="translate(524.316406 0)"/>
      <use xlink:href="#DejaVuSans-43" transform="translate(556.103516 0)"/>
      <use xlink:href="#DejaVuSans-4c" transform="translate(625.927734 0)"/>
      <use xlink:href="#DejaVuSans-56" transform="translate(670.640625 0)"/>
      <use xlink:href="#DejaVuSans-51" transform="translate(739.048828 0)"/>
     </g>
    </g>
    <g id="line2d_31">
     <path d="M 560.626562 69.334687 
L 570.626562 69.334687 
L 580.626562 69.334687 
" style="fill: none; stroke: #2ca02c; stroke-width: 2; stroke-linecap: square"/>
    </g>
    <g id="text_18">
     <!-- Newton–Raphson -->
     <g transform="translate(588.626562 72.834687) scale(0.1 -0.1)">
      <defs>
       <path id="DejaVuSans-4e" d="M 628 4666 
L 1478 4666 
L 3547 763 
L 3547 4666 
L 4159 4666 
L 4159 0 
L 3309 0 
L 1241 3903 
L 1241 0 
L 628 0 
L 628 4666 
z
" transform="scale(0.015625)"/>
       <path id="DejaVuSans-77" d="M 269 3500 
L 844 3500 
L 1563 769 
L 2278 3500 
L 2956 3500 
L 3675 769 
L 4391 3500 
L 4966 3500 
L 4050 0 
L 3372 0 
L 2619 2869 
L 1863 0 
L 1184 0 
L 269 3500 
z
" transform="scale(0.015625)"/>
       <path id="DejaVuSans-2013" d="M 313 1978 
L 2888 1978 
L 2888 1528 
L 313 1528 
L 313 1978 
z
" transform="scale(0.015625)"/>
       <path id="DejaVuSans-52" d="M 2841 2188 
Q 3044 2119 3236 1894 
Q 3428 1669 3622 1275 
L 4263 0 
L 3584 0 
L 2988 1197 
Q 2756 1666 2539 1819 
Q 2322 1972 1947 1972 
L 1259 1972 
L 1259 0 
L 628 0 
L 628 4666 
L 2053 4666 
Q 2853 4666 3247 4331 
Q 3641 3997 3641 3322 
Q 3641 2881 3436 2590 
Q 3231 2300 2841 2188 
z
M 1259 4147 
L 1259 2491 
L 2053 2491 
Q 2509 2491 2742 2702 
Q 2975 2913 2975 3322 
Q 2975 3731 2742 3939 
Q 2509 4147 2053 4147 
L 1259 4147 
z
" transform="scale(0.015625)"/>
       <path id="DejaVuSans-70" d="M 1159 525 
L 1159 -1331 
L 581 -1331 
L 581 3500 
L 1159 3500 
L 1159 2969 
Q 1341 3281 1617 3432 
Q 1894 3584 2278 3584 
Q 2916 3584 3314 3078 
Q 3713 2572 3713 1747 
Q 3713 922 3314 415 
Q 2916 -91 2278 -91 
Q 1894 -91 1617 61 
Q 1341 213 1159 525 
z
M 3116 1747 
Q 3116 2381 2855 2742 
Q 2594 3103 2138 3103 
Q 1681 3103 1420 2742 
Q 1159 2381 1159 1747 
Q 1159 1113 1420 752 
Q 1681 391 2138 391 
Q 2594 391 2855 752 
Q 3116 1113 3116 1747 
z
" transform="scale(0.015625)"/>
       <path id="DejaVuSans-68" d="M 3513 2113 
L 3513 0 
L 2938 0 
L 2938 2094 
Q 2938 2591 2744 2837 
Q 2550 3084 2163 3084 
Q 1697 3084 1428 2787 
Q 1159 2491 1159 1978 
L 1159 0 
L 581 0 
L 581 4863 
L 1159 4863 
L 1159 2956 
Q 1366 3272 1645 3428 
Q 1925 3584 2291 3584 
Q 2894 3584 3203 3211 
Q 3513 2838 3513 2113 
z
" transform="scale(0.015625)"/>
      </defs>
      <use xlink:href="#DejaVuSans-4e"/>
      <use xlink:href="#DejaVuSans-65" transform="translate(74.804688 0)"/>
      <use xlink:href="#DejaVuSans-77" transform="translate(136.328125 0)"/>
      <use xlink:href="#DejaVuSans-74" transform="translate(218.115234 0)"/>
      <use xlink:href="#DejaVuSans-6f" transform="translate(257.324219 0)"/>
      <use xlink:href="#DejaVuSans-6e" transform="translate(318.505859 0)"/>
      <use xlink:href="#DejaVuSans-2013" transform="translate(381.884766 0)"/>
      <use xlink:href="#DejaVuSans-52" transform="translate(431.884766 0)"/>
      <use xlink:href="#DejaVuSans-61" transform="translate(499.117188 0)"/>
      <use xlink:href="#DejaVuSans-70" transform="translate(560.396484 0)"/>
      <use xlink:href="#DejaVuSans-68" transform="translate(623.873047 0)"/>
      <use xlink:href="#DejaVuSans-73" transform="translate(687.251953 0)"/>
      <use xlink:href="#DejaVuSans-6f" transform="translate(739.351562 0)"/>
      <use xlink:href="#DejaVuSans-6e" transform="translate(800.533203 0)"/>
     </g>
    </g>
    <g id="line2d_32">
     <path d="M 560.626562 84.012812 
L 570.626562 84.012812 
L 580.626562 84.012812 
" style="fill: none; stroke: #d62728; stroke-width: 2; stroke-linecap: square"/>
    </g>
    <g id="text_19">
     <!-- Newton–Raphson (LM) -->
     <g transform="translate(588.626562 87.512812) scale(0.1 -0.1)">
      <defs>
       <path id="DejaVuSans-28" d="M 1984 4856 
Q 1566 4138 1362 3434 
Q 1159 2731 1159 2009 
Q 1159 1288 1364 580 
Q 1569 -128 1984 -844 
L 1484 -844 
Q 1016 -109 783 600 
Q 550 1309 550 2009 
Q 550 2706 781 3412 
Q 1013 4119 1484 4856 
L 1984 4856 
z
" transform="scale(0.015625)"/>
       <path id="DejaVuSans-29" d="M 513 4856 
L 1013 4856 
Q 1481 4119 1714 3412 
Q 1947 2706 1947 2009 
Q 1947 1309 1714 600 
Q 1481 -109 1013 -844 
L 513 -844 
Q 928 -128 1133 580 
Q 1338 1288 1338 2009 
Q 1338 2731 1133 3434 
Q 928 4138 513 4856 
z
" transform="scale(0.015625)"/>
      </defs>
      <use xlink:href="#DejaVuSans-4e"/>
      <use xlink:href="#DejaVuSans-65" transform="translate(74.804688 0)"/>
      <use xlink:href="#DejaVuSans-77" transform="translate(136.328125 0)"/>
      <use xlink:href="#DejaVuSans-74" transform="translate(218.115234 0)"/>
      <use xlink:href="#DejaVuSans-6f" transform="translate(257.324219 0)"/>
      <use xlink:href="#DejaVuSans-6e" transform="translate(318.505859 0)"/>
      <use xlink:href="#DejaVuSans-2013" transform="translate(381.884766 0)"/>
      <use xlink:href="#DejaVuSans-52" transform="translate(431.884766 0)"/>
      <use xlink:href="#DejaVuSans-61" transform="translate(499.117188 0)"/>
      <use xlink:href="#DejaVuSans-70" transform="translate(560.396484 0)"/>
      <use xlink:href="#DejaVuSans-68" transform="translate(623.873047 0)"/>
      <use xlink:href="#DejaVuSans-73" transform="translate(687.251953 0)"/>
      <use xlink:href="#DejaVuSans-6f" transform="translate(739.351562 0)"/>
      <use xlink:href="#DejaVuSans-6e" transform="translate(800.533203 0)"/>
      <use xlink:href="#DejaVuSans-20" transform="translate(863.912109 0)"/>
      <use xlink:href="#DejaVuSans-28" transform="translate(895.699219 0)"/>
      <use xlink:href="#DejaVuSans-4c" transform="translate(934.712891 0)"/>
      <use xlink:href="#DejaVuSans-4d" transform="translate(990.425781 0)"/>
      <use xlink:href="#DejaVuSans-29" transform="translate(1076.705078 0)"/>
     </g>
    </g>
   </g>
  </g>
 </g>
 <defs>
  <clipPath id="p2a372aa4c4">
   <rect x="60.32" y="26.88" width="648.88" height="291.16"/>
  </clipPath>
 </defs>
</svg>
